Manrope-Medium.ufo
<glyph name="exclam" format="2">
  <advance width="329"/>
  <unicode hex="0021"/>
  <note>
exclam
</note>
  <outline>
    <contour>
      <point x="120" y="0" type="line"/>
      <point x="209" y="0" type="line"/>
      <point x="209" y="92" type="line"/>
      <point x="120" y="92" type="line"/>
    </contour>
    <component base="idotless" xOffset="40" yOffset="180"/>
  </outline>
</glyph>
<glyph name="numbersign" format="2">
  <advance width="924"/>
  <unicode hex="0023"/>
  <note>
numbersign
</note>
  <outline>
    <contour>
      <point x="200" y="0" type="line"/>
      <point x="288" y="0" type="line"/>
      <point x="344" y="210" type="line"/>
      <point x="496" y="210" type="line"/>
      <point x="440" y="0" type="line"/>
      <point x="528" y="0" type="line"/>
      <point x="584" y="210" type="line"/>
      <point x="780" y="210" type="line"/>
      <point x="802" y="295" type="line"/>
      <point x="606" y="295" type="line"/>
      <point x="646" y="441" type="line"/>
      <point x="842" y="441" type="line"/>
      <point x="864" y="526" type="line"/>
      <point x="668" y="526" type="line"/>
      <point x="720" y="720" type="line"/>
      <point x="632" y="720" type="line"/>
      <point x="580" y="526" type="line"/>
      <point x="428" y="526" type="line"/>
      <point x="480" y="720" type="line"/>
      <point x="392" y="720" type="line"/>
      <point x="340" y="526" type="line"/>
      <point x="144" y="526" type="line"/>
      <point x="122" y="441" type="line"/>
      <point x="318" y="441" type="line"/>
      <point x="279" y="295" type="line"/>
      <point x="82" y="295" type="line"/>
      <point x="60" y="210" type="line"/>
      <point x="256" y="210" type="line"/>
    </contour>
    <contour>
      <point x="366" y="295" type="line"/>
      <point x="406" y="441" type="line"/>
      <point x="558" y="441" type="line"/>
      <point x="518" y="295" type="line"/>
    </contour>
  </outline>
</glyph>
<glyph name="dollar" format="2">
  <advance width="582"/>
  <unicode hex="0024"/>
  <note>
dollar
</note>
  <outline>
    <contour>
      <point x="245" y="-99" type="line"/>
      <point x="334" y="-99" type="line"/>
      <point x="334" y="20" type="line"/>
      <point x="245" y="20" type="line"/>
    </contour>
    <contour>
      <point x="245" y="700" type="line"/>
      <point x="334" y="700" type="line"/>
      <point x="334" y="820" type="line"/>
      <point x="245" y="820" type="line"/>
    </contour>
    <contour>
      <point x="297" y="-15" type="curve" smooth="yes"/>
      <point x="434" y="-15"/>
      <point x="552" y="57"/>
      <point x="552" y="200" type="curve" smooth="yes"/>
      <point x="552" y="342"/>
      <point x="437" y="376"/>
      <point x="380" y="392" type="curve" smooth="yes"/>
      <point x="250" y="432" type="line" smooth="yes"/>
      <point x="196" y="449"/>
      <point x="136" y="471"/>
      <point x="136" y="536" type="curve" smooth="yes"/>
      <point x="136" y="605"/>
      <point x="204" y="651"/>
      <point x="286" y="650" type="curve" smooth="yes"/>
      <point x="371" y="649"/>
      <point x="444" y="596"/>
      <point x="458" y="508" type="curve"/>
      <point x="548" y="524" type="line"/>
      <point x="522" y="660"/>
      <point x="419" y="734"/>
      <point x="286" y="734" type="curve" smooth="yes"/>
      <point x="154" y="735"/>
      <point x="48" y="663"/>
      <point x="48" y="532" type="curve" smooth="yes"/>
      <point x="48" y="404"/>
      <point x="151" y="370"/>
      <point x="195" y="356" type="curve" smooth="yes"/>
      <point x="360" y="305" type="line" smooth="yes"/>
      <point x="407" y="290"/>
      <point x="466" y="270"/>
      <point x="466" y="196" type="curve" smooth="yes"/>
      <point x="466" y="113"/>
      <point x="388" y="70"/>
      <point x="301" y="70" type="curve" smooth="yes"/>
      <point x="207" y="70"/>
      <point x="130" y="122"/>
      <point x="108" y="214" type="curve"/>
      <point x="20" y="200" type="line"/>
      <point x="44" y="64"/>
      <point x="154" y="-15"/>
    </contour>
  </outline>
</glyph>
<glyph name="ampersand" format="2">
  <advance width="657"/>
  <unicode hex="0026"/>
  <note>
ampersand
</note>
  <outline>
    <contour>
      <point x="304" y="-15" type="curve" smooth="yes"/>
      <point x="340" y="-15"/>
      <point x="376" y="-12"/>
      <point x="411" y="2" type="curve" smooth="yes"/>
      <point x="447" y="12"/>
      <point x="485" y="35"/>
      <point x="512" y="65" type="curve"/>
      <point x="588" y="-7" type="line"/>
      <point x="646" y="55" type="line"/>
      <point x="554" y="140" type="line"/>
      <point x="560" y="161"/>
      <point x="564" y="194"/>
      <point x="564" y="242" type="curve" smooth="yes"/>
      <point x="564" y="358" type="line"/>
      <point x="482" y="358" type="line"/>
      <point x="482" y="259" type="line" smooth="yes"/>
      <point x="482" y="242"/>
      <point x="482" y="225"/>
      <point x="480" y="208" type="curve"/>
      <point x="268" y="406" type="line" smooth="yes"/>
      <point x="249" y="422"/>
      <point x="230" y="439"/>
      <point x="217" y="454" type="curve" smooth="yes"/>
      <point x="194" y="481"/>
      <point x="180" y="501"/>
      <point x="180" y="540" type="curve" smooth="yes"/>
      <point x="180" y="584"/>
      <point x="198" y="616"/>
      <point x="236" y="634" type="curve" smooth="yes"/>
      <point x="257" y="644"/>
      <point x="281" y="650"/>
      <point x="306" y="650" type="curve" smooth="yes"/>
      <point x="338" y="650"/>
      <point x="370" y="643"/>
      <point x="394" y="624" type="curve" smooth="yes"/>
      <point x="408" y="612"/>
      <point x="419" y="598"/>
      <point x="426" y="580" type="curve"/>
      <point x="512" y="603" type="line"/>
      <point x="502" y="632"/>
      <point x="484" y="662"/>
      <point x="459" y="683" type="curve" smooth="yes"/>
      <point x="420" y="718"/>
      <point x="364" y="734"/>
      <point x="306" y="734" type="curve" smooth="yes"/>
      <point x="272" y="734"/>
      <point x="236" y="729"/>
      <point x="202" y="714" type="curve" smooth="yes"/>
      <point x="132" y="685"/>
      <point x="89" y="617"/>
      <point x="89" y="540" type="curve" smooth="yes"/>
      <point x="89" y="478"/>
      <point x="114" y="440"/>
      <point x="160" y="392" type="curve"/>
      <point x="138" y="380"/>
      <point x="115" y="366"/>
      <point x="98" y="345" type="curve" smooth="yes"/>
      <point x="64" y="306"/>
      <point x="50" y="252"/>
      <point x="50" y="200" type="curve" smooth="yes"/>
      <point x="52" y="146"/>
      <point x="68" y="97"/>
      <point x="105" y="58" type="curve" smooth="yes"/>
      <point x="152" y="8"/>
      <point x="224" y="-15"/>
    </contour>
    <contour>
      <point x="306" y="70" type="curve" smooth="yes"/>
      <point x="256" y="70"/>
      <point x="201" y="85"/>
      <point x="172" y="120" type="curve"/>
      <point x="152" y="142"/>
      <point x="142" y="170"/>
      <point x="141" y="205" type="curve" smooth="yes"/>
      <point x="140" y="237"/>
      <point x="149" y="266"/>
      <point x="166" y="288" type="curve" smooth="yes"/>
      <point x="182" y="306"/>
      <point x="203" y="320"/>
      <point x="228" y="328" type="curve"/>
      <point x="447" y="126" type="line"/>
      <point x="436" y="114"/>
      <point x="420" y="100"/>
      <point x="388" y="85" type="curve" smooth="yes"/>
      <point x="364" y="73"/>
      <point x="338" y="70"/>
    </contour>
  </outline>
</glyph>
<glyph name="parenleft" format="2">
  <advance width="435"/>
  <unicode hex="0028"/>
  <note>
parenleft
</note>
  <outline>
    <contour>
      <point x="326" y="-183" type="curve"/>
      <point x="392" y="-132" type="line"/>
      <point x="276" y="5"/>
      <point x="222" y="166"/>
      <point x="222" y="330" type="curve" smooth="yes"/>
      <point x="222" y="495"/>
      <point x="274" y="652"/>
      <point x="392" y="793" type="curve"/>
      <point x="326" y="843" type="line"/>
      <point x="210" y="708"/>
      <point x="138" y="516"/>
      <point x="140" y="330" type="curve" smooth="yes"/>
      <point x="138" y="144"/>
      <point x="210" y="-48"/>
    </contour>
  </outline>
</glyph>
<glyph name="asterisk" format="2">
  <advance width="446"/>
  <unicode hex="002A"/>
  <note>
asterisk
</note>
  <outline>
    <contour>
      <point x="138" y="381" type="line"/>
      <point x="208" y="484" type="line"/>
      <point x="278" y="381" type="line"/>
      <point x="343" y="428" type="line"/>
      <point x="266" y="526" type="line"/>
      <point x="386" y="561" type="line"/>
      <point x="361" y="638" type="line"/>
      <point x="244" y="594" type="line"/>
      <point x="248" y="720" type="line"/>
      <point x="168" y="720" type="line"/>
      <point x="172" y="594" type="line"/>
      <point x="55" y="638" type="line"/>
      <point x="30" y="561" type="line"/>
      <point x="150" y="526" type="line"/>
      <point x="72" y="428" type="line"/>
    </contour>
  </outline>
</glyph>
<glyph name="plus" format="2">
  <advance width="575"/>
  <unicode hex="002B"/>
  <note>
plus
</note>
  <outline>
    <contour>
      <point x="251" y="132" type="line"/>
      <point x="324" y="132" type="line"/>
      <point x="324" y="324" type="line"/>
      <point x="515" y="324" type="line"/>
      <point x="515" y="397" type="line"/>
      <point x="324" y="397" type="line"/>
      <point x="324" y="588" type="line"/>
      <point x="251" y="588" type="line"/>
      <point x="251" y="397" type="line"/>
      <point x="60" y="397" type="line"/>
      <point x="60" y="324" type="line"/>
      <point x="251" y="324" type="line"/>
    </contour>
  </outline>
</glyph>
<glyph name="comma" format="2">
  <advance width="278"/>
  <unicode hex="002C"/>
  <note>
comma
</note>
  <outline>
    <contour>
      <point x="60" y="-112" type="line"/>
      <point x="122" y="-124"/>
      <point x="158" y="-85"/>
      <point x="158" y="-15" type="curve" smooth="yes"/>
      <point x="158" y="113" type="line"/>
      <point x="60" y="113" type="line"/>
      <point x="60" y="0" type="line"/>
      <point x="112" y="0" type="line"/>
      <point x="115" y="-40"/>
      <point x="107" y="-74"/>
      <point x="66" y="-70" type="curve"/>
    </contour>
  </outline>
</glyph>
<glyph name="period" format="2">
  <advance width="270"/>
  <unicode hex="002E"/>
  <note>
period
</note>
  <outline>
    <contour>
      <point x="86" y="0" type="line"/>
      <point x="184" y="0" type="line"/>
      <point x="184" y="98" type="line"/>
      <point x="86" y="98" type="line"/>
    </contour>
  </outline>
</glyph>
<glyph name="zero" format="2">
  <advance width="626"/>
  <unicode hex="0030"/>
  <outline>
    <contour>
      <point x="313" y="-15" type="curve" smooth="yes"/>
      <point x="453" y="-15"/>
      <point x="556" y="88"/>
      <point x="556" y="228" type="curve" smooth="yes"/>
      <point x="556" y="492" type="line" smooth="yes"/>
      <point x="556" y="632"/>
      <point x="453" y="735"/>
      <point x="313" y="735" type="curve" smooth="yes"/>
      <point x="173" y="735"/>
      <point x="70" y="632"/>
      <point x="70" y="492" type="curve" smooth="yes"/>
      <point x="70" y="228" type="line" smooth="yes"/>
      <point x="70" y="88"/>
      <point x="173" y="-15"/>
    </contour>
    <contour>
      <point x="313" y="70" type="curve" smooth="yes"/>
      <point x="228" y="70"/>
      <point x="160" y="138"/>
      <point x="160" y="223" type="curve" smooth="yes"/>
      <point x="160" y="498" type="line" smooth="yes"/>
      <point x="160" y="582"/>
      <point x="228" y="650"/>
      <point x="313" y="650" type="curve" smooth="yes"/>
      <point x="398" y="650"/>
      <point x="466" y="582"/>
      <point x="466" y="498" type="curve" smooth="yes"/>
      <point x="466" y="223" type="line" smooth="yes"/>
      <point x="466" y="138"/>
      <point x="398" y="70"/>
    </contour>
  </outline>
</glyph>
<glyph name="two" format="2">
  <advance width="578"/>
  <unicode hex="0032"/>
  <note>
two
</note>
  <outline>
    <contour>
      <point x="50" y="0" type="line"/>
      <point x="528" y="0" type="line"/>
      <point x="528" y="86" type="line"/>
      <point x="142" y="86" type="line"/>
      <point x="154" y="56" type="line"/>
      <point x="419" y="294" type="line" smooth="yes"/>
      <point x="493" y="360"/>
      <point x="528" y="407"/>
      <point x="528" y="502" type="curve" smooth="yes"/>
      <point x="528" y="634"/>
      <point x="428" y="735"/>
      <point x="294" y="735" type="curve" smooth="yes"/>
      <point x="156" y="735"/>
      <point x="54" y="638"/>
      <point x="54" y="503" type="curve"/>
      <point x="144" y="503" type="line"/>
      <point x="144" y="582"/>
      <point x="206" y="650"/>
      <point x="292" y="650" type="curve" smooth="yes"/>
      <point x="376" y="650"/>
      <point x="438" y="586"/>
      <point x="438" y="502" type="curve" smooth="yes"/>
      <point x="438" y="457"/>
      <point x="423" y="416"/>
      <point x="370" y="368" type="curve" smooth="yes"/>
      <point x="50" y="80" type="line"/>
    </contour>
  </outline>
</glyph>
<glyph name="three" format="2">
  <advance width="562"/>
  <unicode hex="0033"/>
  <note>
three
</note>
  <outline>
    <contour>
      <point x="268" y="-14" type="curve" smooth="yes"/>
      <point x="401" y="-14"/>
      <point x="502" y="84"/>
      <point x="502" y="222" type="curve" smooth="yes"/>
      <point x="502" y="358"/>
      <point x="408" y="458"/>
      <point x="264" y="448" type="curve"/>
      <point x="266" y="416" type="line"/>
      <point x="493" y="634" type="line"/>
      <point x="493" y="720" type="line"/>
      <point x="68" y="720" type="line"/>
      <point x="68" y="635" type="line"/>
      <point x="427" y="635" type="line"/>
      <point x="416" y="665" type="line"/>
      <point x="148" y="424" type="line"/>
      <point x="192" y="353" type="line"/>
      <point x="214" y="364"/>
      <point x="242" y="372"/>
      <point x="266" y="372" type="curve" smooth="yes"/>
      <point x="352" y="372"/>
      <point x="411" y="310"/>
      <point x="411" y="222" type="curve" smooth="yes"/>
      <point x="411" y="134"/>
      <point x="354" y="72"/>
      <point x="267" y="71" type="curve" smooth="yes"/>
      <point x="203" y="70"/>
      <point x="147" y="106"/>
      <point x="126" y="172" type="curve"/>
      <point x="40" y="148" type="line"/>
      <point x="70" y="48"/>
      <point x="160" y="-14"/>
    </contour>
  </outline>
</glyph>
<glyph name="four" format="2">
  <advance width="596"/>
  <unicode hex="0034"/>
  <note>
four
</note>
  <outline>
    <contour>
      <point x="381" y="0" type="line"/>
      <point x="471" y="0" type="line"/>
      <point x="471" y="132" type="line"/>
      <point x="546" y="132" type="line"/>
      <point x="546" y="217" type="line"/>
      <point x="471" y="217" type="line"/>
      <point x="471" y="420" type="line"/>
      <point x="381" y="420" type="line"/>
      <point x="381" y="217" type="line"/>
      <point x="151" y="217" type="line"/>
      <point x="388" y="720" type="line"/>
      <point x="288" y="720" type="line"/>
      <point x="50" y="217" type="line"/>
      <point x="50" y="132" type="line"/>
      <point x="381" y="132" type="line"/>
    </contour>
  </outline>
</glyph>
<glyph name="five" format="2">
  <advance width="580"/>
  <unicode hex="0035"/>
  <note>
five
</note>
  <outline>
    <contour>
      <point x="283" y="-15" type="curve" smooth="yes"/>
      <point x="417" y="-15"/>
      <point x="530" y="94"/>
      <point x="530" y="226" type="curve" smooth="yes"/>
      <point x="530" y="360"/>
      <point x="429" y="464"/>
      <point x="296" y="464" type="curve" smooth="yes"/>
      <point x="237" y="464"/>
      <point x="178" y="439"/>
      <point x="138" y="396" type="curve"/>
      <point x="158" y="371" type="line"/>
      <point x="176" y="672" type="line"/>
      <point x="137" y="636" type="line"/>
      <point x="480" y="636" type="line"/>
      <point x="480" y="720" type="line"/>
      <point x="94" y="720" type="line"/>
      <point x="72" y="344" type="line"/>
      <point x="151" y="314" type="line"/>
      <point x="177" y="351"/>
      <point x="222" y="382"/>
      <point x="286" y="382" type="curve" smooth="yes"/>
      <point x="370" y="382"/>
      <point x="441" y="314"/>
      <point x="441" y="226" type="curve" smooth="yes"/>
      <point x="441" y="142"/>
      <point x="373" y="72"/>
      <point x="286" y="72" type="curve" smooth="yes"/>
      <point x="218" y="72"/>
      <point x="154" y="116"/>
      <point x="136" y="187" type="curve"/>
      <point x="50" y="164" type="line"/>
      <point x="79" y="59"/>
      <point x="172" y="-15"/>
    </contour>
  </outline>
</glyph>
<glyph name="six" format="2">
  <advance width="621"/>
  <unicode hex="0036"/>
  <note>
six
</note>
  <outline>
    <contour>
      <point x="316" y="-15" type="curve" smooth="yes"/>
      <point x="450" y="-15"/>
      <point x="561" y="92"/>
      <point x="561" y="226" type="curve" smooth="yes"/>
      <point x="561" y="360"/>
      <point x="460" y="464"/>
      <point x="326" y="464" type="curve" smooth="yes"/>
      <point x="250" y="464"/>
      <point x="182" y="424"/>
      <point x="141" y="364" type="curve"/>
      <point x="160" y="342" type="line"/>
      <point x="160" y="487" type="line" smooth="yes"/>
      <point x="160" y="573"/>
      <point x="228" y="650"/>
      <point x="324" y="650" type="curve" smooth="yes"/>
      <point x="376" y="650"/>
      <point x="425" y="623"/>
      <point x="454" y="582" type="curve"/>
      <point x="520" y="640" type="line"/>
      <point x="474" y="701"/>
      <point x="402" y="734"/>
      <point x="324" y="734" type="curve" smooth="yes"/>
      <point x="176" y="734"/>
      <point x="70" y="628"/>
      <point x="70" y="477" type="curve" smooth="yes"/>
      <point x="70" y="238" type="line" smooth="yes"/>
      <point x="70" y="93"/>
      <point x="178" y="-15"/>
    </contour>
    <contour>
      <point x="316" y="71" type="curve" smooth="yes"/>
      <point x="230" y="71"/>
      <point x="160" y="141"/>
      <point x="160" y="226" type="curve" smooth="yes"/>
      <point x="160" y="312"/>
      <point x="230" y="382"/>
      <point x="316" y="382" type="curve" smooth="yes"/>
      <point x="402" y="382"/>
      <point x="471" y="312"/>
      <point x="471" y="226" type="curve" smooth="yes"/>
      <point x="471" y="140"/>
      <point x="402" y="71"/>
    </contour>
  </outline>
</glyph>
<glyph name="eight" format="2">
  <advance width="591"/>
  <unicode hex="0038"/>
  <note>
eight
</note>
  <outline>
    <contour>
      <point x="295" y="-15" type="curve" smooth="yes"/>
      <point x="433" y="-15"/>
      <point x="531" y="74"/>
      <point x="531" y="206" type="curve" smooth="yes"/>
      <point x="531" y="292"/>
      <point x="488" y="365"/>
      <point x="406" y="402" type="curve"/>
      <point x="408" y="370" type="line"/>
      <point x="478" y="403"/>
      <point x="512" y="465"/>
      <point x="512" y="538" type="curve" smooth="yes"/>
      <point x="512" y="660"/>
      <point x="422" y="735"/>
      <point x="295" y="735" type="curve" smooth="yes"/>
      <point x="168" y="735"/>
      <point x="78" y="660"/>
      <point x="78" y="538" type="curve" smooth="yes"/>
      <point x="78" y="465"/>
      <point x="114" y="402"/>
      <point x="182" y="370" type="curve"/>
      <point x="184" y="402" type="line"/>
      <point x="100" y="364"/>
      <point x="60" y="292"/>
      <point x="60" y="206" type="curve" smooth="yes"/>
      <point x="60" y="74"/>
      <point x="157" y="-15"/>
    </contour>
    <contour>
      <point x="295" y="70" type="curve" smooth="yes"/>
      <point x="211" y="70"/>
      <point x="154" y="118"/>
      <point x="154" y="206" type="curve" smooth="yes"/>
      <point x="154" y="294"/>
      <point x="210" y="342"/>
      <point x="295" y="342" type="curve" smooth="yes"/>
      <point x="380" y="342"/>
      <point x="436" y="294"/>
      <point x="436" y="206" type="curve" smooth="yes"/>
      <point x="436" y="118"/>
      <point x="379" y="70"/>
    </contour>
    <contour>
      <point x="295" y="427" type="curve" smooth="yes"/>
      <point x="222" y="427"/>
      <point x="172" y="464"/>
      <point x="172" y="538" type="curve" smooth="yes"/>
      <point x="172" y="612"/>
      <point x="222" y="649"/>
      <point x="295" y="649" type="curve" smooth="yes"/>
      <point x="368" y="649"/>
      <point x="418" y="612"/>
      <point x="418" y="538" type="curve" smooth="yes"/>
      <point x="418" y="464"/>
      <point x="368" y="427"/>
    </contour>
  </outline>
</glyph>
<glyph name="less" format="2">
  <advance width="622"/>
  <unicode hex="003C"/>
  <note>
less
</note>
  <outline>
    <contour>
      <point x="376" y="78" type="line"/>
      <point x="432" y="134" type="line"/>
      <point x="248" y="315" type="line"/>
      <point x="432" y="496" type="line"/>
      <point x="376" y="552" type="line"/>
      <point x="140" y="315" type="line"/>
    </contour>
  </outline>
</glyph>
<glyph name="question" format="2">
  <advance width="534"/>
  <unicode hex="003F"/>
  <note>
question
</note>
  <outline>
    <contour>
      <point x="208" y="196" type="curve"/>
      <point x="302" y="196" type="line"/>
      <point x="302" y="238"/>
      <point x="300" y="260"/>
      <point x="318" y="291" type="curve" smooth="yes"/>
      <point x="338" y="326"/>
      <point x="384" y="351"/>
      <point x="418" y="387" type="curve" smooth="yes"/>
      <point x="458" y="428"/>
      <point x="484" y="480"/>
      <point x="484" y="540" type="curve" smooth="yes"/>
      <point x="484" y="588"/>
      <point x="468" y="633"/>
      <point x="437" y="668" type="curve" smooth="yes"/>
      <point x="396" y="715"/>
      <point x="332" y="734"/>
      <point x="264" y="734" type="curve" smooth="yes"/>
      <point x="212" y="734"/>
      <point x="159" y="719"/>
      <point x="120" y="686" type="curve" smooth="yes"/>
      <point x="78" y="652"/>
      <point x="54" y="596"/>
      <point x="50" y="538" type="curve"/>
      <point x="143" y="538" type="line"/>
      <point x="142" y="570"/>
      <point x="152" y="599"/>
      <point x="174" y="618" type="curve" smooth="yes"/>
      <point x="195" y="640"/>
      <point x="229" y="650"/>
      <point x="266" y="650" type="curve" smooth="yes"/>
      <point x="304" y="650"/>
      <point x="342" y="640"/>
      <point x="366" y="610" type="curve" smooth="yes"/>
      <point x="382" y="592"/>
      <point x="389" y="568"/>
      <point x="389" y="538" type="curve" smooth="yes"/>
      <point x="389" y="504"/>
      <point x="382" y="474"/>
      <point x="356" y="444" type="curve" smooth="yes"/>
      <point x="310" y="396"/>
      <point x="262" y="380"/>
      <point x="233" y="324" type="curve" smooth="yes"/>
      <point x="212" y="285"/>
      <point x="208" y="246"/>
    </contour>
    <contour>
      <point x="208" y="0" type="line"/>
      <point x="302" y="0" type="line"/>
      <point x="302" y="110" type="line"/>
      <point x="208" y="110" type="line"/>
    </contour>
  </outline>
</glyph>
<glyph name="at" format="2">
  <advance width="914"/>
  <unicode hex="0040"/>
  <note>
at
</note>
  <outline>
    <contour>
      <point x="458" y="-105" type="curve" smooth="yes"/>
      <point x="520" y="-105"/>
      <point x="584" y="-93"/>
      <point x="638" y="-64" type="curve"/>
      <point x="610" y="4" type="line"/>
      <point x="565" y="-20"/>
      <point x="513" y="-32"/>
      <point x="460" y="-32" type="curve" smooth="yes"/>
      <point x="276" y="-32"/>
      <point x="162" y="74"/>
      <point x="158" y="264" type="curve" smooth="yes"/>
      <point x="156" y="474"/>
      <point x="292" y="570"/>
      <point x="456" y="570" type="curve" smooth="yes"/>
      <point x="608" y="570"/>
      <point x="752" y="489"/>
      <point x="755" y="270" type="curve" smooth="yes"/>
      <point x="756" y="210"/>
      <point x="741" y="141"/>
      <point x="682" y="141" type="curve" smooth="yes"/>
      <point x="645" y="141"/>
      <point x="612" y="168"/>
      <point x="612" y="218" type="curve"/>
      <point x="613" y="421" type="line"/>
      <point x="553" y="421" type="line"/>
      <point x="553" y="356" type="line"/>
      <point x="573" y="380" type="line"/>
      <point x="548" y="417"/>
      <point x="494" y="435"/>
      <point x="452" y="435" type="curve" smooth="yes"/>
      <point x="358" y="435"/>
      <point x="287" y="369"/>
      <point x="288" y="270" type="curve" smooth="yes"/>
      <point x="290" y="169"/>
      <point x="354" y="104"/>
      <point x="451" y="104" type="curve" smooth="yes"/>
      <point x="499" y="104"/>
      <point x="551" y="124"/>
      <point x="576" y="162" type="curve"/>
      <point x="548" y="168" type="line"/>
      <point x="558" y="110"/>
      <point x="620" y="67"/>
      <point x="685" y="67" type="curve" smooth="yes"/>
      <point x="783" y="67"/>
      <point x="834" y="157"/>
      <point x="834" y="270" type="curve" smooth="yes"/>
      <point x="834" y="500"/>
      <point x="682" y="645"/>
      <point x="452" y="645" type="curve" smooth="yes"/>
      <point x="241" y="645"/>
      <point x="78" y="509"/>
      <point x="80" y="262" type="curve" smooth="yes"/>
      <point x="82" y="40"/>
      <point x="228" y="-105"/>
    </contour>
    <contour>
      <point x="455" y="179" type="curve" smooth="yes"/>
      <point x="399" y="179"/>
      <point x="366" y="212"/>
      <point x="366" y="270" type="curve" smooth="yes"/>
      <point x="366" y="327"/>
      <point x="396" y="362"/>
      <point x="457" y="362" type="curve" smooth="yes"/>
      <point x="509" y="362"/>
      <point x="541" y="330"/>
      <point x="541" y="270" type="curve" smooth="yes"/>
      <point x="541" y="206"/>
      <point x="508" y="179"/>
    </contour>
  </outline>
</glyph>
<glyph name="A" format="2">
  <advance width="646"/>
  <unicode hex="0041"/>
  <note>
A
</note>
  <outline>
    <contour>
      <point x="20" y="0" type="line"/>
      <point x="112" y="0" type="line"/>
      <point x="336" y="668" type="line"/>
      <point x="308" y="668" type="line"/>
      <point x="534" y="0" type="line"/>
      <point x="626" y="0" type="line"/>
      <point x="385" y="720" type="line"/>
      <point x="261" y="720" type="line"/>
    </contour>
    <contour>
      <point x="136" y="168" type="line"/>
      <point x="510" y="168" type="line"/>
      <point x="510" y="252" type="line"/>
      <point x="136" y="252" type="line"/>
    </contour>
  </outline>
</glyph>
<glyph name="B" format="2">
  <advance width="619"/>
  <unicode hex="0042"/>
  <note>
B
</note>
  <outline>
    <contour>
      <point x="70" y="0" type="line"/>
      <point x="376" y="0" type="line" smooth="yes"/>
      <point x="508" y="0"/>
      <point x="590" y="80"/>
      <point x="590" y="206" type="curve" smooth="yes"/>
      <point x="590" y="297"/>
      <point x="536" y="367"/>
      <point x="443" y="392" type="curve"/>
      <point x="444" y="368" type="line"/>
      <point x="512" y="390"/>
      <point x="555" y="452"/>
      <point x="555" y="530" type="curve" smooth="yes"/>
      <point x="555" y="630"/>
      <point x="480" y="720"/>
      <point x="350" y="720" type="curve" smooth="yes"/>
      <point x="70" y="720" type="line"/>
    </contour>
    <contour>
      <point x="160" y="85" type="line"/>
      <point x="160" y="336" type="line"/>
      <point x="368" y="336" type="line" smooth="yes"/>
      <point x="445" y="336"/>
      <point x="498" y="279"/>
      <point x="498" y="206" type="curve" smooth="yes"/>
      <point x="498" y="130"/>
      <point x="438" y="85"/>
      <point x="358" y="85" type="curve" smooth="yes"/>
    </contour>
    <contour>
      <point x="160" y="420" type="line"/>
      <point x="160" y="636" type="line"/>
      <point x="350" y="636" type="line" smooth="yes"/>
      <point x="417" y="636"/>
      <point x="464" y="592"/>
      <point x="464" y="530" type="curve" smooth="yes"/>
      <point x="464" y="463"/>
      <point x="413" y="420"/>
      <point x="350" y="420" type="curve" smooth="yes"/>
    </contour>
  </outline>
</glyph>
<glyph name="C" format="2">
  <advance width="714"/>
  <unicode hex="0043"/>
  <note>
C
</note>
  <outline>
    <contour>
      <point x="364" y="-15" type="curve" smooth="yes"/>
      <point x="520" y="-15"/>
      <point x="635" y="69"/>
      <point x="674" y="214" type="curve"/>
      <point x="586" y="236" type="line"/>
      <point x="554" y="132"/>
      <point x="477" y="70"/>
      <point x="364" y="70" type="curve" smooth="yes"/>
      <point x="212" y="70"/>
      <point x="124" y="182"/>
      <point x="124" y="359" type="curve" smooth="yes"/>
      <point x="124" y="530"/>
      <point x="206" y="652"/>
      <point x="366" y="650" type="curve" smooth="yes"/>
      <point x="481" y="648"/>
      <point x="562" y="582"/>
      <point x="588" y="474" type="curve"/>
      <point x="678" y="487" type="line"/>
      <point x="644" y="642"/>
      <point x="527" y="735"/>
      <point x="364" y="735" type="curve" smooth="yes"/>
      <point x="154" y="735"/>
      <point x="30" y="582"/>
      <point x="30" y="362" type="curve" smooth="yes"/>
      <point x="30" y="148"/>
      <point x="145" y="-15"/>
    </contour>
  </outline>
</glyph>
<glyph name="D" format="2">
  <advance width="681"/>
  <unicode hex="0044"/>
  <note>
D
</note>
  <outline>
    <contour>
      <point x="70" y="0" type="line"/>
      <point x="292" y="0" type="line" smooth="yes"/>
      <point x="306" y="0"/>
      <point x="350" y="0"/>
      <point x="383" y="4" type="curve" smooth="yes"/>
      <point x="550" y="26"/>
      <point x="636" y="176"/>
      <point x="636" y="360" type="curve" smooth="yes"/>
      <point x="636" y="544"/>
      <point x="550" y="694"/>
      <point x="383" y="716" type="curve" smooth="yes"/>
      <point x="349" y="720"/>
      <point x="306" y="720"/>
      <point x="292" y="720" type="curve" smooth="yes"/>
      <point x="70" y="720" type="line"/>
    </contour>
    <contour>
      <point x="162" y="85" type="line"/>
      <point x="162" y="635" type="line"/>
      <point x="292" y="635" type="line" smooth="yes"/>
      <point x="316" y="635"/>
      <point x="352" y="634"/>
      <point x="376" y="630" type="curve" smooth="yes"/>
      <point x="492" y="608"/>
      <point x="542" y="496"/>
      <point x="542" y="360" type="curve" smooth="yes"/>
      <point x="542" y="226"/>
      <point x="494" y="112"/>
      <point x="376" y="90" type="curve" smooth="yes"/>
      <point x="352" y="86"/>
      <point x="317" y="85"/>
      <point x="292" y="85" type="curve" smooth="yes"/>
    </contour>
  </outline>
</glyph>
<glyph name="E" format="2">
  <advance width="575"/>
  <unicode hex="0045"/>
  <note>
E
</note>
  <outline>
    <contour>
      <point x="70" y="0" type="line"/>
      <point x="525" y="0" type="line"/>
      <point x="525" y="84" type="line"/>
      <point x="159" y="84" type="line"/>
      <point x="159" y="326" type="line"/>
      <point x="465" y="326" type="line"/>
      <point x="465" y="410" type="line"/>
      <point x="159" y="410" type="line"/>
      <point x="159" y="636" type="line"/>
      <point x="525" y="636" type="line"/>
      <point x="525" y="720" type="line"/>
      <point x="70" y="720" type="line"/>
    </contour>
  </outline>
</glyph>
<glyph name="G" format="2">
  <advance width="714"/>
  <unicode hex="0047"/>
  <note>
G
</note>
  <outline>
    <contour>
      <point x="362" y="-15" type="curve" smooth="yes"/>
      <point x="572" y="-15"/>
      <point x="684" y="130"/>
      <point x="684" y="328" type="curve" smooth="yes"/>
      <point x="684" y="334"/>
      <point x="684" y="356"/>
      <point x="682" y="370" type="curve"/>
      <point x="435" y="370" type="line"/>
      <point x="435" y="297" type="line"/>
      <point x="588" y="297" type="line"/>
      <point x="577" y="154"/>
      <point x="505" y="69"/>
      <point x="366" y="70" type="curve" smooth="yes"/>
      <point x="205" y="71"/>
      <point x="124" y="188"/>
      <point x="124" y="360" type="curve" smooth="yes"/>
      <point x="126" y="532"/>
      <point x="205" y="650"/>
      <point x="366" y="650" type="curve" smooth="yes"/>
      <point x="468" y="649"/>
      <point x="538" y="593"/>
      <point x="568" y="506" type="curve"/>
      <point x="658" y="524" type="line"/>
      <point x="621" y="654"/>
      <point x="522" y="734"/>
      <point x="362" y="734" type="curve" smooth="yes"/>
      <point x="160" y="734"/>
      <point x="30" y="590"/>
      <point x="30" y="360" type="curve" smooth="yes"/>
      <point x="30" y="128"/>
      <point x="163" y="-15"/>
    </contour>
  </outline>
</glyph>
<glyph name="H" format="2">
  <advance width="697"/>
  <unicode hex="0048"/>
  <note>
H
</note>
  <outline>
    <contour>
      <point x="70" y="0" type="line"/>
      <point x="159" y="0" type="line"/>
      <point x="159" y="318" type="line"/>
      <point x="538" y="318" type="line"/>
      <point x="538" y="0" type="line"/>
      <point x="627" y="0" type="line"/>
      <point x="627" y="720" type="line"/>
      <point x="538" y="720" type="line"/>
      <point x="538" y="402" type="line"/>
      <point x="159" y="402" type="line"/>
      <point x="159" y="720" type="line"/>
      <point x="70" y="720" type="line"/>
    </contour>
  </outline>
</glyph>
<glyph name="J" format="2">
  <advance width="476"/>
  <unicode hex="004A"/>
  <note>
J
</note>
  <outline>
    <contour>
      <point x="200" y="-14" type="curve" smooth="yes"/>
      <point x="272" y="-14"/>
      <point x="336" y="15"/>
      <point x="372" y="78" type="curve" smooth="yes"/>
      <point x="398" y="124"/>
      <point x="396" y="164"/>
      <point x="396" y="226" type="curve" smooth="yes"/>
      <point x="396" y="720" type="line"/>
      <point x="306" y="720" type="line"/>
      <point x="306" y="226" type="line" smooth="yes"/>
      <point x="306" y="182"/>
      <point x="306" y="150"/>
      <point x="292" y="124" type="curve" smooth="yes"/>
      <point x="273" y="86"/>
      <point x="232" y="70"/>
      <point x="198" y="70" type="curve" smooth="yes"/>
      <point x="144" y="70"/>
      <point x="99" y="108"/>
      <point x="88" y="158" type="curve"/>
      <point x="0" y="136" type="line"/>
      <point x="26" y="44"/>
      <point x="99" y="-14"/>
    </contour>
  </outline>
</glyph>
<glyph name="K" format="2">
  <advance width="612"/>
  <unicode hex="004B"/>
  <note>
K
</note>
  <outline>
    <contour>
      <point x="70" y="0" type="line"/>
      <point x="159" y="0" type="line"/>
      <point x="159" y="352" type="line"/>
      <point x="496" y="0" type="line"/>
      <point x="612" y="0" type="line"/>
      <point x="259" y="370" type="line"/>
      <point x="586" y="720" type="line"/>
      <point x="474" y="720" type="line"/>
      <point x="159" y="382" type="line"/>
      <point x="159" y="720" type="line"/>
      <point x="70" y="720" type="line"/>
    </contour>
  </outline>
</glyph>
<glyph name="M" format="2">
  <advance width="846"/>
  <unicode hex="004D"/>
  <note>
M
</note>
  <outline>
    <contour>
      <point x="70" y="0" type="line"/>
      <point x="154" y="0" type="line"/>
      <point x="154" y="524" type="line"/>
      <point x="399" y="0" type="line"/>
      <point x="446" y="0" type="line"/>
      <point x="691" y="524" type="line"/>
      <point x="691" y="0" type="line"/>
      <point x="776" y="0" type="line"/>
      <point x="776" y="720" type="line"/>
      <point x="694" y="720" type="line"/>
      <point x="423" y="146" type="line"/>
      <point x="151" y="720" type="line"/>
      <point x="70" y="720" type="line"/>
    </contour>
  </outline>
</glyph>
<glyph name="N" format="2">
  <advance width="696"/>
  <unicode hex="004E"/>
  <note>
N
</note>
  <outline>
    <contour>
      <point x="70" y="0" type="line"/>
      <point x="160" y="0" type="line"/>
      <point x="160" y="563" type="line"/>
      <point x="536" y="0" type="line"/>
      <point x="626" y="0" type="line"/>
      <point x="626" y="720" type="line"/>
      <point x="536" y="720" type="line"/>
      <point x="536" y="158" type="line"/>
      <point x="160" y="720" type="line"/>
      <point x="70" y="720" type="line"/>
    </contour>
  </outline>
</glyph>
<glyph name="O" format="2">
  <advance width="732"/>
  <unicode hex="004F"/>
  <outline>
    <contour>
      <point x="366" y="-15" type="curve" smooth="yes"/>
      <point x="582" y="-15"/>
      <point x="702" y="138"/>
      <point x="702" y="360" type="curve" smooth="yes"/>
      <point x="702" y="582"/>
      <point x="582" y="734"/>
      <point x="366" y="734" type="curve" smooth="yes"/>
      <point x="150" y="734"/>
      <point x="30" y="582"/>
      <point x="30" y="360" type="curve" smooth="yes"/>
      <point x="30" y="138"/>
      <point x="150" y="-15"/>
    </contour>
    <contour>
      <point x="366" y="70" type="curve" smooth="yes"/>
      <point x="205" y="71"/>
      <point x="124" y="188"/>
      <point x="124" y="360" type="curve" smooth="yes"/>
      <point x="126" y="532"/>
      <point x="205" y="650"/>
      <point x="366" y="650" type="curve" smooth="yes"/>
      <point x="527" y="648"/>
      <point x="608" y="532"/>
      <point x="608" y="360" type="curve" smooth="yes"/>
      <point x="606" y="188"/>
      <point x="527" y="69"/>
    </contour>
  </outline>
</glyph>
<glyph name="P" format="2">
  <advance width="616"/>
  <unicode hex="0050"/>
  <note>
P
</note>
  <outline>
    <contour>
      <point x="70" y="0" type="line"/>
      <point x="159" y="0" type="line"/>
      <point x="159" y="266" type="line"/>
      <point x="354" y="266" type="line" smooth="yes"/>
      <point x="368" y="266"/>
      <point x="389" y="267"/>
      <point x="408" y="270" type="curve" smooth="yes"/>
      <point x="524" y="288"/>
      <point x="586" y="378"/>
      <point x="586" y="493" type="curve" smooth="yes"/>
      <point x="586" y="608"/>
      <point x="524" y="698"/>
      <point x="408" y="716" type="curve" smooth="yes"/>
      <point x="389" y="719"/>
      <point x="368" y="720"/>
      <point x="354" y="720" type="curve" smooth="yes"/>
      <point x="70" y="720" type="line"/>
    </contour>
    <contour>
      <point x="159" y="350" type="line"/>
      <point x="159" y="636" type="line"/>
      <point x="352" y="636" type="line" smooth="yes"/>
      <point x="364" y="636"/>
      <point x="382" y="634"/>
      <point x="396" y="631" type="curve" smooth="yes"/>
      <point x="466" y="616"/>
      <point x="494" y="553"/>
      <point x="494" y="493" type="curve" smooth="yes"/>
      <point x="494" y="433"/>
      <point x="466" y="370"/>
      <point x="396" y="355" type="curve" smooth="yes"/>
      <point x="382" y="352"/>
      <point x="364" y="350"/>
      <point x="352" y="350" type="curve" smooth="yes"/>
    </contour>
  </outline>
</glyph>
<glyph name="Q" format="2">
  <advance width="732"/>
  <unicode hex="0051"/>
  <note>
Q
</note>
  <outline>
    <contour>
      <point x="635" y="-14" type="line"/>
      <point x="692" y="44" type="line"/>
      <point x="497" y="240" type="line"/>
      <point x="438" y="181" type="line"/>
    </contour>
    <component base="O"/>
  </outline>
</glyph>
<glyph name="R" format="2">
  <advance width="640"/>
  <unicode hex="0052"/>
  <note>
R
</note>
  <outline>
    <contour>
      <point x="70" y="0" type="line"/>
      <point x="159" y="0" type="line"/>
      <point x="159" y="266" type="line"/>
      <point x="380" y="266" type="line"/>
      <point x="414" y="272" type="line"/>
      <point x="526" y="292"/>
      <point x="586" y="381"/>
      <point x="586" y="493" type="curve" smooth="yes"/>
      <point x="586" y="608"/>
      <point x="524" y="698"/>
      <point x="408" y="716" type="curve" smooth="yes"/>
      <point x="389" y="719"/>
      <point x="368" y="720"/>
      <point x="354" y="720" type="curve" smooth="yes"/>
      <point x="70" y="720" type="line"/>
    </contour>
    <contour>
      <point x="498" y="0" type="line"/>
      <point x="600" y="0" type="line"/>
      <point x="444" y="320" type="line"/>
      <point x="356" y="293" type="line"/>
    </contour>
    <contour>
      <point x="159" y="350" type="line"/>
      <point x="159" y="636" type="line"/>
      <point x="352" y="636" type="line" smooth="yes"/>
      <point x="364" y="636"/>
      <point x="382" y="634"/>
      <point x="396" y="631" type="curve" smooth="yes"/>
      <point x="466" y="616"/>
      <point x="494" y="553"/>
      <point x="494" y="493" type="curve" smooth="yes"/>
      <point x="494" y="433"/>
      <point x="466" y="370"/>
      <point x="396" y="355" type="curve" smooth="yes"/>
      <point x="382" y="352"/>
      <point x="364" y="350"/>
      <point x="352" y="350" type="curve" smooth="yes"/>
    </contour>
  </outline>
</glyph>
<glyph name="S" format="2">
  <advance width="630"/>
  <unicode hex="0053"/>
  <note>
S
</note>
  <outline>
    <contour>
      <point x="326" y="-15" type="curve" smooth="yes"/>
      <point x="470" y="-15"/>
      <point x="595" y="57"/>
      <point x="595" y="201" type="curve" smooth="yes"/>
      <point x="595" y="338"/>
      <point x="480" y="374"/>
      <point x="414" y="392" type="curve" smooth="yes"/>
      <point x="277" y="432" type="line" smooth="yes"/>
      <point x="212" y="450"/>
      <point x="157" y="474"/>
      <point x="157" y="536" type="curve" smooth="yes"/>
      <point x="157" y="605"/>
      <point x="228" y="651"/>
      <point x="314" y="650" type="curve" smooth="yes"/>
      <point x="403" y="649"/>
      <point x="480" y="598"/>
      <point x="496" y="508" type="curve"/>
      <point x="590" y="524" type="line"/>
      <point x="564" y="658"/>
      <point x="457" y="734"/>
      <point x="315" y="734" type="curve" smooth="yes"/>
      <point x="174" y="735"/>
      <point x="63" y="662"/>
      <point x="63" y="532" type="curve" smooth="yes"/>
      <point x="63" y="404"/>
      <point x="170" y="370"/>
      <point x="219" y="356" type="curve" smooth="yes"/>
      <point x="392" y="305" type="line" smooth="yes"/>
      <point x="456" y="286"/>
      <point x="503" y="260"/>
      <point x="503" y="196" type="curve" smooth="yes"/>
      <point x="503" y="113"/>
      <point x="420" y="70"/>
      <point x="330" y="70" type="curve" smooth="yes"/>
      <point x="232" y="70"/>
      <point x="150" y="121"/>
      <point x="127" y="214" type="curve"/>
      <point x="35" y="200" type="line"/>
      <point x="60" y="64"/>
      <point x="176" y="-15"/>
    </contour>
  </outline>
</glyph>
<glyph name="T" format="2">
  <advance width="600"/>
  <unicode hex="0054"/>
  <note>
T
</note>
  <outline>
    <contour>
      <point x="256" y="0" type="line"/>
      <point x="344" y="0" type="line"/>
      <point x="344" y="636" type="line"/>
      <point x="590" y="636" type="line"/>
      <point x="590" y="720" type="line"/>
      <point x="10" y="720" type="line"/>
      <point x="10" y="636" type="line"/>
      <point x="256" y="636" type="line"/>
    </contour>
  </outline>
</glyph>
<glyph name="U" format="2">
  <advance width="708"/>
  <unicode hex="0055"/>
  <note>
U
</note>
  <outline>
    <contour>
      <point x="354" y="-15" type="curve" smooth="yes"/>
      <point x="521" y="-15"/>
      <point x="638" y="95"/>
      <point x="638" y="262" type="curve" smooth="yes"/>
      <point x="638" y="720" type="line"/>
      <point x="548" y="720" type="line"/>
      <point x="548" y="270" type="line" smooth="yes"/>
      <point x="548" y="134"/>
      <point x="446" y="69"/>
      <point x="354" y="69" type="curve" smooth="yes"/>
      <point x="263" y="69"/>
      <point x="160" y="134"/>
      <point x="160" y="270" type="curve" smooth="yes"/>
      <point x="160" y="720" type="line"/>
      <point x="70" y="720" type="line"/>
      <point x="70" y="262" type="line" smooth="yes"/>
      <point x="70" y="94"/>
      <point x="187" y="-15"/>
    </contour>
  </outline>
</glyph>
<glyph name="V" format="2">
  <advance width="616"/>
  <unicode hex="0056"/>
  <note>
V
</note>
  <outline>
    <contour>
      <point x="246" y="0" type="line"/>
      <point x="370" y="0" type="line"/>
      <point x="611" y="720" type="line"/>
      <point x="518" y="720" type="line"/>
      <point x="307" y="94" type="line"/>
      <point x="98" y="720" type="line"/>
      <point x="5" y="720" type="line"/>
    </contour>
  </outline>
</glyph>
<glyph name="W" format="2">
  <advance width="949"/>
  <unicode hex="0057"/>
  <note>
W
</note>
  <outline>
    <contour>
      <point x="224" y="0" type="line"/>
      <point x="312" y="0" type="line"/>
      <point x="474" y="564" type="line"/>
      <point x="636" y="0" type="line"/>
      <point x="726" y="0" type="line"/>
      <point x="934" y="720" type="line"/>
      <point x="840" y="720" type="line"/>
      <point x="680" y="150" type="line"/>
      <point x="520" y="720" type="line"/>
      <point x="427" y="720" type="line"/>
      <point x="268" y="150" type="line"/>
      <point x="108" y="720" type="line"/>
      <point x="15" y="720" type="line"/>
    </contour>
  </outline>
</glyph>
<glyph name="X" format="2">
  <advance width="622"/>
  <unicode hex="0058"/>
  <note>
X
</note>
  <outline>
    <contour>
      <point x="10" y="0" type="line"/>
      <point x="119" y="0" type="line"/>
      <point x="312" y="289" type="line"/>
      <point x="504" y="0" type="line"/>
      <point x="612" y="0" type="line"/>
      <point x="366" y="364" type="line"/>
      <point x="606" y="720" type="line"/>
      <point x="498" y="720" type="line"/>
      <point x="312" y="440" type="line"/>
      <point x="125" y="720" type="line"/>
      <point x="16" y="720" type="line"/>
      <point x="258" y="364" type="line"/>
    </contour>
  </outline>
</glyph>
<glyph name="Y" format="2">
  <advance width="574"/>
  <unicode hex="0059"/>
  <note>
Y
</note>
  <outline>
    <contour>
      <point x="242" y="0" type="line"/>
      <point x="332" y="0" type="line"/>
      <point x="332" y="300" type="line"/>
      <point x="574" y="720" type="line"/>
      <point x="471" y="720" type="line"/>
      <point x="288" y="402" type="line"/>
      <point x="104" y="720" type="line"/>
      <point x="0" y="720" type="line"/>
      <point x="242" y="300" type="line"/>
    </contour>
  </outline>
</glyph>
<glyph name="Z" format="2">
  <advance width="630"/>
  <unicode hex="005A"/>
  <note>
Z
</note>
  <outline>
    <contour>
      <point x="50" y="0" type="line"/>
      <point x="576" y="0" type="line"/>
      <point x="576" y="84" type="line"/>
      <point x="202" y="84" type="line"/>
      <point x="580" y="703" type="line"/>
      <point x="580" y="720" type="line"/>
      <point x="65" y="720" type="line"/>
      <point x="65" y="636" type="line"/>
      <point x="430" y="636" type="line"/>
      <point x="50" y="16" type="line"/>
    </contour>
  </outline>
</glyph>
<glyph name="a" format="2">
  <advance width="562"/>
  <unicode hex="0061"/>
  <note>
a
</note>
  <outline>
    <contour>
      <point x="224" y="-15" type="curve" smooth="yes"/>
      <point x="324" y="-15"/>
      <point x="399" y="30"/>
      <point x="438" y="107" type="curve"/>
      <point x="424" y="127" type="line"/>
      <point x="424" y="0" type="line"/>
      <point x="502" y="0" type="line"/>
      <point x="502" y="330" type="line"/>
      <point x="502" y="354"/>
      <point x="502" y="386"/>
      <point x="492" y="418" type="curve" smooth="yes"/>
      <point x="468" y="504"/>
      <point x="400" y="555"/>
      <point x="285" y="555" type="curve" smooth="yes"/>
      <point x="174" y="555"/>
      <point x="89" y="498"/>
      <point x="60" y="407" type="curve"/>
      <point x="143" y="382" type="line"/>
      <point x="162" y="446"/>
      <point x="219" y="472"/>
      <point x="282" y="472" type="curve" smooth="yes"/>
      <point x="374" y="472"/>
      <point x="420" y="419"/>
      <point x="414" y="320" type="curve"/>
      <point x="430" y="344" type="line"/>
      <point x="324" y="332"/>
      <point x="245" y="324"/>
      <point x="188" y="307" type="curve" smooth="yes"/>
      <point x="114" y="288"/>
      <point x="40" y="242"/>
      <point x="40" y="146" type="curve" smooth="yes"/>
      <point x="40" y="62"/>
      <point x="102" y="-15"/>
    </contour>
    <contour>
      <point x="238" y="60" type="curve" smooth="yes"/>
      <point x="168" y="60"/>
      <point x="128" y="96"/>
      <point x="128" y="146" type="curve" smooth="yes"/>
      <point x="128" y="200"/>
      <point x="168" y="222"/>
      <point x="216" y="236" type="curve" smooth="yes"/>
      <point x="272" y="254"/>
      <point x="360" y="264"/>
      <point x="445" y="274" type="curve"/>
      <point x="414" y="293" type="line"/>
      <point x="414" y="250"/>
      <point x="415" y="188"/>
      <point x="392" y="145" type="curve" smooth="yes"/>
      <point x="368" y="97"/>
      <point x="309" y="60"/>
    </contour>
  </outline>
</glyph>
<glyph name="c" format="2">
  <advance width="561"/>
  <unicode hex="0063"/>
  <note>
c
</note>
  <outline>
    <contour>
      <point x="298" y="-15" type="curve" smooth="yes"/>
      <point x="409" y="-15"/>
      <point x="490" y="40"/>
      <point x="528" y="140" type="curve"/>
      <point x="438" y="164" type="line"/>
      <point x="414" y="102"/>
      <point x="368" y="70"/>
      <point x="298" y="70" type="curve" smooth="yes"/>
      <point x="190" y="70"/>
      <point x="136" y="150"/>
      <point x="134" y="270" type="curve" smooth="yes"/>
      <point x="136" y="387"/>
      <point x="186" y="470"/>
      <point x="298" y="470" type="curve" smooth="yes"/>
      <point x="363" y="470"/>
      <point x="418" y="434"/>
      <point x="440" y="372" type="curve"/>
      <point x="528" y="398" type="line"/>
      <point x="500" y="495"/>
      <point x="412" y="555"/>
      <point x="298" y="555" type="curve" smooth="yes"/>
      <point x="136" y="555"/>
      <point x="42" y="438"/>
      <point x="40" y="270" type="curve" smooth="yes"/>
      <point x="42" y="104"/>
      <point x="133" y="-15"/>
    </contour>
  </outline>
</glyph>
<glyph name="d" format="2">
  <advance width="600"/>
  <unicode hex="0064"/>
  <note>
d
</note>
  <outline>
    <contour>
      <point x="282" y="-15" type="curve" smooth="yes"/>
      <point x="434" y="-15"/>
      <point x="516" y="109"/>
      <point x="516" y="270" type="curve" smooth="yes"/>
      <point x="516" y="434"/>
      <point x="434" y="555"/>
      <point x="282" y="555" type="curve" smooth="yes"/>
      <point x="132" y="555"/>
      <point x="40" y="432"/>
      <point x="40" y="270" type="curve" smooth="yes"/>
      <point x="40" y="108"/>
      <point x="131" y="-15"/>
    </contour>
    <contour>
      <point x="293" y="66" type="curve" smooth="yes"/>
      <point x="186" y="66"/>
      <point x="134" y="156"/>
      <point x="134" y="270" type="curve" smooth="yes"/>
      <point x="134" y="384"/>
      <point x="186" y="474"/>
      <point x="296" y="474" type="curve" smooth="yes"/>
      <point x="401" y="474"/>
      <point x="451" y="390"/>
      <point x="451" y="270" type="curve" smooth="yes"/>
      <point x="451" y="152"/>
      <point x="402" y="66"/>
    </contour>
    <contour>
      <point x="451" y="0" type="line"/>
      <point x="530" y="0" type="line"/>
      <point x="530" y="720" type="line"/>
      <point x="441" y="720" type="line"/>
      <point x="441" y="398" type="line"/>
      <point x="451" y="398" type="line"/>
    </contour>
  </outline>
</glyph>
<glyph name="e" format="2">
  <advance width="590"/>
  <unicode hex="0065"/>
  <note>
e
</note>
  <outline>
    <contour>
      <point x="304" y="-15" type="curve" smooth="yes"/>
      <point x="408" y="-15"/>
      <point x="498" y="39"/>
      <point x="540" y="135" type="curve"/>
      <point x="455" y="164" type="line"/>
      <point x="424" y="102"/>
      <point x="370" y="70"/>
      <point x="300" y="70" type="curve" smooth="yes"/>
      <point x="191" y="70"/>
      <point x="134" y="148"/>
      <point x="134" y="270" type="curve" smooth="yes"/>
      <point x="134" y="390"/>
      <point x="184" y="476"/>
      <point x="300" y="475" type="curve" smooth="yes"/>
      <point x="414" y="476"/>
      <point x="458" y="400"/>
      <point x="460" y="277" type="curve"/>
      <point x="460" y="245" type="line"/>
      <point x="549" y="245" type="line"/>
      <point x="557" y="428"/>
      <point x="472" y="555"/>
      <point x="300" y="555" type="curve" smooth="yes"/>
      <point x="139" y="555"/>
      <point x="40" y="439"/>
      <point x="40" y="266" type="curve" smooth="yes"/>
      <point x="40" y="102"/>
      <point x="140" y="-15"/>
    </contour>
    <contour>
      <point x="104" y="245" type="line"/>
      <point x="504" y="245" type="line"/>
      <point x="504" y="318" type="line"/>
      <point x="104" y="318" type="line"/>
    </contour>
  </outline>
</glyph>
<glyph name="f" format="2">
  <advance width="362"/>
  <unicode hex="0066"/>
  <note>
f
</note>
  <outline>
    <contour>
      <point x="122" y="0" type="line"/>
      <point x="210" y="0" type="line"/>
      <point x="210" y="584" type="line" smooth="yes"/>
      <point x="210" y="635"/>
      <point x="236" y="661"/>
      <point x="289" y="661" type="curve" smooth="yes"/>
      <point x="352" y="661" type="line"/>
      <point x="352" y="735" type="line"/>
      <point x="284" y="735" type="line" smooth="yes"/>
      <point x="243" y="735"/>
      <point x="192" y="734"/>
      <point x="156" y="693" type="curve" smooth="yes"/>
      <point x="124" y="658"/>
      <point x="122" y="611"/>
      <point x="122" y="570" type="curve" smooth="yes"/>
    </contour>
    <contour>
      <point x="30" y="466" type="line"/>
      <point x="352" y="466" type="line"/>
      <point x="352" y="540" type="line"/>
      <point x="30" y="540" type="line"/>
    </contour>
  </outline>
</glyph>
<glyph name="g" format="2">
  <advance width="600"/>
  <unicode hex="0067"/>
  <note>
g
</note>
  <outline>
    <contour>
      <point x="288" y="-255" type="curve" smooth="yes"/>
      <point x="418" y="-255"/>
      <point x="502" y="-202"/>
      <point x="524" y="-86" type="curve" smooth="yes"/>
      <point x="528" y="-60"/>
      <point x="530" y="-34"/>
      <point x="530" y="-4" type="curve" smooth="yes"/>
      <point x="530" y="540" type="line"/>
      <point x="451" y="540" type="line"/>
      <point x="451" y="145" type="line"/>
      <point x="440" y="145" type="line"/>
      <point x="440" y="-2" type="line" smooth="yes"/>
      <point x="442" y="-112"/>
      <point x="392" y="-169"/>
      <point x="289" y="-169" type="curve" smooth="yes"/>
      <point x="236" y="-169"/>
      <point x="183" y="-146"/>
      <point x="156" y="-94" type="curve"/>
      <point x="75" y="-136" type="line"/>
      <point x="120" y="-217"/>
      <point x="204" y="-255"/>
    </contour>
    <contour>
      <point x="282" y="-15" type="curve" smooth="yes"/>
      <point x="434" y="-15"/>
      <point x="516" y="109"/>
      <point x="516" y="270" type="curve" smooth="yes"/>
      <point x="516" y="434"/>
      <point x="434" y="555"/>
      <point x="282" y="555" type="curve" smooth="yes"/>
      <point x="132" y="555"/>
      <point x="40" y="432"/>
      <point x="40" y="270" type="curve" smooth="yes"/>
      <point x="40" y="108"/>
      <point x="131" y="-15"/>
    </contour>
    <contour>
      <point x="293" y="66" type="curve" smooth="yes"/>
      <point x="186" y="66"/>
      <point x="134" y="156"/>
      <point x="134" y="270" type="curve" smooth="yes"/>
      <point x="134" y="384"/>
      <point x="186" y="474"/>
      <point x="296" y="474" type="curve" smooth="yes"/>
      <point x="401" y="474"/>
      <point x="451" y="390"/>
      <point x="451" y="270" type="curve" smooth="yes"/>
      <point x="451" y="152"/>
      <point x="402" y="66"/>
    </contour>
  </outline>
</glyph>
<glyph name="h" format="2">
  <advance width="604"/>
  <unicode hex="0068"/>
  <note>
h
</note>
  <outline>
    <contour>
      <point x="454" y="0" type="line"/>
      <point x="544" y="0" type="line"/>
      <point x="544" y="298" type="line" smooth="yes"/>
      <point x="544" y="401"/>
      <point x="504" y="554"/>
      <point x="330" y="554" type="curve" smooth="yes"/>
      <point x="190" y="554"/>
      <point x="101" y="459"/>
      <point x="101" y="302" type="curve"/>
      <point x="160" y="284" type="line"/>
      <point x="160" y="410"/>
      <point x="218" y="470"/>
      <point x="308" y="470" type="curve" smooth="yes"/>
      <point x="422" y="470"/>
      <point x="454" y="372"/>
      <point x="454" y="270" type="curve" smooth="yes"/>
    </contour>
    <contour>
      <point x="70" y="0" type="line"/>
      <point x="160" y="0" type="line"/>
      <point x="160" y="322" type="line"/>
      <point x="150" y="322" type="line"/>
      <point x="150" y="720" type="line"/>
      <point x="70" y="720" type="line"/>
    </contour>
  </outline>
</glyph>
<glyph name="j" format="2">
  <advance width="263"/>
  <unicode hex="006A"/>
  <note>
j
</note>
  <outline>
    <contour>
      <point x="-10" y="-240" type="line"/>
      <point x="52" y="-240" type="line" smooth="yes"/>
      <point x="142" y="-240"/>
      <point x="188" y="-193"/>
      <point x="188" y="-104" type="curve" smooth="yes"/>
      <point x="188" y="540" type="line"/>
      <point x="99" y="540" type="line"/>
      <point x="99" y="-74" type="line" smooth="yes"/>
      <point x="99" y="-130"/>
      <point x="71" y="-155"/>
      <point x="19" y="-155" type="curve" smooth="yes"/>
      <point x="-10" y="-155" type="line"/>
    </contour>
    <contour>
      <point x="99" y="623" type="line"/>
      <point x="188" y="623" type="line"/>
      <point x="188" y="715" type="line"/>
      <point x="99" y="715" type="line"/>
    </contour>
  </outline>
</glyph>
<glyph name="k" format="2">
  <advance width="510"/>
  <unicode hex="006B"/>
  <note>
k
</note>
  <outline>
    <contour>
      <point x="70" y="0" type="line"/>
      <point x="160" y="0" type="line"/>
      <point x="160" y="260" type="line"/>
      <point x="406" y="0" type="line"/>
      <point x="530" y="0" type="line"/>
      <point x="264" y="270" type="line"/>
      <point x="502" y="540" type="line"/>
      <point x="387" y="540" type="line"/>
      <point x="160" y="280" type="line"/>
      <point x="160" y="720" type="line"/>
      <point x="70" y="720" type="line"/>
    </contour>
  </outline>
</glyph>
<glyph name="m" format="2">
  <advance width="866"/>
  <unicode hex="006D"/>
  <note>
m
</note>
  <outline>
    <contour>
      <point x="716" y="0" type="line"/>
      <point x="805" y="0" type="line"/>
      <point x="806" y="365" type="line" smooth="yes"/>
      <point x="806" y="480"/>
      <point x="736" y="554"/>
      <point x="624" y="554" type="curve" smooth="yes"/>
      <point x="516" y="554"/>
      <point x="433" y="477"/>
      <point x="436" y="362" type="curve"/>
      <point x="482" y="343" type="line"/>
      <point x="482" y="434"/>
      <point x="540" y="474"/>
      <point x="600" y="474" type="curve" smooth="yes"/>
      <point x="668" y="474"/>
      <point x="716" y="426"/>
      <point x="716" y="346" type="curve" smooth="yes"/>
    </contour>
    <contour>
      <point x="70" y="0" type="line"/>
      <point x="160" y="0" type="line"/>
      <point x="160" y="396" type="line"/>
      <point x="150" y="396" type="line"/>
      <point x="150" y="540" type="line"/>
      <point x="70" y="540" type="line"/>
    </contour>
    <contour>
      <point x="394" y="0" type="line"/>
      <point x="482" y="0" type="line"/>
      <point x="482" y="364" type="line" smooth="yes"/>
      <point x="482" y="481"/>
      <point x="412" y="554"/>
      <point x="303" y="554" type="curve" smooth="yes"/>
      <point x="194" y="554"/>
      <point x="112" y="476"/>
      <point x="112" y="371" type="curve"/>
      <point x="160" y="343" type="line"/>
      <point x="160" y="422"/>
      <point x="206" y="474"/>
      <point x="277" y="474" type="curve" smooth="yes"/>
      <point x="348" y="474"/>
      <point x="394" y="424"/>
      <point x="394" y="342" type="curve" smooth="yes"/>
    </contour>
  </outline>
</glyph>
<glyph name="n" format="2">
  <advance width="604"/>
  <unicode hex="006E"/>
  <note>
n
</note>
  <outline>
    <contour>
      <point x="454" y="0" type="line"/>
      <point x="544" y="0" type="line"/>
      <point x="544" y="298" type="line" smooth="yes"/>
      <point x="544" y="401"/>
      <point x="504" y="554"/>
      <point x="330" y="554" type="curve" smooth="yes"/>
      <point x="190" y="554"/>
      <point x="101" y="459"/>
      <point x="101" y="302" type="curve"/>
      <point x="160" y="284" type="line"/>
      <point x="160" y="410"/>
      <point x="218" y="470"/>
      <point x="308" y="470" type="curve" smooth="yes"/>
      <point x="422" y="470"/>
      <point x="454" y="372"/>
      <point x="454" y="270" type="curve" smooth="yes"/>
    </contour>
    <contour>
      <point x="70" y="0" type="line"/>
      <point x="160" y="0" type="line"/>
      <point x="160" y="396" type="line"/>
      <point x="150" y="396" type="line"/>
      <point x="150" y="540" type="line"/>
      <point x="70" y="540" type="line"/>
    </contour>
  </outline>
</glyph>
<glyph name="o" format="2">
  <advance width="600"/>
  <unicode hex="006F"/>
  <note>
o
</note>
  <outline>
    <contour>
      <point x="300" y="-15" type="curve" smooth="yes"/>
      <point x="460" y="-15"/>
      <point x="560" y="101"/>
      <point x="560" y="270" type="curve" smooth="yes"/>
      <point x="560" y="438"/>
      <point x="462" y="555"/>
      <point x="300" y="555" type="curve" smooth="yes"/>
      <point x="142" y="555"/>
      <point x="40" y="440"/>
      <point x="40" y="270" type="curve" smooth="yes"/>
      <point x="40" y="103"/>
      <point x="138" y="-15"/>
    </contour>
    <contour>
      <point x="300" y="70" type="curve" smooth="yes"/>
      <point x="191" y="70"/>
      <point x="134" y="148"/>
      <point x="134" y="270" type="curve" smooth="yes"/>
      <point x="134" y="388"/>
      <point x="187" y="470"/>
      <point x="300" y="470" type="curve" smooth="yes"/>
      <point x="410" y="470"/>
      <point x="466" y="392"/>
      <point x="466" y="270" type="curve" smooth="yes"/>
      <point x="466" y="152"/>
      <point x="412" y="70"/>
    </contour>
  </outline>
</glyph>
<glyph name="p" format="2">
  <advance width="600"/>
  <unicode hex="0070"/>
  <note>
p
</note>
  <outline>
    <contour>
      <point x="318" y="-15" type="curve" smooth="yes"/>
      <point x="470" y="-15"/>
      <point x="560" y="108"/>
      <point x="560" y="270" type="curve" smooth="yes"/>
      <point x="560" y="432"/>
      <point x="469" y="555"/>
      <point x="319" y="555" type="curve" smooth="yes"/>
      <point x="166" y="555"/>
      <point x="85" y="434"/>
      <point x="85" y="270" type="curve" smooth="yes"/>
      <point x="85" y="109"/>
      <point x="166" y="-15"/>
    </contour>
    <contour>
      <point x="70" y="-240" type="line"/>
      <point x="160" y="-240" type="line"/>
      <point x="160" y="142" type="line"/>
      <point x="150" y="142" type="line"/>
      <point x="150" y="540" type="line"/>
      <point x="70" y="540" type="line"/>
    </contour>
    <contour>
      <point x="308" y="66" type="curve" smooth="yes"/>
      <point x="198" y="66"/>
      <point x="150" y="152"/>
      <point x="150" y="270" type="curve" smooth="yes"/>
      <point x="150" y="390"/>
      <point x="200" y="474"/>
      <point x="305" y="474" type="curve" smooth="yes"/>
      <point x="415" y="474"/>
      <point x="466" y="384"/>
      <point x="466" y="270" type="curve" smooth="yes"/>
      <point x="466" y="156"/>
      <point x="414" y="66"/>
    </contour>
  </outline>
</glyph>
<glyph name="r" format="2">
  <advance width="374"/>
  <unicode hex="0072"/>
  <note>
r
</note>
  <outline>
    <contour>
      <point x="70" y="0" type="line"/>
      <point x="160" y="0" type="line"/>
      <point x="160" y="271" type="line" smooth="yes"/>
      <point x="160" y="335"/>
      <point x="172" y="398"/>
      <point x="225" y="436" type="curve" smooth="yes"/>
      <point x="262" y="464"/>
      <point x="311" y="466"/>
      <point x="348" y="456" type="curve"/>
      <point x="348" y="540" type="line"/>
      <point x="300" y="550"/>
      <point x="237" y="540"/>
      <point x="196" y="507" type="curve" smooth="yes"/>
      <point x="170" y="489"/>
      <point x="149" y="460"/>
      <point x="136" y="426" type="curve"/>
      <point x="150" y="410" type="line"/>
      <point x="150" y="540" type="line"/>
      <point x="70" y="540" type="line"/>
    </contour>
  </outline>
</glyph>
<glyph name="s" format="2">
  <advance width="530"/>
  <unicode hex="0073"/>
  <note>
s
</note>
  <outline>
    <contour>
      <point x="274" y="-14" type="curve" smooth="yes"/>
      <point x="402" y="-14"/>
      <point x="490" y="44"/>
      <point x="490" y="153" type="curve" smooth="yes"/>
      <point x="490" y="252"/>
      <point x="416" y="284"/>
      <point x="301" y="313" type="curve" smooth="yes"/>
      <point x="201" y="338"/>
      <point x="146" y="352"/>
      <point x="146" y="402" type="curve" smooth="yes"/>
      <point x="146" y="448"/>
      <point x="195" y="478"/>
      <point x="264" y="476" type="curve" smooth="yes"/>
      <point x="329" y="474"/>
      <point x="386" y="445"/>
      <point x="397" y="380" type="curve"/>
      <point x="488" y="397" type="line"/>
      <point x="476" y="495"/>
      <point x="383" y="555"/>
      <point x="264" y="555" type="curve" smooth="yes"/>
      <point x="156" y="555"/>
      <point x="57" y="504"/>
      <point x="57" y="397" type="curve" smooth="yes"/>
      <point x="57" y="306"/>
      <point x="128" y="276"/>
      <point x="246" y="244" type="curve" smooth="yes"/>
      <point x="352" y="216"/>
      <point x="398" y="205"/>
      <point x="398" y="150" type="curve" smooth="yes"/>
      <point x="398" y="94"/>
      <point x="347" y="65"/>
      <point x="280" y="65" type="curve" smooth="yes"/>
      <point x="212" y="65"/>
      <point x="147" y="94"/>
      <point x="131" y="160" type="curve"/>
      <point x="40" y="146" type="line"/>
      <point x="60" y="36"/>
      <point x="156" y="-14"/>
    </contour>
  </outline>
</glyph>
<glyph name="t" format="2">
  <advance width="412"/>
  <unicode hex="0074"/>
  <note>
t
</note>
  <outline>
    <contour>
      <point x="372" y="0" type="curve"/>
      <point x="372" y="76" type="line"/>
      <point x="298" y="65"/>
      <point x="244" y="68"/>
      <point x="220" y="111" type="curve" smooth="yes"/>
      <point x="206" y="134"/>
      <point x="208" y="164"/>
      <point x="208" y="208" type="curve" smooth="yes"/>
      <point x="208" y="690" type="line"/>
      <point x="120" y="690" type="line"/>
      <point x="120" y="204" type="line" smooth="yes"/>
      <point x="120" y="148"/>
      <point x="116" y="107"/>
      <point x="138" y="65" type="curve" smooth="yes"/>
      <point x="176" y="-8"/>
      <point x="275" y="-20"/>
    </contour>
    <contour>
      <point x="10" y="466" type="line"/>
      <point x="372" y="466" type="line"/>
      <point x="372" y="540" type="line"/>
      <point x="10" y="540" type="line"/>
    </contour>
  </outline>
</glyph>
<glyph name="u" format="2">
  <advance width="604"/>
  <unicode hex="0075"/>
  <note>
u
</note>
  <outline>
    <contour>
      <point x="275" y="-14" type="curve" smooth="yes"/>
      <point x="414" y="-14"/>
      <point x="504" y="81"/>
      <point x="504" y="238" type="curve"/>
      <point x="445" y="256" type="line"/>
      <point x="445" y="130"/>
      <point x="386" y="70"/>
      <point x="296" y="70" type="curve" smooth="yes"/>
      <point x="182" y="70"/>
      <point x="150" y="168"/>
      <point x="150" y="270" type="curve" smooth="yes"/>
      <point x="150" y="540" type="line"/>
      <point x="60" y="540" type="line"/>
      <point x="60" y="242" type="line" smooth="yes"/>
      <point x="60" y="139"/>
      <point x="101" y="-14"/>
    </contour>
    <contour>
      <point x="455" y="0" type="line"/>
      <point x="534" y="0" type="line"/>
      <point x="534" y="540" type="line"/>
      <point x="445" y="540" type="line"/>
      <point x="445" y="144" type="line"/>
      <point x="455" y="144" type="line"/>
    </contour>
  </outline>
</glyph>
<glyph name="v" format="2">
  <advance width="523"/>
  <unicode hex="0076"/>
  <outline>
    <contour>
      <point x="216" y="0" type="line"/>
      <point x="307" y="0" type="line"/>
      <point x="503" y="540" type="line"/>
      <point x="412" y="540" type="line"/>
      <point x="262" y="114" type="line"/>
      <point x="110" y="540" type="line"/>
      <point x="20" y="540" type="line"/>
    </contour>
  </outline>
</glyph>
<glyph name="w" format="2">
  <advance width="779"/>
  <unicode hex="0077"/>
  <note>
w
</note>
  <outline>
    <contour>
      <point x="185" y="0" type="line"/>
      <point x="259" y="0" type="line"/>
      <point x="390" y="410" type="line"/>
      <point x="516" y="0" type="line"/>
      <point x="594" y="0" type="line"/>
      <point x="759" y="540" type="line"/>
      <point x="671" y="540" type="line"/>
      <point x="550" y="145" type="line"/>
      <point x="429" y="540" type="line"/>
      <point x="350" y="540" type="line"/>
      <point x="230" y="145" type="line"/>
      <point x="109" y="540" type="line"/>
      <point x="20" y="540" type="line"/>
    </contour>
  </outline>
</glyph>
<glyph name="x" format="2">
  <advance width="536"/>
  <unicode hex="0078"/>
  <note>
x
</note>
  <outline>
    <contour>
      <point x="10" y="0" type="line"/>
      <point x="116" y="0" type="line"/>
      <point x="268" y="204" type="line"/>
      <point x="420" y="0" type="line"/>
      <point x="526" y="0" type="line"/>
      <point x="319" y="273" type="line"/>
      <point x="521" y="540" type="line"/>
      <point x="415" y="540" type="line"/>
      <point x="268" y="342" type="line"/>
      <point x="120" y="540" type="line"/>
      <point x="14" y="540" type="line"/>
      <point x="216" y="273" type="line"/>
    </contour>
  </outline>
</glyph>
<glyph name="y" format="2">
  <advance width="538"/>
  <unicode hex="0079"/>
  <note>
y
</note>
  <outline>
    <contour>
      <point x="145" y="-240" type="line"/>
      <point x="232" y="-240" type="line"/>
      <point x="526" y="540" type="line"/>
      <point x="435" y="540" type="line"/>
      <point x="262" y="74" type="line"/>
      <point x="294" y="74" type="line"/>
      <point x="108" y="540" type="line"/>
      <point x="15" y="540" type="line"/>
      <point x="251" y="-40" type="line"/>
      <point x="250" y="44" type="line"/>
    </contour>
  </outline>
</glyph>
<glyph name="braceleft" format="2">
  <advance width="430"/>
  <unicode hex="007B"/>
  <outline>
    <contour>
      <point x="324" y="-216" type="curve" smooth="yes"/>
      <point x="387" y="-216" type="line"/>
      <point x="387" y="-132" type="line"/>
      <point x="330" y="-132" type="line" smooth="yes"/>
      <point x="304" y="-132"/>
      <point x="284" y="-111"/>
      <point x="284" y="-86" type="curve" smooth="yes"/>
      <point x="284" y="227" type="line" smooth="yes"/>
      <point x="284" y="254"/>
      <point x="276" y="280"/>
      <point x="260" y="302" type="curve" smooth="yes"/>
      <point x="234" y="338" type="line"/>
      <point x="260" y="373" type="line" smooth="yes"/>
      <point x="276" y="396"/>
      <point x="284" y="421"/>
      <point x="284" y="448" type="curve" smooth="yes"/>
      <point x="284" y="760" type="line" smooth="yes"/>
      <point x="284" y="786"/>
      <point x="304" y="806"/>
      <point x="330" y="806" type="curve" smooth="yes"/>
      <point x="387" y="806" type="line"/>
      <point x="387" y="891" type="line"/>
      <point x="324" y="891" type="line" smooth="yes"/>
      <point x="250" y="891"/>
      <point x="198" y="840"/>
      <point x="198" y="765" type="curve" smooth="yes"/>
      <point x="198" y="448" type="line" smooth="yes"/>
      <point x="198" y="438"/>
      <point x="196" y="430"/>
      <point x="190" y="422" type="curve" smooth="yes"/>
      <point x="148" y="362" type="line" smooth="yes"/>
      <point x="138" y="347"/>
      <point x="138" y="328"/>
      <point x="148" y="314" type="curve" smooth="yes"/>
      <point x="190" y="253" type="line" smooth="yes"/>
      <point x="196" y="246"/>
      <point x="198" y="236"/>
      <point x="198" y="227" type="curve" smooth="yes"/>
      <point x="198" y="-90" type="line" smooth="yes"/>
      <point x="198" y="-165"/>
      <point x="250" y="-216"/>
    </contour>
  </outline>
</glyph>
<glyph name="cent" format="2">
  <advance width="561"/>
  <unicode hex="00A2"/>
  <outline>
    <contour>
      <point x="264" y="-30" type="line"/>
      <point x="338" y="-30" type="line"/>
      <point x="338" y="63" type="line"/>
      <point x="428" y="75"/>
      <point x="494" y="128"/>
      <point x="528" y="216" type="curve"/>
      <point x="438" y="239" type="line"/>
      <point x="414" y="178"/>
      <point x="368" y="144"/>
      <point x="298" y="144" type="curve" smooth="yes"/>
      <point x="190" y="144"/>
      <point x="136" y="224"/>
      <point x="134" y="345" type="curve" smooth="yes"/>
      <point x="136" y="462"/>
      <point x="186" y="546"/>
      <point x="298" y="546" type="curve" smooth="yes"/>
      <point x="363" y="546"/>
      <point x="418" y="509"/>
      <point x="440" y="446" type="curve"/>
      <point x="528" y="473" type="line"/>
      <point x="503" y="558"/>
      <point x="432" y="614"/>
      <point x="338" y="627" type="curve"/>
      <point x="338" y="720" type="line"/>
      <point x="264" y="720" type="line"/>
      <point x="264" y="628" type="line"/>
      <point x="122" y="612"/>
      <point x="42" y="502"/>
      <point x="40" y="345" type="curve" smooth="yes"/>
      <point x="42" y="190"/>
      <point x="120" y="77"/>
      <point x="264" y="62" type="curve"/>
    </contour>
  </outline>
</glyph>
<glyph name="sterling" format="2">
  <advance width="552"/>
  <unicode hex="00A3"/>
  <outline>
    <contour>
      <point x="20" y="0" type="line"/>
      <point x="488" y="0" type="line"/>
      <point x="488" y="84" type="line"/>
      <point x="221" y="84" type="line"/>
      <point x="222" y="542" type="line" smooth="yes"/>
      <point x="222" y="606"/>
      <point x="262" y="650"/>
      <point x="324" y="650" type="curve" smooth="yes"/>
      <point x="381" y="650"/>
      <point x="416" y="608"/>
      <point x="440" y="530" type="curve"/>
      <point x="522" y="556" type="line"/>
      <point x="484" y="666"/>
      <point x="422" y="735"/>
      <point x="325" y="735" type="curve" smooth="yes"/>
      <point x="216" y="735"/>
      <point x="131" y="656"/>
      <point x="131" y="546" type="curve" smooth="yes"/>
      <point x="131" y="157" type="line" smooth="yes"/>
      <point x="131" y="118"/>
      <point x="98" y="84"/>
      <point x="59" y="84" type="curve" smooth="yes"/>
      <point x="20" y="84" type="line"/>
    </contour>
    <contour>
      <point x="20" y="322" type="line"/>
      <point x="393" y="322" type="line"/>
      <point x="393" y="406" type="line"/>
      <point x="20" y="406" type="line"/>
    </contour>
  </outline>
</glyph>
<glyph name="currency" format="2">
  <advance width="651"/>
  <unicode hex="00A4"/>
  <outline>
    <contour>
      <point x="326" y="98" type="curve" smooth="yes"/>
      <point x="470" y="98"/>
      <point x="588" y="216"/>
      <point x="588" y="361" type="curve" smooth="yes"/>
      <point x="588" y="505"/>
      <point x="470" y="623"/>
      <point x="326" y="623" type="curve" smooth="yes"/>
      <point x="182" y="623"/>
      <point x="64" y="505"/>
      <point x="64" y="361" type="curve" smooth="yes"/>
      <point x="64" y="216"/>
      <point x="182" y="98"/>
    </contour>
    <contour>
      <point x="90" y="65" type="line"/>
      <point x="202" y="176" type="line"/>
      <point x="142" y="236" type="line"/>
      <point x="30" y="125" type="line"/>
    </contour>
    <contour>
      <point x="142" y="483" type="line"/>
      <point x="202" y="544" type="line"/>
      <point x="90" y="655" type="line"/>
      <point x="30" y="595" type="line"/>
    </contour>
    <contour>
      <point x="561" y="65" type="line"/>
      <point x="621" y="125" type="line"/>
      <point x="510" y="236" type="line"/>
      <point x="450" y="176" type="line"/>
    </contour>
    <contour>
      <point x="326" y="176" type="curve" smooth="yes"/>
      <point x="224" y="176"/>
      <point x="142" y="260"/>
      <point x="142" y="360" type="curve" smooth="yes"/>
      <point x="142" y="462"/>
      <point x="224" y="544"/>
      <point x="326" y="544" type="curve" smooth="yes"/>
      <point x="425" y="544"/>
      <point x="510" y="462"/>
      <point x="510" y="360" type="curve" smooth="yes"/>
      <point x="510" y="260"/>
      <point x="428" y="176"/>
    </contour>
    <contour>
      <point x="510" y="484" type="line"/>
      <point x="621" y="595" type="line"/>
      <point x="561" y="655" type="line"/>
      <point x="450" y="544" type="line"/>
    </contour>
  </outline>
</glyph>
<glyph name="yen" format="2">
  <advance width="574"/>
  <unicode hex="00A5"/>
  <outline>
    <contour>
      <point x="92" y="260" type="line"/>
      <point x="482" y="260" type="line"/>
      <point x="482" y="333" type="line"/>
      <point x="92" y="333" type="line"/>
    </contour>
    <contour>
      <point x="92" y="108" type="line"/>
      <point x="482" y="108" type="line"/>
      <point x="482" y="182" type="line"/>
      <point x="92" y="182" type="line"/>
    </contour>
    <component base="Y"/>
  </outline>
</glyph>
<glyph name="brokenbar" format="2">
  <advance width="269"/>
  <unicode hex="00A6"/>
  <outline>
    <contour>
      <point x="90" y="338" type="line"/>
      <point x="179" y="338" type="line"/>
      <point x="179" y="720" type="line"/>
      <point x="90" y="720" type="line"/>
    </contour>
    <contour>
      <point x="90" y="-172" type="line"/>
      <point x="179" y="-172" type="line"/>
      <point x="179" y="210" type="line"/>
      <point x="90" y="210" type="line"/>
    </contour>
  </outline>
</glyph>
<glyph name="section" format="2">
  <advance width="530"/>
  <unicode hex="00A7"/>
  <outline>
    <contour>
      <point x="276" y="-150" type="curve" smooth="yes"/>
      <point x="391" y="-150"/>
      <point x="480" y="-91"/>
      <point x="480" y="19" type="curve" smooth="yes"/>
      <point x="480" y="117"/>
      <point x="408" y="147"/>
      <point x="291" y="178" type="curve" smooth="yes"/>
      <point x="200" y="202"/>
      <point x="136" y="214"/>
      <point x="136" y="268" type="curve" smooth="yes"/>
      <point x="136" y="313"/>
      <point x="180" y="342"/>
      <point x="244" y="360" type="curve"/>
      <point x="240" y="393" type="line"/>
      <point x="147" y="400"/>
      <point x="47" y="356"/>
      <point x="47" y="257" type="curve" smooth="yes"/>
      <point x="47" y="174"/>
      <point x="118" y="140"/>
      <point x="236" y="110" type="curve" smooth="yes"/>
      <point x="342" y="82"/>
      <point x="388" y="70"/>
      <point x="388" y="16" type="curve" smooth="yes"/>
      <point x="388" y="-42"/>
      <point x="336" y="-70"/>
      <point x="280" y="-70" type="curve" smooth="yes"/>
      <point x="226" y="-70"/>
      <point x="162" y="-42"/>
      <point x="146" y="26" type="curve"/>
      <point x="55" y="11" type="line"/>
      <point x="76" y="-102"/>
      <point x="172" y="-150"/>
    </contour>
    <contour>
      <point x="306" y="126" type="line"/>
      <point x="415" y="107"/>
      <point x="495" y="160"/>
      <point x="495" y="261" type="curve" smooth="yes"/>
      <point x="495" y="357"/>
      <point x="422" y="387"/>
      <point x="306" y="418" type="curve" smooth="yes"/>
      <point x="218" y="442"/>
      <point x="152" y="454"/>
      <point x="152" y="508" type="curve" smooth="yes"/>
      <point x="152" y="554"/>
      <point x="198" y="581"/>
      <point x="252" y="581" type="curve" smooth="yes"/>
      <point x="306" y="581"/>
      <point x="360" y="555"/>
      <point x="372" y="486" type="curve"/>
      <point x="463" y="502" type="line"/>
      <point x="450" y="600"/>
      <point x="360" y="660"/>
      <point x="256" y="660" type="curve" smooth="yes"/>
      <point x="162" y="660"/>
      <point x="62" y="610"/>
      <point x="62" y="502" type="curve" smooth="yes"/>
      <point x="62" y="412"/>
      <point x="134" y="380"/>
      <point x="250" y="350" type="curve" smooth="yes"/>
      <point x="356" y="322"/>
      <point x="403" y="310"/>
      <point x="403" y="256" type="curve" smooth="yes"/>
      <point x="403" y="198"/>
      <point x="352" y="165"/>
      <point x="304" y="160" type="curve"/>
    </contour>
  </outline>
</glyph>
<glyph name="copyright" format="2">
  <advance width="831"/>
  <unicode hex="00A9"/>
  <outline>
    <contour>
      <point x="416" y="-38" type="curve" smooth="yes"/>
      <point x="628" y="-38"/>
      <point x="801" y="135"/>
      <point x="801" y="348" type="curve" smooth="yes"/>
      <point x="801" y="561"/>
      <point x="628" y="734"/>
      <point x="416" y="734" type="curve" smooth="yes"/>
      <point x="202" y="734"/>
      <point x="30" y="561"/>
      <point x="30" y="348" type="curve" smooth="yes"/>
      <point x="30" y="135"/>
      <point x="202" y="-38"/>
    </contour>
    <contour>
      <point x="421" y="136" type="curve" smooth="yes"/>
      <point x="467" y="136"/>
      <point x="500" y="147"/>
      <point x="530" y="168" type="curve" smooth="yes"/>
      <point x="557" y="187"/>
      <point x="580" y="217"/>
      <point x="594" y="256" type="curve"/>
      <point x="522" y="274" type="line"/>
      <point x="513" y="253"/>
      <point x="502" y="237"/>
      <point x="485" y="224" type="curve" smooth="yes"/>
      <point x="468" y="211"/>
      <point x="446" y="205"/>
      <point x="422" y="205" type="curve" smooth="yes"/>
      <point x="384" y="205"/>
      <point x="353" y="220"/>
      <point x="333" y="247" type="curve" smooth="yes"/>
      <point x="314" y="274"/>
      <point x="305" y="311"/>
      <point x="305" y="350" type="curve" smooth="yes"/>
      <point x="305" y="385"/>
      <point x="312" y="423"/>
      <point x="333" y="450" type="curve" smooth="yes"/>
      <point x="354" y="477"/>
      <point x="384" y="492"/>
      <point x="421" y="492" type="curve" smooth="yes"/>
      <point x="444" y="492"/>
      <point x="466" y="486"/>
      <point x="484" y="473" type="curve" smooth="yes"/>
      <point x="502" y="459"/>
      <point x="516" y="440"/>
      <point x="523" y="420" type="curve"/>
      <point x="594" y="440" type="line"/>
      <point x="584" y="482"/>
      <point x="557" y="514"/>
      <point x="524" y="534" type="curve" smooth="yes"/>
      <point x="492" y="554"/>
      <point x="461" y="560"/>
      <point x="424" y="560" type="curve" smooth="yes"/>
      <point x="358" y="560"/>
      <point x="310" y="539"/>
      <point x="274" y="494" type="curve" smooth="yes"/>
      <point x="242" y="454"/>
      <point x="228" y="402"/>
      <point x="228" y="349" type="curve" smooth="yes"/>
      <point x="228" y="297"/>
      <point x="240" y="246"/>
      <point x="274" y="202" type="curve" smooth="yes"/>
      <point x="311" y="156"/>
      <point x="358" y="136"/>
    </contour>
    <contour>
      <point x="416" y="48" type="curve" smooth="yes"/>
      <point x="249" y="48"/>
      <point x="115" y="182"/>
      <point x="115" y="348" type="curve" smooth="yes"/>
      <point x="115" y="514"/>
      <point x="249" y="648"/>
      <point x="416" y="648" type="curve" smooth="yes"/>
      <point x="581" y="648"/>
      <point x="715" y="514"/>
      <point x="715" y="348" type="curve" smooth="yes"/>
      <point x="715" y="182"/>
      <point x="581" y="48"/>
    </contour>
  </outline>
</glyph>
<glyph name="guillemetleft" format="2">
  <advance width="552"/>
  <unicode hex="00AB"/>
  <outline>
    <contour>
      <point x="436" y="96" type="line"/>
      <point x="488" y="136" type="line"/>
      <point x="345" y="316" type="line"/>
      <point x="488" y="494" type="line"/>
      <point x="436" y="534" type="line"/>
      <point x="262" y="316" type="line"/>
    </contour>
    <contour>
      <point x="254" y="96" type="line"/>
      <point x="305" y="136" type="line"/>
      <point x="162" y="316" type="line"/>
      <point x="305" y="494" type="line"/>
      <point x="254" y="534" type="line"/>
      <point x="80" y="316" type="line"/>
    </contour>
  </outline>
</glyph>
<glyph name="logicalnot" format="2">
  <advance width="600"/>
  <unicode hex="00AC"/>
  <outline>
    <contour>
      <point x="466" y="192" type="line"/>
      <point x="540" y="192" type="line"/>
      <point x="540" y="387" type="line"/>
      <point x="60" y="387" type="line"/>
      <point x="60" y="314" type="line"/>
      <point x="466" y="314" type="line"/>
    </contour>
  </outline>
</glyph>
<glyph name="registered" format="2">
  <advance width="635"/>
  <unicode hex="00AE"/>
  <outline>
    <contour>
      <point x="318" y="282" type="curve" smooth="yes"/>
      <point x="454" y="282"/>
      <point x="565" y="394"/>
      <point x="565" y="530" type="curve" smooth="yes"/>
      <point x="565" y="666"/>
      <point x="454" y="778"/>
      <point x="318" y="778" type="curve" smooth="yes"/>
      <point x="181" y="778"/>
      <point x="70" y="666"/>
      <point x="70" y="530" type="curve" smooth="yes"/>
      <point x="70" y="394"/>
      <point x="181" y="282"/>
    </contour>
    <contour>
      <point x="318" y="348" type="curve" smooth="yes"/>
      <point x="216" y="348"/>
      <point x="135" y="430"/>
      <point x="135" y="530" type="curve" smooth="yes"/>
      <point x="135" y="632"/>
      <point x="216" y="713"/>
      <point x="318" y="713" type="curve" smooth="yes"/>
      <point x="418" y="713"/>
      <point x="500" y="632"/>
      <point x="500" y="530" type="curve" smooth="yes"/>
      <point x="500" y="430"/>
      <point x="418" y="348"/>
    </contour>
    <contour>
      <point x="236" y="414" type="line"/>
      <point x="276" y="414" type="line"/>
      <point x="276" y="496" type="line"/>
      <point x="331" y="496" type="line"/>
      <point x="370" y="414" type="line"/>
      <point x="416" y="414" type="line"/>
      <point x="372" y="504" type="line"/>
      <point x="400" y="518"/>
      <point x="415" y="544"/>
      <point x="415" y="572" type="curve" smooth="yes"/>
      <point x="414" y="616"/>
      <point x="382" y="648"/>
      <point x="336" y="648" type="curve" smooth="yes"/>
      <point x="236" y="648" type="line"/>
    </contour>
    <contour>
      <point x="276" y="534" type="line"/>
      <point x="276" y="610" type="line"/>
      <point x="337" y="610" type="line" smooth="yes"/>
      <point x="357" y="610"/>
      <point x="374" y="596"/>
      <point x="374" y="572" type="curve" smooth="yes"/>
      <point x="374" y="550"/>
      <point x="357" y="534"/>
      <point x="337" y="534" type="curve" smooth="yes"/>
    </contour>
  </outline>
</glyph>
<glyph name="plusminus" format="2">
  <advance width="600"/>
  <unicode hex="00B1"/>
  <outline>
    <contour>
      <point x="264" y="220" type="line"/>
      <point x="337" y="220" type="line"/>
      <point x="337" y="344" type="line"/>
      <point x="540" y="344" type="line"/>
      <point x="540" y="417" type="line"/>
      <point x="337" y="417" type="line"/>
      <point x="337" y="540" type="line"/>
      <point x="264" y="540" type="line"/>
      <point x="264" y="417" type="line"/>
      <point x="60" y="417" type="line"/>
      <point x="60" y="344" type="line"/>
      <point x="264" y="344" type="line"/>
    </contour>
    <contour>
      <point x="60" y="74" type="line"/>
      <point x="540" y="74" type="line"/>
      <point x="540" y="148" type="line"/>
      <point x="60" y="148" type="line"/>
    </contour>
  </outline>
</glyph>
<glyph name="twosuperior" format="2">
  <advance width="404"/>
  <unicode hex="00B2"/>
  <outline>
    <contour>
      <point x="50" y="270" type="line"/>
      <point x="354" y="270" type="line"/>
      <point x="354" y="330" type="line"/>
      <point x="111" y="330" type="line"/>
      <point x="120" y="306" type="line"/>
      <point x="282" y="450" type="line" smooth="yes"/>
      <point x="330" y="493"/>
      <point x="354" y="521"/>
      <point x="354" y="582" type="curve" smooth="yes"/>
      <point x="354" y="667"/>
      <point x="290" y="730"/>
      <point x="205" y="730" type="curve" smooth="yes"/>
      <point x="116" y="730"/>
      <point x="52" y="670"/>
      <point x="52" y="584" type="curve"/>
      <point x="116" y="584" type="line"/>
      <point x="115" y="630"/>
      <point x="153" y="670"/>
      <point x="204" y="670" type="curve" smooth="yes"/>
      <point x="253" y="670"/>
      <point x="289" y="632"/>
      <point x="289" y="582" type="curve" smooth="yes"/>
      <point x="289" y="557"/>
      <point x="280" y="532"/>
      <point x="248" y="504" type="curve" smooth="yes"/>
      <point x="50" y="326" type="line"/>
    </contour>
  </outline>
</glyph>
<glyph name="threesuperior" format="2">
  <advance width="394"/>
  <unicode hex="00B3"/>
  <outline>
    <contour>
      <point x="184" y="260" type="curve" smooth="yes"/>
      <point x="269" y="260"/>
      <point x="334" y="322"/>
      <point x="334" y="408" type="curve" smooth="yes"/>
      <point x="334" y="492"/>
      <point x="276" y="555"/>
      <point x="186" y="550" type="curve"/>
      <point x="187" y="524" type="line"/>
      <point x="328" y="660" type="line"/>
      <point x="328" y="720" type="line"/>
      <point x="58" y="720" type="line"/>
      <point x="58" y="660" type="line"/>
      <point x="288" y="660" type="line"/>
      <point x="278" y="685" type="line"/>
      <point x="110" y="535" type="line"/>
      <point x="140" y="486" type="line"/>
      <point x="154" y="492"/>
      <point x="169" y="496"/>
      <point x="184" y="496" type="curve" smooth="yes"/>
      <point x="235" y="496"/>
      <point x="270" y="460"/>
      <point x="270" y="408" type="curve" smooth="yes"/>
      <point x="270" y="357"/>
      <point x="236" y="320"/>
      <point x="184" y="320" type="curve" smooth="yes"/>
      <point x="147" y="320"/>
      <point x="114" y="340"/>
      <point x="101" y="381" type="curve"/>
      <point x="40" y="364" type="line"/>
      <point x="59" y="300"/>
      <point x="118" y="260"/>
    </contour>
  </outline>
</glyph>
<glyph name="paragraph" format="2">
  <advance width="662"/>
  <unicode hex="00B6"/>
  <outline>
    <contour>
      <point x="342" y="-141" type="line"/>
      <point x="430" y="-141" type="line"/>
      <point x="430" y="720" type="line"/>
      <point x="296" y="720" type="line" smooth="yes"/>
      <point x="286" y="720"/>
      <point x="266" y="720"/>
      <point x="243" y="716" type="curve" smooth="yes"/>
      <point x="126" y="698"/>
      <point x="65" y="606"/>
      <point x="65" y="493" type="curve" smooth="yes"/>
      <point x="65" y="378"/>
      <point x="128" y="288"/>
      <point x="243" y="270" type="curve" smooth="yes"/>
      <point x="266" y="266"/>
      <point x="287" y="266"/>
      <point x="296" y="266" type="curve" smooth="yes"/>
      <point x="342" y="266" type="line"/>
    </contour>
    <contour>
      <point x="508" y="-141" type="line"/>
      <point x="596" y="-141" type="line"/>
      <point x="596" y="720" type="line"/>
      <point x="508" y="720" type="line"/>
    </contour>
  </outline>
</glyph>
<glyph name="periodcentered" format="2">
  <advance width="600"/>
  <unicode hex="00B7"/>
  <outline>
    <contour>
      <point x="302" y="255" type="curve" smooth="yes"/>
      <point x="333" y="255"/>
      <point x="360" y="280"/>
      <point x="360" y="315" type="curve" smooth="yes"/>
      <point x="360" y="350"/>
      <point x="333" y="375"/>
      <point x="302" y="375" type="curve" smooth="yes"/>
      <point x="267" y="375"/>
      <point x="240" y="350"/>
      <point x="240" y="315" type="curve" smooth="yes"/>
      <point x="240" y="280"/>
      <point x="267" y="255"/>
    </contour>
  </outline>
</glyph>
<glyph name="AE" format="2">
  <advance width="925"/>
  <unicode hex="00C6"/>
  <outline>
    <contour>
      <point x="20" y="0" type="line"/>
      <point x="112" y="0" type="line"/>
      <point x="158" y="134" type="line"/>
      <point x="420" y="134" type="line"/>
      <point x="420" y="0" type="line"/>
      <point x="875" y="0" type="line"/>
      <point x="875" y="84" type="line"/>
      <point x="509" y="84" type="line"/>
      <point x="509" y="326" type="line"/>
      <point x="815" y="326" type="line"/>
      <point x="815" y="410" type="line"/>
      <point x="509" y="410" type="line"/>
      <point x="509" y="636" type="line"/>
      <point x="875" y="636" type="line"/>
      <point x="875" y="720" type="line"/>
      <point x="261" y="720" type="line"/>
    </contour>
    <contour>
      <point x="184" y="218" type="line"/>
      <point x="324" y="631" type="line"/>
      <point x="420" y="631" type="line"/>
      <point x="420" y="218" type="line"/>
    </contour>
  </outline>
</glyph>
<glyph name="Eth" format="2">
  <advance width="678"/>
  <unicode hex="00D0"/>
  <outline>
    <contour>
      <point x="10" y="324" type="line"/>
      <point x="332" y="324" type="line"/>
      <point x="332" y="397" type="line"/>
      <point x="10" y="397" type="line"/>
    </contour>
    <component base="D" xOffset="-4"/>
  </outline>
</glyph>
<glyph name="Thorn" format="2">
  <advance width="606"/>
  <unicode hex="00DE"/>
  <outline>
    <contour>
      <point x="70" y="0" type="line"/>
      <point x="160" y="0" type="line"/>
      <point x="160" y="134" type="line"/>
      <point x="348" y="134" type="line" smooth="yes"/>
      <point x="417" y="134"/>
      <point x="484" y="166"/>
      <point x="524" y="217" type="curve" smooth="yes"/>
      <point x="556" y="256"/>
      <point x="577" y="308"/>
      <point x="576" y="360" type="curve" smooth="yes"/>
      <point x="576" y="414"/>
      <point x="555" y="468"/>
      <point x="518" y="508" type="curve" smooth="yes"/>
      <point x="494" y="538"/>
      <point x="460" y="562"/>
      <point x="423" y="574" type="curve" smooth="yes"/>
      <point x="399" y="582"/>
      <point x="374" y="587"/>
      <point x="348" y="587" type="curve" smooth="yes"/>
      <point x="160" y="587" type="line"/>
      <point x="160" y="720" type="line"/>
      <point x="70" y="720" type="line"/>
    </contour>
    <contour>
      <point x="160" y="218" type="line"/>
      <point x="160" y="502" type="line"/>
      <point x="348" y="502" type="line" smooth="yes"/>
      <point x="383" y="502"/>
      <point x="421" y="484"/>
      <point x="446" y="458" type="curve" smooth="yes"/>
      <point x="470" y="432"/>
      <point x="484" y="396"/>
      <point x="485" y="360" type="curve" smooth="yes"/>
      <point x="486" y="328"/>
      <point x="474" y="296"/>
      <point x="454" y="271" type="curve" smooth="yes"/>
      <point x="427" y="238"/>
      <point x="386" y="218"/>
      <point x="348" y="218" type="curve" smooth="yes"/>
    </contour>
  </outline>
</glyph>
<glyph name="germandbls" format="2">
  <advance width="611"/>
  <unicode hex="00DF"/>
  <outline>
    <contour>
      <point x="324" y="-14" type="curve" smooth="yes"/>
      <point x="471" y="-14"/>
      <point x="551" y="72"/>
      <point x="551" y="208" type="curve" smooth="yes"/>
      <point x="551" y="312"/>
      <point x="476" y="380"/>
      <point x="412" y="396" type="curve"/>
      <point x="463" y="421"/>
      <point x="490" y="475"/>
      <point x="490" y="539" type="curve" smooth="yes"/>
      <point x="490" y="658"/>
      <point x="400" y="735"/>
      <point x="280" y="735" type="curve" smooth="yes"/>
      <point x="186" y="735"/>
      <point x="111" y="696"/>
      <point x="82" y="611" type="curve" smooth="yes"/>
      <point x="74" y="588"/>
      <point x="70" y="562"/>
      <point x="70" y="531" type="curve" smooth="yes"/>
      <point x="70" y="0" type="line"/>
      <point x="162" y="0" type="line"/>
      <point x="162" y="507" type="line" smooth="yes"/>
      <point x="162" y="536"/>
      <point x="164" y="565"/>
      <point x="173" y="586" type="curve" smooth="yes"/>
      <point x="191" y="632"/>
      <point x="233" y="650"/>
      <point x="280" y="650" type="curve" smooth="yes"/>
      <point x="348" y="650"/>
      <point x="398" y="609"/>
      <point x="398" y="538" type="curve" smooth="yes"/>
      <point x="398" y="466"/>
      <point x="347" y="430"/>
      <point x="280" y="423" type="curve"/>
      <point x="280" y="343" type="line"/>
      <point x="388" y="342"/>
      <point x="460" y="295"/>
      <point x="460" y="208" type="curve" smooth="yes"/>
      <point x="460" y="120"/>
      <point x="402" y="74"/>
      <point x="314" y="74" type="curve" smooth="yes"/>
      <point x="281" y="74"/>
      <point x="256" y="78"/>
      <point x="232" y="88" type="curve"/>
      <point x="232" y="0" type="line"/>
      <point x="258" y="-11"/>
      <point x="286" y="-14"/>
    </contour>
  </outline>
</glyph>
<glyph name="ae" format="2">
  <advance width="940"/>
  <unicode hex="00E6"/>
  <outline>
    <contour>
      <point x="667" y="-15" type="curve" smooth="yes"/>
      <point x="764" y="-15"/>
      <point x="851" y="39"/>
      <point x="890" y="135" type="curve"/>
      <point x="809" y="164" type="line"/>
      <point x="780" y="100"/>
      <point x="728" y="70"/>
      <point x="663" y="70" type="curve" smooth="yes"/>
      <point x="560" y="70"/>
      <point x="506" y="148"/>
      <point x="506" y="270" type="curve" smooth="yes"/>
      <point x="506" y="390"/>
      <point x="554" y="475"/>
      <point x="663" y="475" type="curve" smooth="yes"/>
      <point x="772" y="475"/>
      <point x="812" y="400"/>
      <point x="814" y="277" type="curve"/>
      <point x="814" y="245" type="line"/>
      <point x="899" y="245" type="line"/>
      <point x="906" y="428"/>
      <point x="825" y="555"/>
      <point x="664" y="555" type="curve" smooth="yes"/>
      <point x="511" y="555"/>
      <point x="417" y="439"/>
      <point x="417" y="267" type="curve" smooth="yes"/>
      <point x="417" y="103"/>
      <point x="511" y="-15"/>
    </contour>
    <contour>
      <point x="237" y="59" type="curve" smooth="yes"/>
      <point x="170" y="59"/>
      <point x="128" y="92"/>
      <point x="128" y="148" type="curve" smooth="yes"/>
      <point x="128" y="237"/>
      <point x="238" y="244"/>
      <point x="296" y="248" type="curve" smooth="yes"/>
      <point x="440" y="254" type="line"/>
      <point x="414" y="273" type="line"/>
      <point x="416" y="246"/>
      <point x="414" y="188"/>
      <point x="393" y="145" type="curve" smooth="yes"/>
      <point x="368" y="96"/>
      <point x="308" y="59"/>
    </contour>
    <contour>
      <point x="229" y="-15" type="curve" smooth="yes"/>
      <point x="326" y="-15"/>
      <point x="416" y="21"/>
      <point x="462" y="128" type="curve"/>
      <point x="502" y="330" type="line"/>
      <point x="502" y="354"/>
      <point x="502" y="386"/>
      <point x="492" y="418" type="curve" smooth="yes"/>
      <point x="468" y="504"/>
      <point x="398" y="555"/>
      <point x="285" y="555" type="curve" smooth="yes"/>
      <point x="174" y="555"/>
      <point x="88" y="497"/>
      <point x="60" y="406" type="curve"/>
      <point x="143" y="381" type="line"/>
      <point x="163" y="446"/>
      <point x="219" y="472"/>
      <point x="284" y="472" type="curve" smooth="yes"/>
      <point x="374" y="472"/>
      <point x="422" y="419"/>
      <point x="414" y="304" type="curve"/>
      <point x="430" y="320" type="line"/>
      <point x="282" y="312" type="line" smooth="yes"/>
      <point x="204" y="306"/>
      <point x="40" y="294"/>
      <point x="40" y="146" type="curve" smooth="yes"/>
      <point x="40" y="49"/>
      <point x="109" y="-15"/>
    </contour>
    <contour>
      <point x="478" y="245" type="line"/>
      <point x="855" y="245" type="line"/>
      <point x="855" y="318" type="line"/>
      <point x="478" y="318" type="line"/>
    </contour>
  </outline>
</glyph>
<glyph name="eth" format="2">
  <advance width="587"/>
  <unicode hex="00F0"/>
  <outline>
    <contour>
      <point x="294" y="-15" type="curve" smooth="yes"/>
      <point x="452" y="-16"/>
      <point x="547" y="92"/>
      <point x="547" y="254" type="curve" smooth="yes"/>
      <point x="547" y="414"/>
      <point x="537" y="521"/>
      <point x="474" y="612" type="curve" smooth="yes"/>
      <point x="420" y="698"/>
      <point x="333" y="742"/>
      <point x="228" y="746" type="curve"/>
      <point x="216" y="674" type="line"/>
      <point x="304" y="668"/>
      <point x="372" y="628"/>
      <point x="417" y="562" type="curve" smooth="yes"/>
      <point x="444" y="526"/>
      <point x="454" y="490"/>
      <point x="459" y="454" type="curve"/>
      <point x="410" y="500"/>
      <point x="371" y="519"/>
      <point x="294" y="518" type="curve" smooth="yes"/>
      <point x="141" y="520"/>
      <point x="41" y="414"/>
      <point x="40" y="252" type="curve" smooth="yes"/>
      <point x="41" y="92"/>
      <point x="138" y="-16"/>
    </contour>
    <contour>
      <point x="294" y="66" type="curve" smooth="yes"/>
      <point x="188" y="66"/>
      <point x="130" y="136"/>
      <point x="130" y="252" type="curve" smooth="yes"/>
      <point x="130" y="366"/>
      <point x="186" y="438"/>
      <point x="294" y="438" type="curve" smooth="yes"/>
      <point x="398" y="438"/>
      <point x="456" y="367"/>
      <point x="456" y="252" type="curve" smooth="yes"/>
      <point x="456" y="140"/>
      <point x="401" y="66"/>
    </contour>
    <contour>
      <point x="312" y="555" type="line"/>
      <point x="465" y="749" type="line"/>
      <point x="407" y="794" type="line"/>
      <point x="254" y="600" type="line"/>
    </contour>
  </outline>
</glyph>
<glyph name="oslash" format="2">
  <advance width="600"/>
  <unicode hex="00F8"/>
  <outline>
    <contour>
      <point x="82" y="-8" type="line"/>
      <point x="578" y="488" type="line"/>
      <point x="518" y="548" type="line"/>
      <point x="22" y="52" type="line"/>
    </contour>
    <component base="o"/>
  </outline>
</glyph>
<glyph name="eogonek" format="2">
  <advance width="590"/>
  <unicode hex="0119"/>
  <outline>
    <contour>
      <point x="458" y="-231" type="curve" smooth="yes"/>
      <point x="478" y="-222"/>
      <point x="493" y="-209"/>
      <point x="504" y="-194" type="curve"/>
      <point x="468" y="-148" type="line"/>
      <point x="448" y="-166"/>
      <point x="417" y="-178"/>
      <point x="398" y="-158" type="curve" smooth="yes"/>
      <point x="386" y="-146"/>
      <point x="388" y="-128"/>
      <point x="392" y="-116" type="curve" smooth="yes"/>
      <point x="398" y="-93"/>
      <point x="412" y="-66"/>
      <point x="430" y="-37" type="curve" smooth="yes"/>
      <point x="447" y="-10"/>
      <point x="498" y="56"/>
      <point x="528" y="112" type="curve"/>
      <point x="464" y="117" type="line"/>
      <point x="438" y="70"/>
      <point x="388" y="16"/>
      <point x="372" y="-8" type="curve" smooth="yes"/>
      <point x="354" y="-32"/>
      <point x="335" y="-63"/>
      <point x="324" y="-92" type="curve" smooth="yes"/>
      <point x="310" y="-134"/>
      <point x="316" y="-176"/>
      <point x="342" y="-205" type="curve" smooth="yes"/>
      <point x="368" y="-236"/>
      <point x="416" y="-249"/>
    </contour>
    <component base="e"/>
  </outline>
</glyph>
<glyph name="Hbar" format="2">
  <advance width="717"/>
  <unicode hex="0126"/>
  <outline>
    <contour>
      <point x="10" y="494" type="line"/>
      <point x="707" y="494" type="line"/>
      <point x="707" y="578" type="line"/>
      <point x="10" y="578" type="line"/>
    </contour>
    <component base="H" xOffset="10"/>
  </outline>
</glyph>
<glyph name="Eng" format="2">
  <advance width="696"/>
  <unicode hex="014A"/>
  <outline>
    <contour>
      <point x="512" y="-209" type="curve" smooth="yes"/>
      <point x="582" y="-209"/>
      <point x="626" y="-180"/>
      <point x="626" y="-92" type="curve" smooth="yes"/>
      <point x="626" y="30" type="line"/>
      <point x="464" y="108" type="line"/>
      <point x="503" y="50" type="line" smooth="yes"/>
      <point x="537" y="-3"/>
      <point x="548" y="-35"/>
      <point x="548" y="-67" type="curve" smooth="yes"/>
      <point x="548" y="-118"/>
      <point x="525" y="-134"/>
      <point x="488" y="-134" type="curve" smooth="yes"/>
      <point x="476" y="-134"/>
      <point x="462" y="-132"/>
      <point x="452" y="-131" type="curve"/>
      <point x="452" y="-202" type="line"/>
      <point x="470" y="-206"/>
      <point x="490" y="-209"/>
    </contour>
    <component base="N"/>
  </outline>
</glyph>
<glyph name="eng" format="2">
  <advance width="604"/>
  <unicode hex="014B"/>
  <outline>
    <contour>
      <point x="466" y="-206" type="curve" smooth="yes"/>
      <point x="514" y="-196"/>
      <point x="544" y="-160"/>
      <point x="544" y="-92" type="curve" smooth="yes"/>
      <point x="544" y="2" type="line"/>
      <point x="454" y="2" type="line"/>
      <point x="454" y="-60" type="line" smooth="yes"/>
      <point x="454" y="-136"/>
      <point x="419" y="-140"/>
      <point x="371" y="-134" type="curve"/>
      <point x="371" y="-202" type="line"/>
      <point x="399" y="-208"/>
      <point x="428" y="-212"/>
    </contour>
    <component base="n"/>
  </outline>
</glyph>
<glyph name="Tbar" format="2">
  <advance width="600"/>
  <unicode hex="0166"/>
  <outline>
    <contour>
      <point x="75" y="316" type="line"/>
      <point x="525" y="316" type="line"/>
      <point x="525" y="404" type="line"/>
      <point x="75" y="404" type="line"/>
    </contour>
    <component base="T"/>
  </outline>
</glyph>
<glyph name="florin" format="2">
  <advance width="696"/>
  <unicode hex="0192"/>
  <outline>
    <contour>
      <point x="150" y="-15" type="curve" smooth="yes"/>
      <point x="236" y="-15"/>
      <point x="326" y="38"/>
      <point x="352" y="192" type="curve" smooth="yes"/>
      <point x="410" y="545" type="line" smooth="yes"/>
      <point x="424" y="632"/>
      <point x="494" y="650"/>
      <point x="539" y="650" type="curve" smooth="yes"/>
      <point x="586" y="650"/>
      <point x="626" y="630"/>
      <point x="624" y="630" type="curve"/>
      <point x="666" y="704" type="line" smooth="yes"/>
      <point x="645" y="716"/>
      <point x="592" y="735"/>
      <point x="533" y="735" type="curve" smooth="yes"/>
      <point x="414" y="735"/>
      <point x="334" y="644"/>
      <point x="316" y="532" type="curve" smooth="yes"/>
      <point x="262" y="206" type="line" smooth="yes"/>
      <point x="248" y="112"/>
      <point x="199" y="70"/>
      <point x="144" y="70" type="curve" smooth="yes"/>
      <point x="108" y="70"/>
      <point x="68" y="86"/>
      <point x="58" y="91" type="curve"/>
      <point x="20" y="15" type="line"/>
      <point x="42" y="6"/>
      <point x="96" y="-15"/>
    </contour>
    <contour>
      <point x="116" y="324" type="line"/>
      <point x="594" y="324" type="line"/>
      <point x="594" y="397" type="line"/>
      <point x="116" y="397" type="line"/>
    </contour>
  </outline>
</glyph>
<glyph name="gravecomb" format="2">
  <unicode hex="0300"/>
  <outline>
    <contour>
      <point x="360" y="786" type="line"/>
      <point x="386" y="852" type="line"/>
      <point x="145" y="947" type="line"/>
      <point x="120" y="880" type="line"/>
    </contour>
  </outline>
</glyph>
<glyph name="acutecomb" format="2">
  <unicode hex="0301"/>
  <outline>
    <contour>
      <point x="146" y="786" type="line"/>
      <point x="386" y="880" type="line"/>
      <point x="361" y="947" type="line"/>
      <point x="120" y="852" type="line"/>
    </contour>
  </outline>
</glyph>
<glyph name="circumflexcomb" format="2">
  <unicode hex="0302"/>
  <outline>
    <contour>
      <point x="156" y="786" type="line"/>
      <point x="272" y="857" type="line"/>
      <point x="388" y="786" type="line"/>
      <point x="423" y="848" type="line"/>
      <point x="272" y="941" type="line"/>
      <point x="120" y="848" type="line"/>
    </contour>
  </outline>
</glyph>
<glyph name="tildecomb" format="2">
  <unicode hex="0303"/>
  <outline>
    <contour>
      <point x="348" y="810" type="curve" smooth="yes"/>
      <point x="406" y="810"/>
      <point x="444" y="858"/>
      <point x="430" y="920" type="curve"/>
      <point x="372" y="920" type="line"/>
      <point x="380" y="897"/>
      <point x="370" y="878"/>
      <point x="347" y="878" type="curve" smooth="yes"/>
      <point x="307" y="878"/>
      <point x="262" y="927"/>
      <point x="204" y="927" type="curve" smooth="yes"/>
      <point x="146" y="927"/>
      <point x="109" y="880"/>
      <point x="123" y="819" type="curve"/>
      <point x="180" y="819" type="line"/>
      <point x="174" y="840"/>
      <point x="180" y="859"/>
      <point x="206" y="859" type="curve" smooth="yes"/>
      <point x="246" y="859"/>
      <point x="290" y="810"/>
    </contour>
  </outline>
</glyph>
<glyph name="brevecomb" format="2">
  <unicode hex="0306"/>
  <outline>
    <contour>
      <point x="256" y="780" type="curve" smooth="yes"/>
      <point x="332" y="780"/>
      <point x="393" y="841"/>
      <point x="393" y="916" type="curve"/>
      <point x="321" y="916" type="line"/>
      <point x="321" y="881"/>
      <point x="292" y="852"/>
      <point x="256" y="852" type="curve" smooth="yes"/>
      <point x="221" y="852"/>
      <point x="192" y="881"/>
      <point x="192" y="916" type="curve"/>
      <point x="120" y="916" type="line"/>
      <point x="120" y="841"/>
      <point x="181" y="780"/>
    </contour>
  </outline>
</glyph>
<glyph name="dieresiscomb" format="2">
  <unicode hex="0308"/>
  <outline>
    <contour>
      <point x="316" y="840" type="line"/>
      <point x="406" y="840" type="line"/>
      <point x="406" y="930" type="line"/>
      <point x="316" y="930" type="line"/>
    </contour>
    <contour>
      <point x="120" y="840" type="line"/>
      <point x="210" y="840" type="line"/>
      <point x="210" y="930" type="line"/>
      <point x="120" y="930" type="line"/>
    </contour>
  </outline>
</glyph>
<glyph name="ringcomb" format="2">
  <unicode hex="030A"/>
  <outline>
    <contour>
      <point x="252" y="653" type="curve" smooth="yes"/>
      <point x="322" y="653"/>
      <point x="379" y="710"/>
      <point x="379" y="780" type="curve" smooth="yes"/>
      <point x="379" y="850"/>
      <point x="322" y="907"/>
      <point x="252" y="907" type="curve" smooth="yes"/>
      <point x="182" y="907"/>
      <point x="125" y="850"/>
      <point x="125" y="780" type="curve" smooth="yes"/>
      <point x="125" y="710"/>
      <point x="182" y="653"/>
    </contour>
    <contour>
      <point x="252" y="720" type="curve" smooth="yes"/>
      <point x="219" y="720"/>
      <point x="192" y="747"/>
      <point x="192" y="780" type="curve" smooth="yes"/>
      <point x="192" y="813"/>
      <point x="219" y="840"/>
      <point x="252" y="840" type="curve" smooth="yes"/>
      <point x="286" y="840"/>
      <point x="312" y="813"/>
      <point x="312" y="780" type="curve" smooth="yes"/>
      <point x="312" y="747"/>
      <point x="286" y="720"/>
    </contour>
  </outline>
</glyph>
<glyph name="hungarumlautcomb" format="2">
  <unicode hex="030B"/>
  <outline>
    <contour>
      <point x="316" y="792" type="line"/>
      <point x="428" y="901" type="line"/>
      <point x="382" y="947" type="line"/>
      <point x="272" y="838" type="line"/>
    </contour>
    <contour>
      <point x="165" y="792" type="line"/>
      <point x="276" y="901" type="line"/>
      <point x="231" y="947" type="line"/>
      <point x="120" y="838" type="line"/>
    </contour>
  </outline>
</glyph>
<glyph name="caroncomb" format="2">
  <unicode hex="030C"/>
  <outline>
    <contour>
      <point x="272" y="786" type="line"/>
      <point x="423" y="878" type="line"/>
      <point x="388" y="941" type="line"/>
      <point x="272" y="870" type="line"/>
      <point x="156" y="941" type="line"/>
      <point x="120" y="878" type="line"/>
    </contour>
  </outline>
</glyph>
<glyph name="commaaccentcomb" format="2">
  <unicode hex="0326"/>
  <outline>
    <contour>
      <point x="120" y="-260" type="line"/>
      <point x="170" y="-260"/>
      <point x="214" y="-228"/>
      <point x="214" y="-169" type="curve" smooth="yes"/>
      <point x="214" y="-75" type="line"/>
      <point x="120" y="-75" type="line"/>
      <point x="120" y="-169" type="line"/>
      <point x="171" y="-169" type="line"/>
      <point x="172" y="-208"/>
      <point x="133" y="-216"/>
      <point x="120" y="-216" type="curve"/>
    </contour>
  </outline>
</glyph>
<glyph name="cedillacomb" format="2">
  <unicode hex="0327"/>
  <outline>
    <contour>
      <point x="186" y="-240" type="curve" smooth="yes"/>
      <point x="238" y="-240"/>
      <point x="284" y="-199"/>
      <point x="284" y="-142" type="curve" smooth="yes"/>
      <point x="284" y="-99"/>
      <point x="260" y="-70"/>
      <point x="223" y="-54" type="curve"/>
      <point x="246" y="12" type="line"/>
      <point x="186" y="12" type="line"/>
      <point x="150" y="-90" type="line"/>
      <point x="184" y="-101"/>
      <point x="216" y="-110"/>
      <point x="216" y="-140" type="curve" smooth="yes"/>
      <point x="216" y="-157"/>
      <point x="202" y="-174"/>
      <point x="178" y="-174" type="curve" smooth="yes"/>
      <point x="168" y="-174"/>
      <point x="156" y="-172"/>
      <point x="142" y="-166" type="curve"/>
      <point x="120" y="-224" type="line"/>
      <point x="139" y="-234"/>
      <point x="160" y="-240"/>
    </contour>
  </outline>
</glyph>
<glyph name="ogonekcomb" format="2">
  <unicode hex="0328"/>
  <outline>
    <contour>
      <point x="219" y="-240" type="curve" smooth="yes"/>
      <point x="252" y="-240"/>
      <point x="284" y="-224"/>
      <point x="308" y="-194" type="curve"/>
      <point x="272" y="-149" type="line"/>
      <point x="258" y="-162"/>
      <point x="242" y="-171"/>
      <point x="228" y="-171" type="curve" smooth="yes"/>
      <point x="210" y="-171"/>
      <point x="194" y="-156"/>
      <point x="194" y="-134" type="curve" smooth="yes"/>
      <point x="194" y="-94"/>
      <point x="245" y="-36"/>
      <point x="306" y="0" type="curve"/>
      <point x="262" y="50" type="line"/>
      <point x="182" y="3"/>
      <point x="120" y="-72"/>
      <point x="120" y="-139" type="curve" smooth="yes"/>
      <point x="120" y="-192"/>
      <point x="162" y="-240"/>
    </contour>
  </outline>
</glyph>
<glyph name="slashshortcomb" format="2">
  <unicode hex="0337"/>
  <outline>
    <contour>
      <point x="44" y="193" type="line"/>
      <point x="355" y="372" type="line"/>
      <point x="355" y="470" type="line"/>
      <point x="44" y="291" type="line"/>
    </contour>
  </outline>
</glyph>
<glyph name="dieresistonos" format="2">
  <advance width="600"/>
  <unicode hex="0385"/>
  <outline>
    <contour>
      <point x="396" y="630" type="line"/>
      <point x="479" y="630" type="line"/>
      <point x="479" y="720" type="line"/>
      <point x="396" y="720" type="line"/>
    </contour>
    <contour>
      <point x="122" y="630" type="line"/>
      <point x="204" y="630" type="line"/>
      <point x="204" y="720" type="line"/>
      <point x="122" y="720" type="line"/>
    </contour>
    <component base="tonos" xOffset="17"/>
  </outline>
</glyph>
<glyph name="Sigma" format="2">
  <advance width="645"/>
  <unicode hex="03A3"/>
  <outline>
    <contour>
      <point x="70" y="0" type="line"/>
      <point x="566" y="0" type="line"/>
      <point x="566" y="84" type="line"/>
      <point x="190" y="84" type="line"/>
      <point x="453" y="352" type="line"/>
      <point x="453" y="368" type="line"/>
      <point x="190" y="636" type="line"/>
      <point x="575" y="636" type="line"/>
      <point x="575" y="720" type="line"/>
      <point x="70" y="720" type="line"/>
      <point x="70" y="638" type="line"/>
      <point x="344" y="360" type="line"/>
      <point x="70" y="81" type="line"/>
    </contour>
  </outline>
</glyph>
<glyph name="Psi" format="2">
  <advance width="728"/>
  <unicode hex="03A8"/>
  <outline>
    <contour>
      <point x="320" y="0" type="line"/>
      <point x="408" y="0" type="line"/>
      <point x="408" y="169" type="line"/>
      <point x="524" y="173"/>
      <point x="613" y="229"/>
      <point x="645" y="337" type="curve" smooth="yes"/>
      <point x="657" y="372"/>
      <point x="658" y="403"/>
      <point x="658" y="425" type="curve" smooth="yes"/>
      <point x="658" y="720" type="line"/>
      <point x="574" y="720" type="line"/>
      <point x="574" y="458" type="line" smooth="yes"/>
      <point x="574" y="442"/>
      <point x="574" y="410"/>
      <point x="566" y="379" type="curve" smooth="yes"/>
      <point x="548" y="298"/>
      <point x="489" y="253"/>
      <point x="408" y="252" type="curve"/>
      <point x="408" y="720" type="line"/>
      <point x="320" y="720" type="line"/>
      <point x="320" y="252" type="line"/>
      <point x="240" y="253"/>
      <point x="182" y="294"/>
      <point x="162" y="375" type="curve" smooth="yes"/>
      <point x="154" y="408"/>
      <point x="154" y="440"/>
      <point x="154" y="458" type="curve" smooth="yes"/>
      <point x="154" y="720" type="line"/>
      <point x="70" y="720" type="line"/>
      <point x="70" y="425" type="line" smooth="yes"/>
      <point x="70" y="406"/>
      <point x="71" y="372"/>
      <point x="83" y="336" type="curve" smooth="yes"/>
      <point x="114" y="229"/>
      <point x="202" y="173"/>
      <point x="320" y="169" type="curve"/>
    </contour>
  </outline>
</glyph>
<glyph name="Omega" format="2">
  <advance width="732"/>
  <unicode hex="03A9"/>
  <outline>
    <contour>
      <point x="35" y="0" type="line"/>
      <point x="278" y="0" type="line"/>
      <point x="278" y="84" type="line"/>
      <point x="210" y="120"/>
      <point x="124" y="215"/>
      <point x="124" y="364" type="curve" smooth="yes"/>
      <point x="124" y="519"/>
      <point x="215" y="650"/>
      <point x="366" y="650" type="curve" smooth="yes"/>
      <point x="518" y="650"/>
      <point x="610" y="518"/>
      <point x="608" y="362" type="curve" smooth="yes"/>
      <point x="605" y="218"/>
      <point x="526" y="120"/>
      <point x="456" y="84" type="curve"/>
      <point x="456" y="0" type="line"/>
      <point x="696" y="0" type="line"/>
      <point x="696" y="84" type="line"/>
      <point x="572" y="84" type="line"/>
      <point x="652" y="150"/>
      <point x="702" y="252"/>
      <point x="702" y="378" type="curve" smooth="yes"/>
      <point x="702" y="580"/>
      <point x="573" y="734"/>
      <point x="366" y="734" type="curve" smooth="yes"/>
      <point x="159" y="734"/>
      <point x="30" y="580"/>
      <point x="30" y="378" type="curve" smooth="yes"/>
      <point x="30" y="252"/>
      <point x="80" y="150"/>
      <point x="160" y="84" type="curve"/>
      <point x="35" y="84" type="line"/>
    </contour>
  </outline>
</glyph>
<glyph name="alpha" format="2">
  <advance width="616"/>
  <unicode hex="03B1"/>
  <outline>
    <contour>
      <point x="284" y="-15" type="curve" smooth="yes"/>
      <point x="380" y="-15"/>
      <point x="452" y="37"/>
      <point x="481" y="123" type="curve"/>
      <point x="466" y="149" type="line"/>
      <point x="466" y="0" type="line"/>
      <point x="546" y="0" type="line"/>
      <point x="546" y="540" type="line"/>
      <point x="466" y="540" type="line"/>
      <point x="466" y="392" type="line"/>
      <point x="481" y="418" type="line"/>
      <point x="452" y="504"/>
      <point x="382" y="555"/>
      <point x="286" y="555" type="curve" smooth="yes"/>
      <point x="131" y="555"/>
      <point x="40" y="432"/>
      <point x="40" y="270" type="curve" smooth="yes"/>
      <point x="40" y="108"/>
      <point x="130" y="-15"/>
    </contour>
    <contour>
      <point x="294" y="66" type="curve" smooth="yes"/>
      <point x="186" y="66"/>
      <point x="134" y="156"/>
      <point x="134" y="270" type="curve" smooth="yes"/>
      <point x="134" y="390"/>
      <point x="190" y="474"/>
      <point x="296" y="474" type="curve" smooth="yes"/>
      <point x="401" y="474"/>
      <point x="451" y="390"/>
      <point x="451" y="270" type="curve" smooth="yes"/>
      <point x="451" y="152"/>
      <point x="402" y="66"/>
    </contour>
  </outline>
</glyph>
<glyph name="beta" format="2">
  <advance width="580"/>
  <unicode hex="03B2"/>
  <outline>
    <contour>
      <point x="70" y="-240" type="line"/>
      <point x="159" y="-240" type="line"/>
      <point x="159" y="30" type="line"/>
      <point x="194" y="2"/>
      <point x="244" y="-15"/>
      <point x="306" y="-15" type="curve" smooth="yes"/>
      <point x="458" y="-15"/>
      <point x="550" y="72"/>
      <point x="550" y="202" type="curve" smooth="yes"/>
      <point x="550" y="313"/>
      <point x="480" y="378"/>
      <point x="411" y="396" type="curve"/>
      <point x="464" y="421"/>
      <point x="489" y="475"/>
      <point x="489" y="539" type="curve" smooth="yes"/>
      <point x="489" y="658"/>
      <point x="402" y="735"/>
      <point x="277" y="735" type="curve" smooth="yes"/>
      <point x="184" y="735"/>
      <point x="108" y="692"/>
      <point x="81" y="611" type="curve" smooth="yes"/>
      <point x="74" y="588"/>
      <point x="70" y="564"/>
      <point x="70" y="540" type="curve" smooth="yes"/>
    </contour>
    <contour>
      <point x="310" y="70" type="curve" smooth="yes"/>
      <point x="247" y="70"/>
      <point x="185" y="98"/>
      <point x="168" y="150" type="curve" smooth="yes"/>
      <point x="162" y="168"/>
      <point x="161" y="195"/>
      <point x="161" y="214" type="curve" smooth="yes"/>
      <point x="161" y="507" type="line" smooth="yes"/>
      <point x="161" y="528"/>
      <point x="162" y="560"/>
      <point x="172" y="586" type="curve" smooth="yes"/>
      <point x="190" y="632"/>
      <point x="234" y="650"/>
      <point x="279" y="650" type="curve" smooth="yes"/>
      <point x="348" y="650"/>
      <point x="398" y="609"/>
      <point x="398" y="538" type="curve" smooth="yes"/>
      <point x="398" y="466"/>
      <point x="348" y="430"/>
      <point x="280" y="423" type="curve"/>
      <point x="280" y="343" type="line"/>
      <point x="389" y="341"/>
      <point x="460" y="295"/>
      <point x="460" y="206" type="curve" smooth="yes"/>
      <point x="460" y="124"/>
      <point x="398" y="70"/>
    </contour>
  </outline>
</glyph>
<glyph name="delta" format="2">
  <advance width="600"/>
  <unicode hex="03B4"/>
  <outline>
    <contour>
      <point x="298" y="-14" type="curve" smooth="yes"/>
      <point x="461" y="-14"/>
      <point x="560" y="93"/>
      <point x="560" y="248" type="curve" smooth="yes"/>
      <point x="560" y="402"/>
      <point x="462" y="510"/>
      <point x="300" y="510" type="curve"/>
      <point x="300" y="482" type="line"/>
      <point x="137" y="503"/>
      <point x="40" y="393"/>
      <point x="40" y="242" type="curve" smooth="yes"/>
      <point x="40" y="88"/>
      <point x="139" y="-14"/>
    </contour>
    <contour>
      <point x="300" y="70" type="curve" smooth="yes"/>
      <point x="196" y="70"/>
      <point x="141" y="138"/>
      <point x="141" y="248" type="curve" smooth="yes"/>
      <point x="141" y="356"/>
      <point x="194" y="426"/>
      <point x="300" y="426" type="curve" smooth="yes"/>
      <point x="406" y="426"/>
      <point x="460" y="358"/>
      <point x="460" y="250" type="curve" smooth="yes"/>
      <point x="460" y="141"/>
      <point x="406" y="70"/>
    </contour>
    <contour>
      <point x="373" y="432" type="curve"/>
      <point x="406" y="492" type="line"/>
      <point x="296" y="532"/>
      <point x="206" y="551"/>
      <point x="206" y="606" type="curve" smooth="yes"/>
      <point x="206" y="634"/>
      <point x="226" y="650"/>
      <point x="254" y="656" type="curve" smooth="yes"/>
      <point x="268" y="660"/>
      <point x="285" y="661"/>
      <point x="306" y="661" type="curve" smooth="yes"/>
      <point x="464" y="661" type="line"/>
      <point x="464" y="735" type="line"/>
      <point x="286" y="735" type="line" smooth="yes"/>
      <point x="263" y="735"/>
      <point x="244" y="735"/>
      <point x="224" y="731" type="curve" smooth="yes"/>
      <point x="146" y="718"/>
      <point x="118" y="662"/>
      <point x="118" y="610" type="curve" smooth="yes"/>
      <point x="118" y="486"/>
      <point x="276" y="460"/>
    </contour>
  </outline>
</glyph>
<glyph name="zeta" format="2">
  <advance width="512"/>
  <unicode hex="03B6"/>
  <outline>
    <contour>
      <point x="418" y="-120" type="curve"/>
      <point x="498" y="-120" type="line"/>
      <point x="514" y="-6"/>
      <point x="472" y="54"/>
      <point x="404" y="74" type="curve" smooth="yes"/>
      <point x="374" y="82"/>
      <point x="333" y="83"/>
      <point x="312" y="84" type="curve" smooth="yes"/>
      <point x="202" y="85"/>
      <point x="134" y="101"/>
      <point x="134" y="196" type="curve" smooth="yes"/>
      <point x="134" y="260"/>
      <point x="165" y="320"/>
      <point x="272" y="426" type="curve" smooth="yes"/>
      <point x="392" y="540"/>
      <point x="445" y="594"/>
      <point x="502" y="650" type="curve"/>
      <point x="502" y="720" type="line"/>
      <point x="70" y="720" type="line"/>
      <point x="70" y="639" type="line"/>
      <point x="366" y="639" type="line"/>
      <point x="291" y="567"/>
      <point x="227" y="503"/>
      <point x="185" y="460" type="curve" smooth="yes"/>
      <point x="66" y="336"/>
      <point x="40" y="266"/>
      <point x="40" y="188" type="curve" smooth="yes"/>
      <point x="40" y="34"/>
      <point x="142" y="6"/>
      <point x="267" y="0" type="curve" smooth="yes"/>
      <point x="366" y="-4"/>
      <point x="422" y="-4"/>
    </contour>
  </outline>
</glyph>
<glyph name="theta" format="2">
  <advance width="647"/>
  <unicode hex="03B8"/>
  <outline>
    <contour>
      <point x="100" y="324" type="line"/>
      <point x="551" y="324" type="line"/>
      <point x="551" y="396" type="line"/>
      <point x="100" y="396" type="line"/>
    </contour>
    <component base="Oval-condensed"/>
  </outline>
</glyph>
<glyph name="iota" format="2">
  <advance width="372"/>
  <unicode hex="03B9"/>
  <outline>
    <contour>
      <point x="206" y="-4" type="curve" smooth="yes"/>
      <point x="240" y="-10"/>
      <point x="295" y="-10"/>
      <point x="332" y="0" type="curve"/>
      <point x="332" y="76" type="line"/>
      <point x="304" y="72"/>
      <point x="271" y="70"/>
      <point x="243" y="72" type="curve" smooth="yes"/>
      <point x="216" y="76"/>
      <point x="194" y="86"/>
      <point x="180" y="110" type="curve" smooth="yes"/>
      <point x="166" y="135"/>
      <point x="169" y="162"/>
      <point x="169" y="208" type="curve" smooth="yes"/>
      <point x="169" y="540" type="line"/>
      <point x="80" y="540" type="line"/>
      <point x="80" y="204" type="line" smooth="yes"/>
      <point x="80" y="144"/>
      <point x="76" y="104"/>
      <point x="100" y="64" type="curve" smooth="yes"/>
      <point x="124" y="19"/>
      <point x="163" y="2"/>
    </contour>
  </outline>
</glyph>
<glyph name="lambda" format="2">
  <advance width="523"/>
  <unicode hex="03BB"/>
  <outline>
    <contour>
      <point x="20" y="0" type="line"/>
      <point x="110" y="0" type="line"/>
      <point x="262" y="426" type="line"/>
      <point x="412" y="0" type="line"/>
      <point x="503" y="0" type="line"/>
      <point x="307" y="540" type="line" smooth="yes"/>
      <point x="276" y="628"/>
      <point x="248" y="711"/>
      <point x="168" y="729" type="curve" smooth="yes"/>
      <point x="144" y="734"/>
      <point x="114" y="735"/>
      <point x="101" y="735" type="curve" smooth="yes"/>
      <point x="66" y="735" type="line"/>
      <point x="66" y="656" type="line"/>
      <point x="92" y="656" type="line" smooth="yes"/>
      <point x="167" y="656"/>
      <point x="185" y="620"/>
      <point x="216" y="540" type="curve"/>
    </contour>
  </outline>
</glyph>
<glyph name="mu" format="2">
  <advance width="614"/>
  <unicode hex="03BC"/>
  <outline>
    <contour>
      <point x="70" y="-240" type="line"/>
      <point x="150" y="-240" type="line"/>
      <point x="150" y="42" type="line"/>
      <point x="180" y="6"/>
      <point x="226" y="-14"/>
      <point x="285" y="-14" type="curve" smooth="yes"/>
      <point x="362" y="-14"/>
      <point x="426" y="15"/>
      <point x="465" y="72" type="curve"/>
      <point x="465" y="0" type="line"/>
      <point x="544" y="0" type="line"/>
      <point x="544" y="540" type="line"/>
      <point x="455" y="540" type="line"/>
      <point x="455" y="256" type="line" smooth="yes"/>
      <point x="455" y="130"/>
      <point x="396" y="70"/>
      <point x="306" y="70" type="curve" smooth="yes"/>
      <point x="192" y="70"/>
      <point x="160" y="168"/>
      <point x="160" y="270" type="curve" smooth="yes"/>
      <point x="160" y="540" type="line"/>
      <point x="70" y="540" type="line"/>
    </contour>
  </outline>
</glyph>
<glyph name="xi" format="2">
  <advance width="570"/>
  <unicode hex="03BE"/>
  <outline>
    <contour>
      <point x="473" y="-120" type="curve"/>
      <point x="552" y="-120" type="line"/>
      <point x="574" y="-4"/>
      <point x="522" y="55"/>
      <point x="454" y="74" type="curve" smooth="yes"/>
      <point x="421" y="82"/>
      <point x="376" y="83"/>
      <point x="348" y="84" type="curve" smooth="yes"/>
      <point x="216" y="84"/>
      <point x="134" y="119"/>
      <point x="134" y="219" type="curve" smooth="yes"/>
      <point x="134" y="310"/>
      <point x="201" y="334"/>
      <point x="300" y="338" type="curve" smooth="yes"/>
      <point x="372" y="341"/>
      <point x="373" y="341"/>
      <point x="382" y="341" type="curve"/>
      <point x="382" y="426" type="line"/>
      <point x="373" y="426"/>
      <point x="327" y="426"/>
      <point x="307" y="427" type="curve" smooth="yes"/>
      <point x="218" y="431"/>
      <point x="161" y="470"/>
      <point x="161" y="542" type="curve" smooth="yes"/>
      <point x="161" y="616"/>
      <point x="220" y="650"/>
      <point x="302" y="650" type="curve" smooth="yes"/>
      <point x="389" y="650"/>
      <point x="442" y="610"/>
      <point x="478" y="548" type="curve"/>
      <point x="546" y="607" type="line"/>
      <point x="498" y="682"/>
      <point x="416" y="735"/>
      <point x="302" y="735" type="curve" smooth="yes"/>
      <point x="181" y="735"/>
      <point x="66" y="678"/>
      <point x="66" y="544" type="curve" smooth="yes"/>
      <point x="66" y="472"/>
      <point x="100" y="417"/>
      <point x="152" y="384" type="curve"/>
      <point x="78" y="360"/>
      <point x="40" y="298"/>
      <point x="40" y="212" type="curve" smooth="yes"/>
      <point x="40" y="86"/>
      <point x="118" y="6"/>
      <point x="317" y="0" type="curve" smooth="yes"/>
      <point x="432" y="-4"/>
      <point x="482" y="-6"/>
    </contour>
  </outline>
</glyph>
<glyph name="pi" format="2">
  <advance width="661"/>
  <unicode hex="03C0"/>
  <outline>
    <contour>
      <point x="130" y="0" type="line"/>
      <point x="219" y="0" type="line"/>
      <point x="219" y="459" type="line"/>
      <point x="442" y="459" type="line"/>
      <point x="442" y="0" type="line"/>
      <point x="531" y="0" type="line"/>
      <point x="531" y="459" type="line"/>
      <point x="631" y="459" type="line"/>
      <point x="631" y="540" type="line"/>
      <point x="30" y="540" type="line"/>
      <point x="30" y="459" type="line"/>
      <point x="130" y="459" type="line"/>
    </contour>
  </outline>
</glyph>
<glyph name="rho" format="2">
  <advance width="610"/>
  <unicode hex="03C1"/>
  <outline>
    <contour>
      <point x="70" y="-240" type="line"/>
      <point x="160" y="-240" type="line"/>
      <point x="160" y="64" type="line"/>
      <point x="194" y="16"/>
      <point x="254" y="-15"/>
      <point x="328" y="-15" type="curve" smooth="yes"/>
      <point x="480" y="-15"/>
      <point x="570" y="108"/>
      <point x="570" y="272" type="curve" smooth="yes"/>
      <point x="570" y="432"/>
      <point x="482" y="555"/>
      <point x="320" y="555" type="curve" smooth="yes"/>
      <point x="178" y="555"/>
      <point x="91" y="461"/>
      <point x="74" y="328" type="curve" smooth="yes"/>
      <point x="70" y="302"/>
      <point x="70" y="272"/>
      <point x="70" y="236" type="curve" smooth="yes"/>
    </contour>
    <contour>
      <point x="318" y="66" type="curve" smooth="yes"/>
      <point x="210" y="66"/>
      <point x="159" y="150"/>
      <point x="159" y="271" type="curve" smooth="yes"/>
      <point x="159" y="390"/>
      <point x="209" y="474"/>
      <point x="318" y="474" type="curve" smooth="yes"/>
      <point x="427" y="474"/>
      <point x="480" y="390"/>
      <point x="480" y="271" type="curve" smooth="yes"/>
      <point x="480" y="152"/>
      <point x="426" y="66"/>
    </contour>
  </outline>
</glyph>
<glyph name="sigmafinal" format="2">
  <advance width="561"/>
  <unicode hex="03C2"/>
  <outline>
    <contour>
      <point x="428" y="-120" type="curve"/>
      <point x="508" y="-120" type="line"/>
      <point x="524" y="-10"/>
      <point x="484" y="54"/>
      <point x="414" y="74" type="curve" smooth="yes"/>
      <point x="378" y="84"/>
      <point x="324" y="84"/>
      <point x="300" y="84" type="curve" smooth="yes"/>
      <point x="162" y="84"/>
      <point x="139" y="186"/>
      <point x="140" y="268" type="curve" smooth="yes"/>
      <point x="140" y="384"/>
      <point x="188" y="470"/>
      <point x="294" y="470" type="curve" smooth="yes"/>
      <point x="364" y="470"/>
      <point x="417" y="434"/>
      <point x="440" y="372" type="curve"/>
      <point x="528" y="398" type="line"/>
      <point x="499" y="496"/>
      <point x="412" y="555"/>
      <point x="296" y="555" type="curve" smooth="yes"/>
      <point x="136" y="555"/>
      <point x="40" y="444"/>
      <point x="40" y="258" type="curve" smooth="yes"/>
      <point x="40" y="128"/>
      <point x="102" y="6"/>
      <point x="272" y="0" type="curve" smooth="yes"/>
      <point x="378" y="-4"/>
      <point x="433" y="-4"/>
    </contour>
  </outline>
</glyph>
<glyph name="sigma" format="2">
  <advance width="610"/>
  <unicode hex="03C3"/>
  <outline>
    <contour>
      <point x="300" y="-15" type="curve" smooth="yes"/>
      <point x="457" y="-15"/>
      <point x="560" y="104"/>
      <point x="560" y="263" type="curve" smooth="yes"/>
      <point x="560" y="360"/>
      <point x="521" y="441"/>
      <point x="462" y="484" type="curve"/>
      <point x="436" y="459" type="line"/>
      <point x="590" y="459" type="line"/>
      <point x="590" y="540" type="line"/>
      <point x="360" y="540" type="line" smooth="yes"/>
      <point x="314" y="540"/>
      <point x="274" y="540"/>
      <point x="243" y="534" type="curve" smooth="yes"/>
      <point x="118" y="510"/>
      <point x="40" y="404"/>
      <point x="40" y="263" type="curve" smooth="yes"/>
      <point x="40" y="104"/>
      <point x="142" y="-15"/>
    </contour>
    <contour>
      <point x="300" y="70" type="curve" smooth="yes"/>
      <point x="194" y="70"/>
      <point x="134" y="147"/>
      <point x="134" y="263" type="curve" smooth="yes"/>
      <point x="134" y="371"/>
      <point x="188" y="456"/>
      <point x="300" y="456" type="curve" smooth="yes"/>
      <point x="409" y="455"/>
      <point x="466" y="374"/>
      <point x="466" y="263" type="curve" smooth="yes"/>
      <point x="466" y="150"/>
      <point x="410" y="70"/>
    </contour>
  </outline>
</glyph>
<glyph name="tau" format="2">
  <advance width="560"/>
  <unicode hex="03C4"/>
  <outline>
    <contour>
      <point x="338" y="-4" type="curve" smooth="yes"/>
      <point x="373" y="-10"/>
      <point x="428" y="-10"/>
      <point x="465" y="0" type="curve"/>
      <point x="465" y="76" type="line"/>
      <point x="437" y="72"/>
      <point x="404" y="70"/>
      <point x="376" y="72" type="curve" smooth="yes"/>
      <point x="350" y="76"/>
      <point x="327" y="86"/>
      <point x="313" y="110" type="curve" smooth="yes"/>
      <point x="300" y="135"/>
      <point x="302" y="162"/>
      <point x="302" y="208" type="curve" smooth="yes"/>
      <point x="302" y="459" type="line"/>
      <point x="490" y="459" type="line"/>
      <point x="490" y="540" type="line"/>
      <point x="25" y="540" type="line"/>
      <point x="25" y="459" type="line"/>
      <point x="213" y="459" type="line"/>
      <point x="213" y="204" type="line" smooth="yes"/>
      <point x="213" y="144"/>
      <point x="210" y="104"/>
      <point x="232" y="64" type="curve" smooth="yes"/>
      <point x="258" y="19"/>
      <point x="296" y="2"/>
    </contour>
  </outline>
</glyph>
<glyph name="upsilon" format="2">
  <advance width="593"/>
  <unicode hex="03C5"/>
  <outline>
    <contour>
      <point x="60" y="246" type="line" smooth="yes"/>
      <point x="60" y="122"/>
      <point x="102" y="-14"/>
      <point x="296" y="-14" type="curve" smooth="yes"/>
      <point x="490" y="-14"/>
      <point x="533" y="122"/>
      <point x="533" y="246" type="curve" smooth="yes"/>
      <point x="533" y="540" type="line"/>
      <point x="443" y="540" type="line"/>
      <point x="443" y="270" type="line" smooth="yes"/>
      <point x="443" y="168"/>
      <point x="410" y="70"/>
      <point x="296" y="70" type="curve" smooth="yes"/>
      <point x="182" y="70"/>
      <point x="150" y="168"/>
      <point x="150" y="270" type="curve" smooth="yes"/>
      <point x="150" y="540" type="line"/>
      <point x="60" y="540" type="line"/>
    </contour>
  </outline>
</glyph>
<glyph name="psi" format="2">
  <advance width="668"/>
  <unicode hex="03C8"/>
  <outline>
    <contour>
      <point x="291" y="-225" type="line"/>
      <point x="377" y="-225" type="line"/>
      <point x="377" y="-22" type="line"/>
      <point x="494" y="-18"/>
      <point x="584" y="41"/>
      <point x="615" y="146" type="curve" smooth="yes"/>
      <point x="627" y="182"/>
      <point x="628" y="212"/>
      <point x="628" y="234" type="curve" smooth="yes"/>
      <point x="628" y="540" type="line"/>
      <point x="544" y="540" type="line"/>
      <point x="544" y="266" type="line" smooth="yes"/>
      <point x="544" y="252"/>
      <point x="544" y="218"/>
      <point x="536" y="188" type="curve" smooth="yes"/>
      <point x="518" y="107"/>
      <point x="453" y="62"/>
      <point x="377" y="61" type="curve"/>
      <point x="377" y="540" type="line"/>
      <point x="291" y="540" type="line"/>
      <point x="291" y="61" type="line"/>
      <point x="216" y="62"/>
      <point x="152" y="103"/>
      <point x="132" y="184" type="curve" smooth="yes"/>
      <point x="124" y="216"/>
      <point x="124" y="250"/>
      <point x="124" y="266" type="curve" smooth="yes"/>
      <point x="124" y="540" type="line"/>
      <point x="40" y="540" type="line"/>
      <point x="40" y="234" type="line" smooth="yes"/>
      <point x="40" y="215"/>
      <point x="41" y="180"/>
      <point x="53" y="145" type="curve" smooth="yes"/>
      <point x="84" y="38"/>
      <point x="176" y="-18"/>
      <point x="291" y="-22" type="curve"/>
    </contour>
  </outline>
</glyph>
<glyph name="omega" format="2">
  <advance width="784"/>
  <unicode hex="03C9"/>
  <outline>
    <contour>
      <point x="246" y="-16" type="curve" smooth="yes"/>
      <point x="317" y="-16"/>
      <point x="380" y="18"/>
      <point x="400" y="105" type="curve"/>
      <point x="383" y="105" type="line"/>
      <point x="403" y="18"/>
      <point x="466" y="-16"/>
      <point x="538" y="-16" type="curve" smooth="yes"/>
      <point x="672" y="-16"/>
      <point x="744" y="96"/>
      <point x="744" y="246" type="curve" smooth="yes"/>
      <point x="744" y="380"/>
      <point x="690" y="490"/>
      <point x="576" y="555" type="curve"/>
      <point x="518" y="482" type="line"/>
      <point x="609" y="424"/>
      <point x="649" y="358"/>
      <point x="649" y="252" type="curve" smooth="yes"/>
      <point x="649" y="151"/>
      <point x="610" y="70"/>
      <point x="528" y="70" type="curve" smooth="yes"/>
      <point x="443" y="70"/>
      <point x="434" y="152"/>
      <point x="434" y="252" type="curve" smooth="yes"/>
      <point x="434" y="343" type="line"/>
      <point x="350" y="343" type="line"/>
      <point x="350" y="252" type="line" smooth="yes"/>
      <point x="350" y="152"/>
      <point x="340" y="70"/>
      <point x="256" y="70" type="curve" smooth="yes"/>
      <point x="175" y="70"/>
      <point x="134" y="148"/>
      <point x="134" y="252" type="curve" smooth="yes"/>
      <point x="134" y="356"/>
      <point x="172" y="423"/>
      <point x="266" y="482" type="curve"/>
      <point x="208" y="555" type="line"/>
      <point x="95" y="490"/>
      <point x="40" y="383"/>
      <point x="40" y="247" type="curve" smooth="yes"/>
      <point x="40" y="98"/>
      <point x="109" y="-16"/>
    </contour>
  </outline>
</glyph>
<glyph name="Dje-cy" format="2">
  <advance width="656"/>
  <unicode hex="0402"/>
  <outline>
    <contour>
      <point x="75" y="0" type="line"/>
      <point x="164" y="0" type="line"/>
      <point x="164" y="248" type="line" smooth="yes"/>
      <point x="164" y="284"/>
      <point x="166" y="326"/>
      <point x="176" y="360" type="curve" smooth="yes"/>
      <point x="197" y="432"/>
      <point x="256" y="468"/>
      <point x="348" y="468" type="curve" smooth="yes"/>
      <point x="459" y="468"/>
      <point x="526" y="416"/>
      <point x="526" y="284" type="curve" smooth="yes"/>
      <point x="526" y="167"/>
      <point x="474" y="90"/>
      <point x="358" y="90" type="curve"/>
      <point x="358" y="0" type="line"/>
      <point x="535" y="0"/>
      <point x="616" y="112"/>
      <point x="616" y="282" type="curve" smooth="yes"/>
      <point x="616" y="463"/>
      <point x="523" y="555"/>
      <point x="358" y="555" type="curve" smooth="yes"/>
      <point x="270" y="555"/>
      <point x="198" y="528"/>
      <point x="154" y="472" type="curve"/>
      <point x="154" y="639" type="line"/>
      <point x="315" y="639" type="line"/>
      <point x="315" y="720" type="line"/>
      <point x="0" y="720" type="line"/>
      <point x="0" y="639" type="line"/>
      <point x="75" y="639" type="line"/>
    </contour>
  </outline>
</glyph>
<glyph name="Tshe-cy" format="2">
  <advance width="656"/>
  <unicode hex="040B"/>
  <outline>
    <contour>
      <point x="0" y="639" type="line"/>
      <point x="315" y="639" type="line"/>
      <point x="315" y="720" type="line"/>
      <point x="0" y="720" type="line"/>
    </contour>
    <component base="Shha-cy"/>
  </outline>
</glyph>
<glyph name="Kje-cy" format="2">
  <advance width="612"/>
  <unicode hex="040C"/>
  <outline>
    <contour>
      <point x="70" y="0" type="line"/>
      <point x="159" y="0" type="line"/>
      <point x="159" y="352" type="line"/>
      <point x="496" y="0" type="line"/>
      <point x="612" y="0" type="line"/>
      <point x="259" y="370" type="line"/>
      <point x="586" y="720" type="line"/>
      <point x="474" y="720" type="line"/>
      <point x="159" y="382" type="line"/>
      <point x="159" y="720" type="line"/>
      <point x="70" y="720" type="line"/>
    </contour>
    <component base="acutecomb" xOffset="80"/>
  </outline>
</glyph>
<glyph name="Be-cy" format="2">
  <advance width="616"/>
  <unicode hex="0411"/>
  <outline>
    <contour>
      <point x="70" y="0" type="line"/>
      <point x="354" y="0" type="line" smooth="yes"/>
      <point x="368" y="0"/>
      <point x="389" y="1"/>
      <point x="408" y="4" type="curve" smooth="yes"/>
      <point x="522" y="18"/>
      <point x="586" y="110"/>
      <point x="586" y="222" type="curve" smooth="yes"/>
      <point x="586" y="334"/>
      <point x="522" y="426"/>
      <point x="408" y="440" type="curve" smooth="yes"/>
      <point x="389" y="443"/>
      <point x="368" y="444"/>
      <point x="354" y="444" type="curve" smooth="yes"/>
      <point x="159" y="444" type="line"/>
      <point x="159" y="636" type="line"/>
      <point x="527" y="636" type="line"/>
      <point x="527" y="720" type="line"/>
      <point x="70" y="720" type="line"/>
    </contour>
    <contour>
      <point x="159" y="84" type="line"/>
      <point x="159" y="360" type="line"/>
      <point x="352" y="360" type="line" smooth="yes"/>
      <point x="364" y="360"/>
      <point x="382" y="358"/>
      <point x="396" y="356" type="curve" smooth="yes"/>
      <point x="466" y="342"/>
      <point x="494" y="282"/>
      <point x="494" y="222" type="curve" smooth="yes"/>
      <point x="494" y="162"/>
      <point x="466" y="102"/>
      <point x="396" y="88" type="curve" smooth="yes"/>
      <point x="382" y="86"/>
      <point x="364" y="84"/>
      <point x="352" y="84" type="curve" smooth="yes"/>
    </contour>
  </outline>
</glyph>
<glyph name="De-cy" format="2">
  <advance width="742"/>
  <unicode hex="0414"/>
  <outline>
    <contour>
      <point x="35" y="-120" type="line"/>
      <point x="124" y="-120" type="line"/>
      <point x="124" y="0" type="line"/>
      <point x="614" y="0" type="line"/>
      <point x="614" y="-120" type="line"/>
      <point x="702" y="-120" type="line"/>
      <point x="702" y="84" type="line"/>
      <point x="650" y="84" type="line"/>
      <point x="650" y="720" type="line"/>
      <point x="198" y="720" type="line"/>
      <point x="188" y="566"/>
      <point x="184" y="454"/>
      <point x="171" y="325" type="curve" smooth="yes"/>
      <point x="158" y="202"/>
      <point x="140" y="84"/>
      <point x="35" y="84" type="curve"/>
    </contour>
    <contour>
      <point x="191" y="84" type="line"/>
      <point x="236" y="130"/>
      <point x="246" y="190"/>
      <point x="258" y="303" type="curve" smooth="yes"/>
      <point x="270" y="424"/>
      <point x="274" y="520"/>
      <point x="280" y="636" type="curve"/>
      <point x="561" y="636" type="line"/>
      <point x="561" y="84" type="line"/>
    </contour>
  </outline>
</glyph>
<glyph name="Zhe-cy" format="2">
  <advance width="899"/>
  <unicode hex="0416"/>
  <outline>
    <contour>
      <point x="10" y="0" type="line"/>
      <point x="122" y="0" type="line"/>
      <point x="405" y="347" type="line"/>
      <point x="405" y="0" type="line"/>
      <point x="494" y="0" type="line"/>
      <point x="494" y="347" type="line"/>
      <point x="776" y="0" type="line"/>
      <point x="889" y="0" type="line"/>
      <point x="586" y="370" type="line"/>
      <point x="864" y="720" type="line"/>
      <point x="754" y="720" type="line"/>
      <point x="494" y="387" type="line"/>
      <point x="494" y="720" type="line"/>
      <point x="405" y="720" type="line"/>
      <point x="405" y="387" type="line"/>
      <point x="145" y="720" type="line"/>
      <point x="36" y="720" type="line"/>
      <point x="313" y="370" type="line"/>
    </contour>
  </outline>
</glyph>
<glyph name="Ze-cy" format="2">
  <advance width="614"/>
  <unicode hex="0417"/>
  <outline>
    <contour>
      <point x="308" y="-15" type="curve" smooth="yes"/>
      <point x="468" y="-15"/>
      <point x="579" y="71"/>
      <point x="579" y="206" type="curve" smooth="yes"/>
      <point x="579" y="292"/>
      <point x="537" y="346"/>
      <point x="468" y="369" type="curve"/>
      <point x="518" y="400"/>
      <point x="552" y="460"/>
      <point x="552" y="534" type="curve" smooth="yes"/>
      <point x="552" y="670"/>
      <point x="438" y="735"/>
      <point x="316" y="735" type="curve" smooth="yes"/>
      <point x="204" y="735"/>
      <point x="119" y="681"/>
      <point x="72" y="607" type="curve"/>
      <point x="141" y="548" type="line"/>
      <point x="174" y="608"/>
      <point x="232" y="650"/>
      <point x="313" y="650" type="curve" smooth="yes"/>
      <point x="399" y="650"/>
      <point x="458" y="606"/>
      <point x="458" y="532" type="curve" smooth="yes"/>
      <point x="458" y="459"/>
      <point x="401" y="416"/>
      <point x="312" y="412" type="curve" smooth="yes"/>
      <point x="292" y="412"/>
      <point x="246" y="412"/>
      <point x="237" y="412" type="curve"/>
      <point x="237" y="326" type="line"/>
      <point x="246" y="326"/>
      <point x="247" y="326"/>
      <point x="318" y="324" type="curve" smooth="yes"/>
      <point x="409" y="321"/>
      <point x="484" y="298"/>
      <point x="484" y="207" type="curve" smooth="yes"/>
      <point x="484" y="127"/>
      <point x="426" y="70"/>
      <point x="312" y="70" type="curve" smooth="yes"/>
      <point x="200" y="70"/>
      <point x="138" y="125"/>
      <point x="114" y="188" type="curve"/>
      <point x="35" y="140" type="line"/>
      <point x="72" y="58"/>
      <point x="160" y="-15"/>
    </contour>
  </outline>
</glyph>
<glyph name="Iishort-cy" format="2">
  <advance width="696"/>
  <unicode hex="0419"/>
  <outline>
    <contour>
      <point x="70" y="0" type="line"/>
      <point x="160" y="0" type="line"/>
      <point x="536" y="563" type="line"/>
      <point x="536" y="0" type="line"/>
      <point x="626" y="0" type="line"/>
      <point x="626" y="720" type="line"/>
      <point x="536" y="720" type="line"/>
      <point x="160" y="158" type="line"/>
      <point x="160" y="720" type="line"/>
      <point x="70" y="720" type="line"/>
    </contour>
    <component base="brevecomb" xOffset="95"/>
  </outline>
</glyph>
<glyph name="El-cy" format="2">
  <advance width="707"/>
  <unicode hex="041B"/>
  <outline>
    <contour>
      <point x="20" y="0" type="line"/>
      <point x="160" y="-34"/>
      <point x="192" y="62"/>
      <point x="214" y="194" type="curve" smooth="yes"/>
      <point x="242" y="358"/>
      <point x="250" y="513"/>
      <point x="258" y="636" type="curve"/>
      <point x="548" y="636" type="line"/>
      <point x="548" y="0" type="line"/>
      <point x="637" y="0" type="line"/>
      <point x="637" y="720" type="line"/>
      <point x="174" y="720" type="line"/>
      <point x="166" y="562"/>
      <point x="156" y="392"/>
      <point x="129" y="232" type="curve" smooth="yes"/>
      <point x="107" y="96"/>
      <point x="90" y="71"/>
      <point x="20" y="78" type="curve"/>
    </contour>
  </outline>
</glyph>
<glyph name="U-cy" format="2">
  <advance width="628"/>
  <unicode hex="0423"/>
  <outline>
    <contour>
      <point x="182" y="0" type="line"/>
      <point x="279" y="0" type="line"/>
      <point x="615" y="720" type="line"/>
      <point x="520" y="720" type="line"/>
      <point x="315" y="274" type="line"/>
      <point x="114" y="720" type="line"/>
      <point x="15" y="720" type="line"/>
      <point x="268" y="178" type="line"/>
    </contour>
  </outline>
</glyph>
<glyph name="Ef-cy" format="2">
  <advance width="720"/>
  <unicode hex="0424"/>
  <outline>
    <contour>
      <point x="316" y="0" type="line"/>
      <point x="404" y="0" type="line"/>
      <point x="404" y="98" type="line"/>
      <point x="552" y="73"/>
      <point x="690" y="176"/>
      <point x="690" y="382" type="curve" smooth="yes"/>
      <point x="690" y="586"/>
      <point x="552" y="692"/>
      <point x="404" y="668" type="curve"/>
      <point x="404" y="720" type="line"/>
      <point x="316" y="720" type="line"/>
      <point x="316" y="668" type="line"/>
      <point x="168" y="692"/>
      <point x="30" y="586"/>
      <point x="30" y="382" type="curve" smooth="yes"/>
      <point x="30" y="176"/>
      <point x="168" y="73"/>
      <point x="316" y="98" type="curve"/>
    </contour>
    <contour>
      <point x="316" y="182" type="line"/>
      <point x="192" y="164"/>
      <point x="122" y="256"/>
      <point x="122" y="382" type="curve" smooth="yes"/>
      <point x="122" y="506"/>
      <point x="192" y="604"/>
      <point x="316" y="586" type="curve"/>
    </contour>
    <contour>
      <point x="404" y="182" type="curve"/>
      <point x="404" y="586" type="line"/>
      <point x="528" y="604"/>
      <point x="598" y="502"/>
      <point x="598" y="380" type="curve" smooth="yes"/>
      <point x="598" y="257"/>
      <point x="528" y="164"/>
    </contour>
  </outline>
</glyph>
<glyph name="Tse-cy" format="2">
  <advance width="728"/>
  <unicode hex="0426"/>
  <outline>
    <contour>
      <point x="628" y="-100" type="line"/>
      <point x="718" y="-100" type="line"/>
      <point x="718" y="81" type="line"/>
      <point x="640" y="81" type="line"/>
      <point x="640" y="710" type="line"/>
      <point x="551" y="710" type="line"/>
      <point x="551" y="81" type="line"/>
      <point x="159" y="81" type="line"/>
      <point x="159" y="720" type="line"/>
      <point x="70" y="720" type="line"/>
      <point x="70" y="0" type="line"/>
      <point x="628" y="0" type="line"/>
    </contour>
  </outline>
</glyph>
<glyph name="Che-cy" format="2">
  <advance width="656"/>
  <unicode hex="0427"/>
  <outline>
    <contour>
      <point x="497" y="0" type="line"/>
      <point x="586" y="0" type="line"/>
      <point x="586" y="720" type="line"/>
      <point x="497" y="720" type="line"/>
      <point x="497" y="336" type="line"/>
      <point x="512" y="396" type="line"/>
      <point x="484" y="364"/>
      <point x="422" y="332"/>
      <point x="336" y="332" type="curve" smooth="yes"/>
      <point x="194" y="332"/>
      <point x="160" y="426"/>
      <point x="160" y="548" type="curve" smooth="yes"/>
      <point x="160" y="720" type="line"/>
      <point x="70" y="720" type="line"/>
      <point x="70" y="518" type="line" smooth="yes"/>
      <point x="70" y="360"/>
      <point x="138" y="246"/>
      <point x="323" y="246" type="curve" smooth="yes"/>
      <point x="404" y="246"/>
      <point x="474" y="268"/>
      <point x="517" y="300" type="curve"/>
      <point x="497" y="332" type="line"/>
    </contour>
  </outline>
</glyph>
<glyph name="Sha-cy" format="2">
  <advance width="920"/>
  <unicode hex="0428"/>
  <outline>
    <contour>
      <point x="70" y="0" type="line"/>
      <point x="850" y="0" type="line"/>
      <point x="850" y="720" type="line"/>
      <point x="761" y="720" type="line"/>
      <point x="761" y="84" type="line"/>
      <point x="504" y="84" type="line"/>
      <point x="504" y="720" type="line"/>
      <point x="416" y="720" type="line"/>
      <point x="416" y="84" type="line"/>
      <point x="159" y="84" type="line"/>
      <point x="159" y="720" type="line"/>
      <point x="70" y="720" type="line"/>
    </contour>
  </outline>
</glyph>
<glyph name="Shcha-cy" format="2">
  <advance width="938"/>
  <unicode hex="0429"/>
  <outline>
    <contour>
      <point x="838" y="-100" type="line"/>
      <point x="928" y="-100" type="line"/>
      <point x="928" y="81" type="line"/>
      <point x="768" y="81" type="line"/>
      <point x="768" y="0" type="line"/>
      <point x="838" y="0" type="line"/>
    </contour>
    <component base="Sha-cy"/>
  </outline>
</glyph>
<glyph name="Hardsign-cy" format="2">
  <advance width="632"/>
  <unicode hex="042A"/>
  <outline>
    <contour>
      <point x="90" y="0" type="line"/>
      <point x="374" y="0" type="line" smooth="yes"/>
      <point x="388" y="0"/>
      <point x="409" y="1"/>
      <point x="428" y="4" type="curve" smooth="yes"/>
      <point x="544" y="22"/>
      <point x="606" y="112"/>
      <point x="606" y="227" type="curve" smooth="yes"/>
      <point x="606" y="342"/>
      <point x="544" y="432"/>
      <point x="428" y="450" type="curve" smooth="yes"/>
      <point x="409" y="453"/>
      <point x="388" y="454"/>
      <point x="374" y="454" type="curve" smooth="yes"/>
      <point x="179" y="454" type="line"/>
      <point x="179" y="720" type="line"/>
      <point x="-5" y="720" type="line"/>
      <point x="-5" y="646" type="line"/>
      <point x="90" y="646" type="line"/>
    </contour>
    <contour>
      <point x="179" y="84" type="line"/>
      <point x="179" y="370" type="line"/>
      <point x="372" y="370" type="line" smooth="yes"/>
      <point x="384" y="370"/>
      <point x="402" y="368"/>
      <point x="416" y="365" type="curve" smooth="yes"/>
      <point x="486" y="350"/>
      <point x="514" y="287"/>
      <point x="514" y="227" type="curve" smooth="yes"/>
      <point x="514" y="167"/>
      <point x="486" y="104"/>
      <point x="416" y="89" type="curve" smooth="yes"/>
      <point x="402" y="86"/>
      <point x="384" y="84"/>
      <point x="372" y="84" type="curve" smooth="yes"/>
    </contour>
  </outline>
</glyph>
<glyph name="Softsign-cy" format="2">
  <advance width="626"/>
  <unicode hex="042C"/>
  <outline>
    <contour>
      <point x="70" y="0" type="line"/>
      <point x="354" y="0" type="line" smooth="yes"/>
      <point x="368" y="0"/>
      <point x="389" y="1"/>
      <point x="408" y="4" type="curve" smooth="yes"/>
      <point x="524" y="22"/>
      <point x="586" y="112"/>
      <point x="586" y="227" type="curve" smooth="yes"/>
      <point x="586" y="342"/>
      <point x="524" y="432"/>
      <point x="408" y="450" type="curve" smooth="yes"/>
      <point x="389" y="453"/>
      <point x="368" y="454"/>
      <point x="354" y="454" type="curve" smooth="yes"/>
      <point x="159" y="454" type="line"/>
      <point x="159" y="720" type="line"/>
      <point x="70" y="720" type="line"/>
    </contour>
    <contour>
      <point x="159" y="84" type="line"/>
      <point x="159" y="370" type="line"/>
      <point x="352" y="370" type="line" smooth="yes"/>
      <point x="364" y="370"/>
      <point x="382" y="368"/>
      <point x="396" y="365" type="curve" smooth="yes"/>
      <point x="466" y="350"/>
      <point x="494" y="287"/>
      <point x="494" y="227" type="curve" smooth="yes"/>
      <point x="494" y="167"/>
      <point x="466" y="104"/>
      <point x="396" y="89" type="curve" smooth="yes"/>
      <point x="382" y="86"/>
      <point x="364" y="84"/>
      <point x="352" y="84" type="curve" smooth="yes"/>
    </contour>
  </outline>
</glyph>
<glyph name="Ereversed-cy" format="2">
  <advance width="708"/>
  <unicode hex="042D"/>
  <outline>
    <contour>
      <point x="347" y="-15" type="curve" smooth="yes"/>
      <point x="560" y="-15"/>
      <point x="681" y="150"/>
      <point x="678" y="360" type="curve" smooth="yes"/>
      <point x="676" y="584"/>
      <point x="556" y="735"/>
      <point x="347" y="735" type="curve" smooth="yes"/>
      <point x="182" y="735"/>
      <point x="66" y="644"/>
      <point x="30" y="487" type="curve"/>
      <point x="120" y="474" type="line"/>
      <point x="146" y="582"/>
      <point x="228" y="648"/>
      <point x="342" y="650" type="curve" smooth="yes"/>
      <point x="488" y="652"/>
      <point x="570" y="549"/>
      <point x="582" y="402" type="curve"/>
      <point x="321" y="402" type="line"/>
      <point x="321" y="318" type="line"/>
      <point x="582" y="318" type="line"/>
      <point x="578" y="260"/>
      <point x="565" y="204"/>
      <point x="527" y="154" type="curve" smooth="yes"/>
      <point x="484" y="97"/>
      <point x="416" y="71"/>
      <point x="342" y="70" type="curve" smooth="yes"/>
      <point x="234" y="68"/>
      <point x="152" y="134"/>
      <point x="122" y="236" type="curve"/>
      <point x="35" y="214" type="line"/>
      <point x="75" y="66"/>
      <point x="190" y="-15"/>
    </contour>
  </outline>
</glyph>
<glyph name="be-cy" format="2">
  <advance width="588"/>
  <unicode hex="0431"/>
  <outline>
    <contour>
      <point x="290" y="-16" type="curve" smooth="yes"/>
      <point x="446" y="-16"/>
      <point x="548" y="90"/>
      <point x="548" y="250" type="curve" smooth="yes"/>
      <point x="548" y="401"/>
      <point x="460" y="511"/>
      <point x="314" y="511" type="curve" smooth="yes"/>
      <point x="240" y="511"/>
      <point x="170" y="482"/>
      <point x="128" y="418" type="curve"/>
      <point x="134" y="495"/>
      <point x="162" y="561"/>
      <point x="214" y="593" type="curve" smooth="yes"/>
      <point x="284" y="638"/>
      <point x="423" y="639"/>
      <point x="496" y="655" type="curve"/>
      <point x="488" y="735" type="line"/>
      <point x="384" y="714"/>
      <point x="252" y="716"/>
      <point x="168" y="658" type="curve" smooth="yes"/>
      <point x="126" y="630"/>
      <point x="92" y="587"/>
      <point x="74" y="538" type="curve" smooth="yes"/>
      <point x="50" y="478"/>
      <point x="38" y="354"/>
      <point x="42" y="270" type="curve" smooth="yes"/>
      <point x="49" y="85"/>
      <point x="137" y="-14"/>
    </contour>
    <contour>
      <point x="295" y="69" type="curve" smooth="yes"/>
      <point x="192" y="69"/>
      <point x="136" y="136"/>
      <point x="136" y="248" type="curve" smooth="yes"/>
      <point x="136" y="358"/>
      <point x="192" y="426"/>
      <point x="294" y="426" type="curve" smooth="yes"/>
      <point x="396" y="426"/>
      <point x="454" y="358"/>
      <point x="454" y="248" type="curve" smooth="yes"/>
      <point x="454" y="140"/>
      <point x="400" y="69"/>
    </contour>
  </outline>
</glyph>
<glyph name="ve-cy" format="2">
  <advance width="544"/>
  <unicode hex="0432"/>
  <outline>
    <contour>
      <point x="70" y="0" type="line"/>
      <point x="326" y="0" type="line" smooth="yes"/>
      <point x="355" y="0"/>
      <point x="388" y="2"/>
      <point x="414" y="9" type="curve" smooth="yes"/>
      <point x="476" y="26"/>
      <point x="514" y="76"/>
      <point x="514" y="149" type="curve" smooth="yes"/>
      <point x="514" y="206"/>
      <point x="490" y="243"/>
      <point x="453" y="264" type="curve" smooth="yes"/>
      <point x="442" y="270"/>
      <point x="428" y="276"/>
      <point x="418" y="278" type="curve"/>
      <point x="429" y="282"/>
      <point x="442" y="290"/>
      <point x="452" y="300" type="curve" smooth="yes"/>
      <point x="474" y="322"/>
      <point x="488" y="352"/>
      <point x="488" y="392" type="curve" smooth="yes"/>
      <point x="488" y="465"/>
      <point x="445" y="514"/>
      <point x="388" y="530" type="curve" smooth="yes"/>
      <point x="362" y="537"/>
      <point x="327" y="540"/>
      <point x="300" y="540" type="curve" smooth="yes"/>
      <point x="70" y="540" type="line"/>
    </contour>
    <contour>
      <point x="160" y="72" type="line"/>
      <point x="160" y="233" type="line"/>
      <point x="313" y="233" type="line" smooth="yes"/>
      <point x="325" y="233"/>
      <point x="343" y="233"/>
      <point x="358" y="229" type="curve" smooth="yes"/>
      <point x="396" y="222"/>
      <point x="422" y="194"/>
      <point x="422" y="152" type="curve" smooth="yes"/>
      <point x="422" y="120"/>
      <point x="407" y="89"/>
      <point x="372" y="80" type="curve" smooth="yes"/>
      <point x="357" y="75"/>
      <point x="335" y="72"/>
      <point x="321" y="72" type="curve" smooth="yes"/>
    </contour>
    <contour>
      <point x="160" y="306" type="line"/>
      <point x="160" y="466" type="line"/>
      <point x="286" y="466" type="line" smooth="yes"/>
      <point x="294" y="466"/>
      <point x="326" y="466"/>
      <point x="348" y="459" type="curve" smooth="yes"/>
      <point x="379" y="448"/>
      <point x="395" y="420"/>
      <point x="395" y="386" type="curve" smooth="yes"/>
      <point x="395" y="354"/>
      <point x="380" y="326"/>
      <point x="350" y="314" type="curve" smooth="yes"/>
      <point x="335" y="308"/>
      <point x="312" y="306"/>
      <point x="294" y="306" type="curve" smooth="yes"/>
    </contour>
  </outline>
</glyph>
<glyph name="de-cy" format="2">
  <advance width="610"/>
  <unicode hex="0434"/>
  <outline>
    <contour>
      <point x="30" y="-120" type="line"/>
      <point x="115" y="-120" type="line"/>
      <point x="115" y="0" type="line"/>
      <point x="495" y="0" type="line"/>
      <point x="495" y="-120" type="line"/>
      <point x="580" y="-120" type="line"/>
      <point x="580" y="74" type="line"/>
      <point x="528" y="74" type="line"/>
      <point x="528" y="540" type="line"/>
      <point x="156" y="540" type="line"/>
      <point x="148" y="386"/>
      <point x="142" y="288"/>
      <point x="126" y="202" type="curve" smooth="yes"/>
      <point x="110" y="110"/>
      <point x="90" y="74"/>
      <point x="30" y="74" type="curve"/>
    </contour>
    <contour>
      <point x="167" y="74" type="line"/>
      <point x="191" y="97"/>
      <point x="200" y="130"/>
      <point x="209" y="181" type="curve" smooth="yes"/>
      <point x="224" y="252"/>
      <point x="231" y="372"/>
      <point x="236" y="466" type="curve"/>
      <point x="438" y="466" type="line"/>
      <point x="438" y="74" type="line"/>
    </contour>
  </outline>
</glyph>
<glyph name="zhe-cy" format="2">
  <advance width="721"/>
  <unicode hex="0436"/>
  <outline>
    <contour>
      <point x="10" y="0" type="line"/>
      <point x="114" y="0" type="line"/>
      <point x="320" y="265" type="line"/>
      <point x="320" y="0" type="line"/>
      <point x="401" y="0" type="line"/>
      <point x="401" y="265" type="line"/>
      <point x="608" y="0" type="line"/>
      <point x="711" y="0" type="line"/>
      <point x="493" y="270" type="line"/>
      <point x="700" y="540" type="line"/>
      <point x="602" y="540" type="line"/>
      <point x="401" y="275" type="line"/>
      <point x="401" y="540" type="line"/>
      <point x="320" y="540" type="line"/>
      <point x="320" y="275" type="line"/>
      <point x="120" y="540" type="line"/>
      <point x="20" y="540" type="line"/>
      <point x="228" y="270" type="line"/>
    </contour>
  </outline>
</glyph>
<glyph name="ze-cy" format="2">
  <advance width="511"/>
  <unicode hex="0437"/>
  <outline>
    <contour>
      <point x="264" y="-15" type="curve" smooth="yes"/>
      <point x="379" y="-15"/>
      <point x="471" y="48"/>
      <point x="471" y="154" type="curve" smooth="yes"/>
      <point x="471" y="216"/>
      <point x="439" y="278"/>
      <point x="374" y="294" type="curve"/>
      <point x="377" y="262" type="line"/>
      <point x="428" y="296"/>
      <point x="456" y="340"/>
      <point x="456" y="398" type="curve" smooth="yes"/>
      <point x="456" y="498"/>
      <point x="370" y="555"/>
      <point x="266" y="555" type="curve" smooth="yes"/>
      <point x="180" y="555"/>
      <point x="106" y="522"/>
      <point x="50" y="466" type="curve"/>
      <point x="104" y="405" type="line"/>
      <point x="143" y="443"/>
      <point x="200" y="471"/>
      <point x="260" y="471" type="curve" smooth="yes"/>
      <point x="317" y="471"/>
      <point x="364" y="446"/>
      <point x="364" y="390" type="curve" smooth="yes"/>
      <point x="364" y="336"/>
      <point x="316" y="316"/>
      <point x="246" y="316" type="curve" smooth="yes"/>
      <point x="190" y="316" type="line"/>
      <point x="190" y="242" type="line"/>
      <point x="246" y="242" type="line" smooth="yes"/>
      <point x="330" y="242"/>
      <point x="380" y="226"/>
      <point x="380" y="163" type="curve" smooth="yes"/>
      <point x="380" y="105"/>
      <point x="333" y="70"/>
      <point x="260" y="70" type="curve" smooth="yes"/>
      <point x="190" y="70"/>
      <point x="135" y="102"/>
      <point x="96" y="162" type="curve"/>
      <point x="25" y="116" type="line"/>
      <point x="72" y="34"/>
      <point x="156" y="-15"/>
    </contour>
  </outline>
</glyph>
<glyph name="ii-cy" format="2">
  <advance width="582"/>
  <unicode hex="0438"/>
  <outline>
    <contour>
      <point x="512" y="540" type="line"/>
      <point x="440" y="540" type="line"/>
      <point x="156" y="148" type="line"/>
      <point x="156" y="540" type="line"/>
      <point x="70" y="540" type="line"/>
      <point x="70" y="0" type="line"/>
      <point x="144" y="0" type="line"/>
      <point x="426" y="398" type="line"/>
      <point x="426" y="0" type="line"/>
      <point x="512" y="0" type="line"/>
    </contour>
  </outline>
</glyph>
<glyph name="ka-cy" format="2">
  <advance width="510"/>
  <unicode hex="043A"/>
  <outline>
    <contour>
      <point x="70" y="0" type="line"/>
      <point x="160" y="0" type="line"/>
      <point x="160" y="260" type="line"/>
      <point x="406" y="0" type="line"/>
      <point x="530" y="0" type="line"/>
      <point x="264" y="270" type="line"/>
      <point x="502" y="540" type="line"/>
      <point x="387" y="540" type="line"/>
      <point x="160" y="280" type="line"/>
      <point x="160" y="540" type="line"/>
      <point x="70" y="540" type="line"/>
    </contour>
  </outline>
</glyph>
<glyph name="el-cy" format="2">
  <advance width="586"/>
  <unicode hex="043B"/>
  <outline>
    <contour>
      <point x="20" y="0" type="line"/>
      <point x="129" y="-22"/>
      <point x="163" y="16"/>
      <point x="182" y="114" type="curve" smooth="yes"/>
      <point x="197" y="190"/>
      <point x="210" y="332"/>
      <point x="219" y="456" type="curve"/>
      <point x="426" y="456" type="line"/>
      <point x="426" y="0" type="line"/>
      <point x="516" y="0" type="line"/>
      <point x="516" y="540" type="line"/>
      <point x="138" y="540" type="line"/>
      <point x="128" y="380"/>
      <point x="118" y="250"/>
      <point x="102" y="156" type="curve" smooth="yes"/>
      <point x="92" y="96"/>
      <point x="80" y="66"/>
      <point x="20" y="76" type="curve"/>
    </contour>
  </outline>
</glyph>
<glyph name="em-cy" format="2">
  <advance width="703"/>
  <unicode hex="043C"/>
  <outline>
    <contour>
      <point x="70" y="0" type="line"/>
      <point x="156" y="0" type="line"/>
      <point x="156" y="354" type="line"/>
      <point x="328" y="0" type="line"/>
      <point x="375" y="0" type="line"/>
      <point x="547" y="354" type="line"/>
      <point x="547" y="0" type="line"/>
      <point x="633" y="0" type="line"/>
      <point x="633" y="540" type="line"/>
      <point x="556" y="540" type="line"/>
      <point x="352" y="121" type="line"/>
      <point x="146" y="540" type="line"/>
      <point x="70" y="540" type="line"/>
    </contour>
  </outline>
</glyph>
<glyph name="en-cy" format="2">
  <advance width="602"/>
  <unicode hex="043D"/>
  <outline>
    <contour>
      <point x="70" y="0" type="line"/>
      <point x="159" y="0" type="line"/>
      <point x="159" y="228" type="line"/>
      <point x="443" y="228" type="line"/>
      <point x="443" y="0" type="line"/>
      <point x="532" y="0" type="line"/>
      <point x="532" y="540" type="line"/>
      <point x="443" y="540" type="line"/>
      <point x="443" y="312" type="line"/>
      <point x="159" y="312" type="line"/>
      <point x="159" y="540" type="line"/>
      <point x="70" y="540" type="line"/>
    </contour>
  </outline>
</glyph>
<glyph name="ef-cy" format="2">
  <advance width="731"/>
  <unicode hex="0444"/>
  <outline>
    <contour>
      <point x="325" y="-225" type="line"/>
      <point x="406" y="-225" type="line"/>
      <point x="406" y="-10" type="line"/>
      <point x="564" y="-35"/>
      <point x="691" y="71"/>
      <point x="691" y="270" type="curve" smooth="yes"/>
      <point x="691" y="468"/>
      <point x="564" y="575"/>
      <point x="406" y="550" type="curve"/>
      <point x="406" y="714" type="line"/>
      <point x="325" y="714" type="line"/>
      <point x="325" y="550" type="line"/>
      <point x="167" y="575"/>
      <point x="40" y="468"/>
      <point x="40" y="270" type="curve" smooth="yes"/>
      <point x="40" y="71"/>
      <point x="167" y="-35"/>
      <point x="325" y="-10" type="curve"/>
    </contour>
    <contour>
      <point x="325" y="72" type="line"/>
      <point x="220" y="54"/>
      <point x="132" y="120"/>
      <point x="132" y="270" type="curve" smooth="yes"/>
      <point x="132" y="418"/>
      <point x="217" y="486"/>
      <point x="325" y="468" type="curve"/>
    </contour>
    <contour>
      <point x="406" y="72" type="curve"/>
      <point x="406" y="468" type="line"/>
      <point x="514" y="486"/>
      <point x="600" y="420"/>
      <point x="600" y="270" type="curve" smooth="yes"/>
      <point x="600" y="119"/>
      <point x="512" y="54"/>
    </contour>
  </outline>
</glyph>
<glyph name="tse-cy" format="2">
  <advance width="630"/>
  <unicode hex="0446"/>
  <outline>
    <contour>
      <point x="530" y="-100" type="line"/>
      <point x="620" y="-100" type="line"/>
      <point x="620" y="81" type="line"/>
      <point x="512" y="81" type="line"/>
      <point x="512" y="540" type="line"/>
      <point x="424" y="540" type="line"/>
      <point x="424" y="84" type="line"/>
      <point x="159" y="84" type="line"/>
      <point x="159" y="540" type="line"/>
      <point x="70" y="540" type="line"/>
      <point x="70" y="0" type="line"/>
      <point x="530" y="0" type="line"/>
    </contour>
  </outline>
</glyph>
<glyph name="che-cy" format="2">
  <advance width="554"/>
  <unicode hex="0447"/>
  <outline>
    <contour>
      <point x="395" y="0" type="line"/>
      <point x="484" y="0" type="line"/>
      <point x="484" y="540" type="line"/>
      <point x="395" y="540" type="line"/>
      <point x="395" y="277" type="line"/>
      <point x="364" y="255"/>
      <point x="319" y="240"/>
      <point x="268" y="240" type="curve" smooth="yes"/>
      <point x="190" y="240"/>
      <point x="149" y="274"/>
      <point x="136" y="340" type="curve" smooth="yes"/>
      <point x="130" y="366"/>
      <point x="130" y="397"/>
      <point x="130" y="417" type="curve" smooth="yes"/>
      <point x="130" y="540" type="line"/>
      <point x="40" y="540" type="line"/>
      <point x="40" y="417" type="line" smooth="yes"/>
      <point x="40" y="400"/>
      <point x="40" y="347"/>
      <point x="49" y="306" type="curve" smooth="yes"/>
      <point x="69" y="212"/>
      <point x="138" y="162"/>
      <point x="248" y="162" type="curve" smooth="yes"/>
      <point x="306" y="162"/>
      <point x="358" y="176"/>
      <point x="395" y="194" type="curve"/>
    </contour>
  </outline>
</glyph>
<glyph name="sha-cy" format="2">
  <advance width="770"/>
  <unicode hex="0448"/>
  <outline>
    <contour>
      <point x="70" y="0" type="line"/>
      <point x="700" y="0" type="line"/>
      <point x="700" y="540" type="line"/>
      <point x="614" y="540" type="line"/>
      <point x="614" y="81" type="line"/>
      <point x="428" y="81" type="line"/>
      <point x="428" y="540" type="line"/>
      <point x="342" y="540" type="line"/>
      <point x="342" y="81" type="line"/>
      <point x="156" y="81" type="line"/>
      <point x="156" y="540" type="line"/>
      <point x="70" y="540" type="line"/>
    </contour>
  </outline>
</glyph>
<glyph name="shcha-cy" format="2">
  <advance width="767"/>
  <unicode hex="0449"/>
  <outline>
    <contour>
      <point x="668" y="-100" type="line"/>
      <point x="757" y="-100" type="line"/>
      <point x="757" y="81" type="line"/>
      <point x="700" y="81" type="line"/>
      <point x="700" y="540" type="line"/>
      <point x="614" y="540" type="line"/>
      <point x="614" y="81" type="line"/>
      <point x="428" y="81" type="line"/>
      <point x="428" y="540" type="line"/>
      <point x="342" y="540" type="line"/>
      <point x="342" y="81" type="line"/>
      <point x="156" y="81" type="line"/>
      <point x="156" y="540" type="line"/>
      <point x="70" y="540" type="line"/>
      <point x="70" y="0" type="line"/>
      <point x="668" y="0" type="line"/>
    </contour>
  </outline>
</glyph>
<glyph name="hardsign-cy" format="2">
  <advance width="572"/>
  <unicode hex="044A"/>
  <outline>
    <contour>
      <point x="96" y="0" type="line"/>
      <point x="306" y="0" type="line" smooth="yes"/>
      <point x="336" y="0"/>
      <point x="374" y="1"/>
      <point x="400" y="7" type="curve" smooth="yes"/>
      <point x="478" y="24"/>
      <point x="532" y="78"/>
      <point x="532" y="172" type="curve" smooth="yes"/>
      <point x="532" y="273"/>
      <point x="475" y="322"/>
      <point x="392" y="339" type="curve" smooth="yes"/>
      <point x="367" y="344"/>
      <point x="332" y="344"/>
      <point x="301" y="344" type="curve" smooth="yes"/>
      <point x="184" y="344" type="line"/>
      <point x="184" y="540" type="line"/>
      <point x="20" y="540" type="line"/>
      <point x="20" y="466" type="line"/>
      <point x="95" y="466" type="line"/>
    </contour>
    <contour>
      <point x="184" y="74" type="line"/>
      <point x="184" y="271" type="line"/>
      <point x="308" y="271" type="line" smooth="yes"/>
      <point x="326" y="271"/>
      <point x="349" y="270"/>
      <point x="368" y="266" type="curve" smooth="yes"/>
      <point x="410" y="256"/>
      <point x="440" y="227"/>
      <point x="440" y="172" type="curve" smooth="yes"/>
      <point x="440" y="117"/>
      <point x="408" y="89"/>
      <point x="374" y="80" type="curve" smooth="yes"/>
      <point x="354" y="74"/>
      <point x="327" y="74"/>
      <point x="308" y="74" type="curve" smooth="yes"/>
    </contour>
  </outline>
</glyph>
<glyph name="yeru-cy" format="2">
  <advance width="694"/>
  <unicode hex="044B"/>
  <outline>
    <contour>
      <point x="70" y="0" type="line"/>
      <point x="247" y="0" type="line" smooth="yes"/>
      <point x="278" y="0"/>
      <point x="314" y="1"/>
      <point x="342" y="7" type="curve" smooth="yes"/>
      <point x="420" y="24"/>
      <point x="472" y="78"/>
      <point x="472" y="172" type="curve" smooth="yes"/>
      <point x="472" y="273"/>
      <point x="416" y="322"/>
      <point x="332" y="339" type="curve" smooth="yes"/>
      <point x="308" y="344"/>
      <point x="273" y="344"/>
      <point x="242" y="344" type="curve" smooth="yes"/>
      <point x="160" y="344" type="line"/>
      <point x="160" y="540" type="line"/>
      <point x="70" y="540" type="line"/>
    </contour>
    <contour>
      <point x="160" y="74" type="line"/>
      <point x="160" y="271" type="line"/>
      <point x="248" y="271" type="line" smooth="yes"/>
      <point x="268" y="271"/>
      <point x="290" y="270"/>
      <point x="310" y="266" type="curve" smooth="yes"/>
      <point x="352" y="256"/>
      <point x="381" y="227"/>
      <point x="381" y="172" type="curve" smooth="yes"/>
      <point x="381" y="117"/>
      <point x="348" y="89"/>
      <point x="315" y="80" type="curve" smooth="yes"/>
      <point x="295" y="74"/>
      <point x="268" y="74"/>
      <point x="248" y="74" type="curve" smooth="yes"/>
    </contour>
    <component base="idotless" xOffset="454"/>
  </outline>
</glyph>
<glyph name="softsign-cy" format="2">
  <advance width="546"/>
  <unicode hex="044C"/>
  <outline>
    <contour>
      <point x="70" y="0" type="line"/>
      <point x="281" y="0" type="line" smooth="yes"/>
      <point x="312" y="0"/>
      <point x="348" y="1"/>
      <point x="376" y="7" type="curve" smooth="yes"/>
      <point x="454" y="24"/>
      <point x="506" y="78"/>
      <point x="506" y="172" type="curve" smooth="yes"/>
      <point x="506" y="273"/>
      <point x="450" y="322"/>
      <point x="366" y="339" type="curve" smooth="yes"/>
      <point x="342" y="344"/>
      <point x="307" y="344"/>
      <point x="276" y="344" type="curve" smooth="yes"/>
      <point x="160" y="344" type="line"/>
      <point x="160" y="540" type="line"/>
      <point x="70" y="540" type="line"/>
    </contour>
    <contour>
      <point x="160" y="74" type="line"/>
      <point x="160" y="271" type="line"/>
      <point x="282" y="271" type="line" smooth="yes"/>
      <point x="302" y="271"/>
      <point x="324" y="270"/>
      <point x="344" y="266" type="curve" smooth="yes"/>
      <point x="386" y="256"/>
      <point x="415" y="227"/>
      <point x="415" y="172" type="curve" smooth="yes"/>
      <point x="415" y="117"/>
      <point x="382" y="89"/>
      <point x="349" y="80" type="curve" smooth="yes"/>
      <point x="329" y="74"/>
      <point x="302" y="74"/>
      <point x="282" y="74" type="curve" smooth="yes"/>
    </contour>
  </outline>
</glyph>
<glyph name="ereversed-cy" format="2">
  <advance width="562"/>
  <unicode hex="044D"/>
  <outline>
    <contour>
      <point x="264" y="-15" type="curve" smooth="yes"/>
      <point x="426" y="-15"/>
      <point x="522" y="102"/>
      <point x="522" y="270" type="curve" smooth="yes"/>
      <point x="522" y="438"/>
      <point x="425" y="555"/>
      <point x="265" y="555" type="curve" smooth="yes"/>
      <point x="149" y="555"/>
      <point x="62" y="495"/>
      <point x="33" y="398" type="curve"/>
      <point x="121" y="372" type="line"/>
      <point x="144" y="435"/>
      <point x="198" y="470"/>
      <point x="266" y="470" type="curve" smooth="yes"/>
      <point x="363" y="470"/>
      <point x="414" y="403"/>
      <point x="424" y="307" type="curve"/>
      <point x="203" y="307" type="line"/>
      <point x="203" y="234" type="line"/>
      <point x="424" y="234" type="line"/>
      <point x="414" y="134"/>
      <point x="360" y="70"/>
      <point x="264" y="70" type="curve" smooth="yes"/>
      <point x="194" y="70"/>
      <point x="148" y="102"/>
      <point x="123" y="164" type="curve"/>
      <point x="33" y="140" type="line"/>
      <point x="71" y="40"/>
      <point x="152" y="-15"/>
    </contour>
  </outline>
</glyph>
<glyph name="iu-cy" format="2">
  <advance width="812"/>
  <unicode hex="044E"/>
  <outline>
    <contour>
      <point x="511" y="-15" type="curve" smooth="yes"/>
      <point x="672" y="-15"/>
      <point x="772" y="102"/>
      <point x="772" y="271" type="curve" smooth="yes"/>
      <point x="772" y="436"/>
      <point x="673" y="555"/>
      <point x="512" y="555" type="curve" smooth="yes"/>
      <point x="374" y="555"/>
      <point x="280" y="464"/>
      <point x="264" y="314" type="curve"/>
      <point x="159" y="314" type="line"/>
      <point x="159" y="540" type="line"/>
      <point x="70" y="540" type="line"/>
      <point x="70" y="0" type="line"/>
      <point x="159" y="0" type="line"/>
      <point x="159" y="226" type="line"/>
      <point x="264" y="226" type="line"/>
      <point x="280" y="78"/>
      <point x="372" y="-15"/>
    </contour>
    <contour>
      <point x="510" y="70" type="curve" smooth="yes"/>
      <point x="402" y="70"/>
      <point x="346" y="148"/>
      <point x="346" y="271" type="curve" smooth="yes"/>
      <point x="346" y="394"/>
      <point x="402" y="470"/>
      <point x="510" y="470" type="curve" smooth="yes"/>
      <point x="621" y="470"/>
      <point x="677" y="393"/>
      <point x="677" y="270" type="curve" smooth="yes"/>
      <point x="677" y="150"/>
      <point x="622" y="70"/>
    </contour>
  </outline>
</glyph>
<glyph name="ia-cy" format="2">
  <advance width="563"/>
  <unicode hex="044F"/>
  <outline>
    <contour>
      <point x="404" y="0" type="line"/>
      <point x="493" y="0" type="line"/>
      <point x="492" y="540" type="line"/>
      <point x="282" y="540" type="line" smooth="yes"/>
      <point x="258" y="540"/>
      <point x="220" y="540"/>
      <point x="188" y="532" type="curve" smooth="yes"/>
      <point x="113" y="516"/>
      <point x="56" y="458"/>
      <point x="56" y="366" type="curve" smooth="yes"/>
      <point x="56" y="270"/>
      <point x="117" y="217"/>
      <point x="196" y="202" type="curve" smooth="yes"/>
      <point x="224" y="198"/>
      <point x="260" y="196"/>
      <point x="287" y="196" type="curve" smooth="yes"/>
      <point x="404" y="196" type="line"/>
    </contour>
    <contour>
      <point x="40" y="0" type="line"/>
      <point x="136" y="0" type="line"/>
      <point x="280" y="220" type="line"/>
      <point x="184" y="220" type="line"/>
    </contour>
    <contour>
      <point x="280" y="269" type="line" smooth="yes"/>
      <point x="264" y="269"/>
      <point x="242" y="270"/>
      <point x="220" y="275" type="curve" smooth="yes"/>
      <point x="180" y="286"/>
      <point x="148" y="317"/>
      <point x="148" y="367" type="curve" smooth="yes"/>
      <point x="148" y="419"/>
      <point x="182" y="450"/>
      <point x="214" y="460" type="curve" smooth="yes"/>
      <point x="237" y="466"/>
      <point x="265" y="466"/>
      <point x="280" y="466" type="curve" smooth="yes"/>
      <point x="404" y="466" type="line"/>
      <point x="404" y="269" type="line"/>
    </contour>
  </outline>
</glyph>
<glyph name="dje-cy" format="2">
  <advance width="604"/>
  <unicode hex="0452"/>
  <outline>
    <contour>
      <point x="466" y="-206" type="curve" smooth="yes"/>
      <point x="516" y="-196"/>
      <point x="544" y="-158"/>
      <point x="544" y="-92" type="curve" smooth="yes"/>
      <point x="544" y="298" type="line" smooth="yes"/>
      <point x="544" y="401"/>
      <point x="504" y="554"/>
      <point x="330" y="554" type="curve" smooth="yes"/>
      <point x="252" y="554"/>
      <point x="189" y="525"/>
      <point x="150" y="468" type="curve"/>
      <point x="150" y="590" type="line"/>
      <point x="265" y="590" type="line"/>
      <point x="265" y="663" type="line"/>
      <point x="150" y="663" type="line"/>
      <point x="150" y="720" type="line"/>
      <point x="70" y="720" type="line"/>
      <point x="70" y="663" type="line"/>
      <point x="9" y="663" type="line"/>
      <point x="9" y="590" type="line"/>
      <point x="70" y="590" type="line"/>
      <point x="70" y="0" type="line"/>
      <point x="160" y="0" type="line"/>
      <point x="160" y="284" type="line" smooth="yes"/>
      <point x="160" y="410"/>
      <point x="218" y="470"/>
      <point x="308" y="470" type="curve" smooth="yes"/>
      <point x="422" y="470"/>
      <point x="454" y="372"/>
      <point x="454" y="270" type="curve" smooth="yes"/>
      <point x="454" y="-60" type="line" smooth="yes"/>
      <point x="454" y="-136"/>
      <point x="419" y="-140"/>
      <point x="371" y="-134" type="curve"/>
      <point x="371" y="-202" type="line"/>
      <point x="393" y="-208"/>
      <point x="433" y="-213"/>
    </contour>
  </outline>
</glyph>
<glyph name="lje-cy" format="2">
  <advance width="844"/>
  <unicode hex="0459"/>
  <outline>
    <contour>
      <point x="20" y="0" type="line"/>
      <point x="129" y="-22"/>
      <point x="163" y="16"/>
      <point x="182" y="114" type="curve" smooth="yes"/>
      <point x="197" y="190"/>
      <point x="210" y="332"/>
      <point x="219" y="456" type="curve"/>
      <point x="401" y="456" type="line"/>
      <point x="402" y="0" type="line"/>
      <point x="578" y="0" type="line" smooth="yes"/>
      <point x="599" y="0"/>
      <point x="639" y="0"/>
      <point x="672" y="7" type="curve" smooth="yes"/>
      <point x="747" y="22"/>
      <point x="804" y="76"/>
      <point x="804" y="174" type="curve" smooth="yes"/>
      <point x="804" y="275"/>
      <point x="740" y="325"/>
      <point x="664" y="339" type="curve" smooth="yes"/>
      <point x="634" y="344"/>
      <point x="602" y="344"/>
      <point x="573" y="344" type="curve" smooth="yes"/>
      <point x="490" y="344" type="line"/>
      <point x="490" y="540" type="line"/>
      <point x="138" y="540" type="line"/>
      <point x="128" y="380"/>
      <point x="119" y="250"/>
      <point x="102" y="156" type="curve" smooth="yes"/>
      <point x="91" y="95"/>
      <point x="80" y="66"/>
      <point x="20" y="76" type="curve"/>
    </contour>
    <contour>
      <point x="490" y="74" type="line"/>
      <point x="490" y="271" type="line"/>
      <point x="580" y="271" type="line" smooth="yes"/>
      <point x="592" y="271"/>
      <point x="618" y="270"/>
      <point x="640" y="266" type="curve" smooth="yes"/>
      <point x="682" y="256"/>
      <point x="712" y="228"/>
      <point x="712" y="174" type="curve" smooth="yes"/>
      <point x="712" y="116"/>
      <point x="678" y="88"/>
      <point x="646" y="80" type="curve" smooth="yes"/>
      <point x="625" y="74"/>
      <point x="601" y="74"/>
      <point x="580" y="74" type="curve" smooth="yes"/>
    </contour>
  </outline>
</glyph>
<glyph name="nje-cy" format="2">
  <advance width="815"/>
  <unicode hex="045A"/>
  <outline>
    <contour>
      <point x="70" y="0" type="line"/>
      <point x="159" y="0" type="line"/>
      <point x="159" y="271" type="line"/>
      <point x="372" y="271" type="line"/>
      <point x="373" y="0" type="line"/>
      <point x="550" y="0" type="line" smooth="yes"/>
      <point x="570" y="0"/>
      <point x="610" y="0"/>
      <point x="644" y="7" type="curve" smooth="yes"/>
      <point x="718" y="22"/>
      <point x="775" y="76"/>
      <point x="775" y="174" type="curve" smooth="yes"/>
      <point x="775" y="275"/>
      <point x="712" y="325"/>
      <point x="635" y="339" type="curve" smooth="yes"/>
      <point x="605" y="344"/>
      <point x="574" y="344"/>
      <point x="544" y="344" type="curve" smooth="yes"/>
      <point x="462" y="344" type="line"/>
      <point x="462" y="540" type="line"/>
      <point x="372" y="540" type="line"/>
      <point x="372" y="344" type="line"/>
      <point x="159" y="344" type="line"/>
      <point x="159" y="540" type="line"/>
      <point x="70" y="540" type="line"/>
    </contour>
    <contour>
      <point x="462" y="74" type="line"/>
      <point x="462" y="271" type="line"/>
      <point x="551" y="271" type="line" smooth="yes"/>
      <point x="564" y="271"/>
      <point x="590" y="270"/>
      <point x="612" y="266" type="curve" smooth="yes"/>
      <point x="654" y="256"/>
      <point x="684" y="228"/>
      <point x="684" y="174" type="curve" smooth="yes"/>
      <point x="684" y="116"/>
      <point x="650" y="88"/>
      <point x="618" y="80" type="curve" smooth="yes"/>
      <point x="596" y="74"/>
      <point x="572" y="74"/>
      <point x="551" y="74" type="curve" smooth="yes"/>
    </contour>
  </outline>
</glyph>
<glyph name="dzhe-cy" format="2">
  <advance width="582"/>
  <unicode hex="045F"/>
  <outline>
    <contour>
      <point x="256" y="-120" type="line"/>
      <point x="346" y="-120" type="line"/>
      <point x="346" y="0" type="line"/>
      <point x="512" y="0" type="line"/>
      <point x="512" y="540" type="line"/>
      <point x="424" y="540" type="line"/>
      <point x="424" y="84" type="line"/>
      <point x="159" y="84" type="line"/>
      <point x="159" y="540" type="line"/>
      <point x="70" y="540" type="line"/>
      <point x="70" y="0" type="line"/>
      <point x="256" y="0" type="line"/>
    </contour>
  </outline>
</glyph>
<glyph name="gheupturn-cy" format="2">
  <advance width="470"/>
  <unicode hex="0491"/>
  <outline>
    <contour>
      <point x="70" y="0" type="line"/>
      <point x="159" y="0" type="line"/>
      <point x="159" y="456" type="line"/>
      <point x="445" y="456" type="line"/>
      <point x="445" y="640" type="line"/>
      <point x="356" y="640" type="line"/>
      <point x="356" y="540" type="line"/>
      <point x="70" y="540" type="line"/>
    </contour>
  </outline>
</glyph>
<glyph name="ustrait-cy" format="2">
  <advance width="523"/>
  <unicode hex="04AF"/>
  <outline>
    <contour>
      <point x="216" y="-180" type="line"/>
      <point x="307" y="-180" type="line"/>
      <point x="307" y="0" type="line"/>
      <point x="503" y="540" type="line"/>
      <point x="413" y="540" type="line"/>
      <point x="262" y="114" type="line"/>
      <point x="110" y="540" type="line"/>
      <point x="20" y="540" type="line"/>
      <point x="216" y="0" type="line"/>
    </contour>
  </outline>
</glyph>
<glyph name="Obarred-cy" format="2">
  <advance width="752"/>
  <unicode hex="04E8"/>
  <outline>
    <contour>
      <point x="105" y="316" type="line"/>
      <point x="640" y="316" type="line"/>
      <point x="640" y="404" type="line"/>
      <point x="105" y="404" type="line"/>
    </contour>
    <component base="O"/>
  </outline>
</glyph>
<glyph name="obarred-cy" format="2">
  <advance width="600"/>
  <unicode hex="04E9"/>
  <outline>
    <contour>
      <point x="90" y="234" type="line"/>
      <point x="516" y="234" type="line"/>
      <point x="516" y="307" type="line"/>
      <point x="90" y="307" type="line"/>
    </contour>
    <component base="o"/>
  </outline>
</glyph>
<glyph name="Germandbls" format="2">
  <advance width="611"/>
  <unicode hex="1E9E"/>
  <outline>
    <contour>
      <point x="326" y="-15" type="curve" smooth="yes"/>
      <point x="474" y="-15"/>
      <point x="551" y="75"/>
      <point x="551" y="212" type="curve" smooth="yes"/>
      <point x="551" y="340"/>
      <point x="464" y="422"/>
      <point x="356" y="422" type="curve"/>
      <point x="488" y="560" type="line"/>
      <point x="472" y="663"/>
      <point x="395" y="735"/>
      <point x="282" y="735" type="curve" smooth="yes"/>
      <point x="184" y="735"/>
      <point x="119" y="691"/>
      <point x="88" y="608" type="curve" smooth="yes"/>
      <point x="74" y="574"/>
      <point x="70" y="530"/>
      <point x="70" y="486" type="curve" smooth="yes"/>
      <point x="70" y="0" type="line"/>
      <point x="162" y="0" type="line"/>
      <point x="162" y="477" type="line" smooth="yes"/>
      <point x="162" y="518"/>
      <point x="164" y="554"/>
      <point x="178" y="582" type="curve" smooth="yes"/>
      <point x="199" y="628"/>
      <point x="240" y="650"/>
      <point x="282" y="650" type="curve" smooth="yes"/>
      <point x="338" y="650"/>
      <point x="380" y="620"/>
      <point x="394" y="568" type="curve"/>
      <point x="248" y="412" type="line"/>
      <point x="274" y="336" type="line"/>
      <point x="392" y="365"/>
      <point x="459" y="292"/>
      <point x="459" y="214" type="curve" smooth="yes"/>
      <point x="459" y="124"/>
      <point x="407" y="74"/>
      <point x="318" y="74" type="curve" smooth="yes"/>
      <point x="285" y="74"/>
      <point x="258" y="80"/>
      <point x="232" y="88" type="curve"/>
      <point x="232" y="0" type="line"/>
      <point x="258" y="-10"/>
      <point x="285" y="-15"/>
    </contour>
  </outline>
</glyph>
<glyph name="endash" format="2">
  <advance width="540"/>
  <unicode hex="2013"/>
  <outline>
    <contour>
      <point x="60" y="278" type="line"/>
      <point x="480" y="278" type="line"/>
      <point x="480" y="352" type="line"/>
      <point x="60" y="352" type="line"/>
    </contour>
  </outline>
</glyph>
<glyph name="bullet" format="2">
  <advance width="670"/>
  <unicode hex="2022"/>
  <outline>
    <contour>
      <point x="338" y="190" type="curve" smooth="yes"/>
      <point x="404" y="190"/>
      <point x="460" y="244"/>
      <point x="460" y="315" type="curve" smooth="yes"/>
      <point x="460" y="386"/>
      <point x="404" y="440"/>
      <point x="338" y="440" type="curve" smooth="yes"/>
      <point x="266" y="440"/>
      <point x="210" y="386"/>
      <point x="210" y="315" type="curve" smooth="yes"/>
      <point x="210" y="244"/>
      <point x="266" y="190"/>
    </contour>
  </outline>
</glyph>
<glyph name="fraction" format="2">
  <advance width="228"/>
  <unicode hex="2044"/>
  <outline>
    <contour>
      <point x="-114" y="0" type="line"/>
      <point x="400" y="680" type="line"/>
      <point x="343" y="724" type="line"/>
      <point x="-172" y="44" type="line"/>
    </contour>
  </outline>
</glyph>
<glyph name="zerosuperior" format="2">
  <advance width="453"/>
  <unicode hex="2070"/>
  <outline>
    <contour>
      <point x="226" y="258" type="curve" smooth="yes"/>
      <point x="321" y="258"/>
      <point x="383" y="324"/>
      <point x="383" y="420" type="curve" smooth="yes"/>
      <point x="383" y="567" type="line" smooth="yes"/>
      <point x="383" y="664"/>
      <point x="318" y="729"/>
      <point x="226" y="729" type="curve" smooth="yes"/>
      <point x="134" y="729"/>
      <point x="70" y="663"/>
      <point x="70" y="567" type="curve" smooth="yes"/>
      <point x="70" y="420" type="line" smooth="yes"/>
      <point x="70" y="323"/>
      <point x="134" y="258"/>
    </contour>
    <contour>
      <point x="226" y="318" type="curve" smooth="yes"/>
      <point x="170" y="318"/>
      <point x="134" y="362"/>
      <point x="134" y="420" type="curve" smooth="yes"/>
      <point x="134" y="568" type="line" smooth="yes"/>
      <point x="134" y="628"/>
      <point x="172" y="669"/>
      <point x="226" y="669" type="curve" smooth="yes"/>
      <point x="282" y="669"/>
      <point x="319" y="626"/>
      <point x="319" y="568" type="curve" smooth="yes"/>
      <point x="319" y="420" type="line" smooth="yes"/>
      <point x="319" y="360"/>
      <point x="281" y="318"/>
    </contour>
  </outline>
</glyph>
<glyph name="foursuperior" format="2">
  <advance width="413"/>
  <unicode hex="2074"/>
  <outline>
    <contour>
      <point x="254" y="270" type="line"/>
      <point x="318" y="270" type="line"/>
      <point x="318" y="350" type="line"/>
      <point x="363" y="350" type="line"/>
      <point x="363" y="410" type="line"/>
      <point x="318" y="410" type="line"/>
      <point x="318" y="532" type="line"/>
      <point x="254" y="532" type="line"/>
      <point x="254" y="410" type="line"/>
      <point x="122" y="410" type="line"/>
      <point x="269" y="720" type="line"/>
      <point x="197" y="720" type="line"/>
      <point x="50" y="410" type="line"/>
      <point x="50" y="350" type="line"/>
      <point x="254" y="350" type="line"/>
    </contour>
  </outline>
</glyph>
